<?xml version="1.0" encoding="UTF-8"?>
<svg width="34px" height="34px" viewBox="0 0 34 34" version="1.1" xmlns="http://www.w3.org/2000/svg" xmlns:xlink="http://www.w3.org/1999/xlink">
    <!-- Generator: Sketch 49.3 (51167) - http://www.bohemiancoding.com/sketch -->
    <title>163-Music-Icon-BW</title>
    <desc>Created with Sketch.</desc>
    <defs>
        <rect id="path-1" x="0" y="0" width="34" height="34" rx="8"></rect>
    </defs>
    <g id="Page-1" stroke="none" stroke-width="1" fill="none" fill-rule="evenodd">
        <g id="BUTTONS" transform="translate(-810.000000, -897.000000)">
            <g id="BnW" transform="translate(810.000000, 784.000000)">
                <g id="163-Music-Icon-BW" transform="translate(0.000000, 113.000000)">
                    <g id="Rectangle-2">
                        <use fill="#FFFFFF" fill-rule="evenodd" xlink:href="#path-1"></use>
                        <rect stroke="#4A4A4A" stroke-width="1" x="0.5" y="0.5" width="33" height="33" rx="8"></rect>
                    </g>
                    <path d="M18.9919355,15.4444423 C18.9919355,16.4062465 18.2071093,17.1888325 17.2430649,17.1888325 C16.1729831,17.1888325 15.5830567,16.2165739 15.4874736,15.3145091 C15.3052685,13.5940148 16.2065865,12.6575998 16.9951465,12.175951 C17.3154989,11.9810513 17.6664678,11.8287158 18.0338651,11.7174512 C18.0338651,11.7174512 18.8836579,14.4146846 18.9501179,14.8336071 C19.0232987,15.2950938 18.9919355,15.4444423 18.9919355,15.4444423 M23.1692123,11.2732352 C22.2290636,10.6638935 21.0768402,10.3293529 19.8902666,10.2696135 L19.625173,9.30034193 L19.6333872,9.31004958 C19.6229328,9.28092663 19.6139719,9.25255042 19.605011,9.22492095 L19.526603,8.93817188 C19.3458914,8.10928787 19.674458,7.71426116 19.8432218,7.57238011 C19.8723448,7.55072459 19.9014677,7.52832231 19.9335776,7.50741353 C20.7079495,6.99365479 21.8093944,7.81731161 21.871374,7.86584986 C22.3604903,8.33629755 23.2550876,8.45278935 23.7382299,7.97114053 C24.2258527,7.48501126 24.1108544,6.57473232 23.6232316,6.08860305 C22.8637946,5.3314063 20.532465,4.11645648 18.5483706,5.43520349 C16.7651498,6.62028361 16.7293062,8.28850603 17.0227759,9.25255042 L17.378972,10.5563626 C16.7823249,10.7273666 16.2118137,10.9722981 15.6890941,11.2911571 C13.7371095,12.4837046 12.7581303,14.496922 13.0023151,16.8140635 C13.2554607,19.1916912 15.037188,20.9189063 17.2430649,20.9189063 C19.5841022,20.9189063 21.4897887,19.018447 21.4897887,16.6833836 C21.4584255,16.1263138 21.4643995,16.1322878 21.390472,15.6342106 C21.3165445,15.1480813 20.5966848,12.8630497 20.5966848,12.8630497 C21.0387563,12.9646067 21.4517048,13.1311302 21.8086477,13.3618736 C25.8358292,15.9717381 24.1593926,20.1266126 24.0847184,20.3073243 C22.9765527,22.9619934 20.5563608,24.5465806 17.4491658,24.6548583 C15.4240005,24.7265455 13.4832171,23.971589 11.9845052,22.5288828 C10.4043984,21.0077686 9.49859993,18.8773127 9.49859993,16.6833836 C9.49859993,13.3797954 11.5827578,10.3786379 14.6839789,9.21820027 C15.329911,8.97700249 15.8511372,8.28850603 15.4941943,7.48874497 C15.2134192,6.8599879 14.4524887,6.64417936 13.8058098,6.88687063 C9.73531725,8.4094783 7,12.3470507 7,16.6833836 C7,19.5493808 8.18433338,22.3332363 10.249076,24.3210644 C12.1540157,26.1535702 14.6040774,27.151218 17.1840723,27.1504712 C17.3013108,27.1504712 17.4192961,27.1489777 17.5365347,27.1444973 C21.6025468,27.0018695 24.9121089,24.8042067 26.3854316,21.2773426 C27.3069117,19.1349388 27.8199237,14.2870874 23.1692123,11.2732352" id="Shape" fill="#4A4A4A" fill-rule="nonzero"></path>
                </g>
            </g>
        </g>
    </g>
</svg>