<?xml version="1.0" encoding="UTF-8"?>
<svg width="3000px" height="1876px" viewBox="0 0 3000 1876" version="1.1" xmlns="http://www.w3.org/2000/svg" xmlns:xlink="http://www.w3.org/1999/xlink">
    <!-- Generator: Sketch 42 (36781) - http://www.bohemiancoding.com/sketch -->
    <title>Group 3</title>
    <desc>Created with Sketch.</desc>
    <defs>
        <rect id="path-1" x="0" y="0" width="3000" height="1876"></rect>
        <rect id="path-3" x="0" y="0" width="3000" height="3000"></rect>
        <text id="text-5" font-family="VCROSDMono, VCR OSD Mono" font-size="750" font-weight="normal" fill="#FFFFFF">
            <tspan x="841" y="1840">404</tspan>
        </text>
        <filter x="-50%" y="-50%" width="200%" height="200%" filterUnits="objectBoundingBox" id="filter-6">
            <feOffset dx="100" dy="100" in="SourceAlpha" result="shadowOffsetOuter1"></feOffset>
            <feGaussianBlur stdDeviation="14.5" in="shadowOffsetOuter1" result="shadowBlurOuter1"></feGaussianBlur>
            <feColorMatrix values="0 0 0 0 0   0 0 0 0 0   0 0 0 0 0  0 0 0 0.5 0" type="matrix" in="shadowBlurOuter1"></feColorMatrix>
        </filter>
    </defs>
    <g id="Page-1" stroke="none" stroke-width="1" fill="none" fill-rule="evenodd">
        <g id="Group-3">
            <mask id="mask-2" fill="white">
                <use xlink:href="#path-1"></use>
            </mask>
            <g id="Rectangle-2"></g>
            <g id="Group" mask="url(#mask-2)">
                <g transform="translate(0.000000, -562.000000)">
                    <mask id="mask-4" fill="white">
                        <use xlink:href="#path-3"></use>
                    </mask>
                    <use id="Mask" stroke="none" fill="#D8D8D8" fill-rule="evenodd" xlink:href="#path-3"></use>
                    <g id="Group" stroke="none" fill="none" mask="url(#mask-4)" stroke-width="1" fill-rule="evenodd">
                        <g transform="translate(-1596.000000, -1625.000000)">
                            <rect id="Rectangle" fill="#000000" x="1596" y="1625" width="3000" height="3000"></rect>
                            <g id="Group-2">
                                <g id="Group-4" transform="translate(3232.646891, 2766.723528) rotate(79.000000) translate(-3232.646891, -2766.723528) translate(1092.146891, 683.223528)">
                                    <ellipse id="Oval" fill="#FFF200" transform="translate(871.037330, 2374.037330) rotate(79.000000) translate(-871.037330, -2374.037330) " cx="871.03733" cy="2374.03733" rx="440.5" ry="440.5"></ellipse>
                                    <circle id="Oval" fill="#3ADCBE" opacity="0.75" transform="translate(3824.487483, 2795.487483) rotate(79.000000) translate(-3824.487483, -2795.487483) " cx="3824.48748" cy="2795.48748" r="594"></circle>
                                    <ellipse id="Oval" fill="#78379D" transform="translate(3727.579821, 783.753874) rotate(79.000000) translate(-3727.579821, -783.753874) " cx="3727.57982" cy="783.753874" rx="145.5" ry="145.5"></ellipse>
                                    <ellipse id="Oval" fill="#FE4F20" opacity="0.84" transform="translate(3833.277689, 2159.151433) rotate(79.000000) translate(-3833.277689, -2159.151433) " cx="3833.27769" cy="2159.15143" rx="510" ry="510"></ellipse>
                                    <ellipse id="Oval" fill="#014EEF" opacity="0.95" transform="translate(2397.037330, 3495.037330) rotate(79.000000) translate(-2397.037330, -3495.037330) " cx="2397.03733" cy="3495.03733" rx="437.5" ry="437.5"></ellipse>
                                    <circle id="Combined-Shape" fill="#78379D" opacity="0.8" transform="translate(789.500000, 1561.877644) rotate(79.000000) translate(-789.500000, -1561.877644) " cx="789.5" cy="1561.87764" r="593.400783"></circle>
                                    <ellipse id="Oval" fill="#FE4F20" opacity="0.8" transform="translate(1028.727771, 1503.247232) rotate(79.000000) translate(-1028.727771, -1503.247232) " cx="1028.72777" cy="1503.24723" rx="278.953359" ry="566.905213"></ellipse>
                                    <ellipse id="Oval" fill="#014EEF" opacity="0.91" transform="translate(2904.627230, 73.627230) rotate(79.000000) translate(-2904.627230, -73.627230) " cx="2904.62723" cy="73.6272298" rx="901.5" ry="901.5"></ellipse>
                                    <ellipse id="Oval" fill="#FFF200" opacity="0.84" transform="translate(124.537330, 1669.537330) rotate(79.000000) translate(-124.537330, -1669.537330) " cx="124.53733" cy="1669.53733" rx="109" ry="109"></ellipse>
                                    <circle id="Oval" fill="#014EEF" opacity="0.95" transform="translate(940.037330, 2976.037330) rotate(79.000000) translate(-940.037330, -2976.037330) " cx="940.03733" cy="2976.03733" r="686.5"></circle>
                                    <ellipse id="Oval" fill="#3ADCBE" opacity="0.91" transform="translate(3766.537330, 455.537330) rotate(79.000000) translate(-3766.537330, -455.537330) " cx="3766.53733" cy="455.53733" rx="805" ry="805"></ellipse>
                                    <ellipse id="Oval" fill="#FFF200" opacity="0.8" transform="translate(2911.537330, 476.537330) rotate(79.000000) translate(-2911.537330, -476.537330) " cx="2911.53733" cy="476.53733" rx="177" ry="177"></ellipse>
                                    <ellipse id="Oval" fill="#5071FF" opacity="0.75" transform="translate(1459.364470, 1278.864470) rotate(79.000000) translate(-1459.364470, -1278.864470) " cx="1459.36447" cy="1278.86447" rx="385.5" ry="386"></ellipse>
                                    <ellipse id="Oval" fill="#014EEF" opacity="0.95" transform="translate(1710.155967, 276.500099) rotate(79.000000) translate(-1710.155967, -276.500099) " cx="1710.15597" cy="276.500099" rx="511.5" ry="512.5"></ellipse>
                                    <ellipse id="Oval" fill="#3ADCBE" opacity="0.8" transform="translate(725.625498, 1012.625498) rotate(79.000000) translate(-725.625498, -1012.625498) " cx="725.625498" cy="1012.6255" rx="171.5" ry="171.5"></ellipse>
                                    <ellipse id="Oval" fill="#40BE65" transform="translate(1764.424267, 3514.424267) rotate(79.000000) translate(-1764.424267, -3514.424267) " cx="1764.42427" cy="3514.42427" rx="131.5" ry="131.5"></ellipse>
                                    <circle id="Oval" fill="#FFF200" transform="translate(1758.167325, 2558.167325) rotate(79.000000) translate(-1758.167325, -2558.167325) " cx="1758.16732" cy="2558.16732" r="530"></circle>
                                    <circle id="Oval" fill="#FE4F20" transform="translate(1757.667325, 2225.667325) rotate(79.000000) translate(-1757.667325, -2225.667325) " cx="1757.66732" cy="2225.66732" r="770.5"></circle>
                                    <circle id="Oval" fill="#014EEF" opacity="0.84" transform="translate(2333.667325, 338.667325) rotate(79.000000) translate(-2333.667325, -338.667325) " cx="2333.66732" cy="338.667325" r="959.5"></circle>
                                    <circle id="Oval" fill="#40BE65" opacity="0.84" transform="translate(3138.037330, 3380.037330) rotate(79.000000) translate(-3138.037330, -3380.037330) " cx="3138.03733" cy="3380.03733" r="129.5"></circle>
                                    <ellipse id="Oval" fill="#3ADCBE" opacity="0.84" transform="translate(1229.037330, -689.962670) rotate(79.000000) translate(-1229.037330, 689.962670) " cx="1229.03733" cy="-689.96267" rx="885.5" ry="885.5"></ellipse>
                                    <ellipse id="Oval" fill="#EDC054" opacity="0.84" transform="translate(834.105416, 2683.406802) rotate(79.000000) translate(-834.105416, -2683.406802) " cx="834.105416" cy="2683.4068" rx="250" ry="250"></ellipse>
                                    <ellipse id="Oval" fill="#78379D" transform="translate(907.105416, 2815.605416) rotate(79.000000) translate(-907.105416, -2815.605416) " cx="907.105416" cy="2815.60542" rx="323" ry="325.5"></ellipse>
                                    <ellipse id="Oval" fill="#EDC054" opacity="0.8" transform="translate(2066.605416, 3202.105416) rotate(79.000000) translate(-2066.605416, -3202.105416) " cx="2066.60542" cy="3202.10542" rx="248.5" ry="249"></ellipse>
                                    <ellipse id="Oval" fill="#40BE65" opacity="0.8" transform="translate(3741.605416, 214.605416) rotate(79.000000) translate(-3741.605416, -214.605416) " cx="3741.60542" cy="214.605416" rx="887.5" ry="889.5"></ellipse>
                                    <ellipse id="Oval" fill="#FE4F20" opacity="0.91" transform="translate(3485.937804, 3120.437804) rotate(79.000000) translate(-3485.937804, -3120.437804) " cx="3485.9378" cy="3120.4378" rx="494.5" ry="495"></ellipse>
                                    <circle id="Oval" fill="#FFF200" opacity="0.75" transform="translate(2242.537330, 2854.537330) rotate(79.000000) translate(-2242.537330, -2854.537330) " cx="2242.53733" cy="2854.53733" r="584"></circle>
                                    <ellipse id="Oval" fill="#40BE65" opacity="0.7" transform="translate(2233.775419, 2751.775419) rotate(79.000000) translate(-2233.775419, -2751.775419) " cx="2233.77542" cy="2751.77542" rx="571.5" ry="571.5"></ellipse>
                                    <ellipse id="Oval" fill="#EDC054" opacity="0.75" transform="translate(2659.275419, 3085.275419) rotate(79.000000) translate(-2659.275419, -3085.275419) " cx="2659.27542" cy="3085.27542" rx="997" ry="997"></ellipse>
                                    <circle id="Oval" fill="#FFD100" opacity="0.9" transform="translate(2920.584187, 3535.584187) rotate(79.000000) translate(-2920.584187, -3535.584187) " cx="2920.58419" cy="3535.58419" r="111.5"></circle>
                                    <ellipse id="Oval" fill="#014EEF" opacity="0.95" transform="translate(1464.084187, 1931.584187) rotate(79.000000) translate(-1464.084187, -1931.584187) " cx="1464.08419" cy="1931.58419" rx="117" ry="118.5"></ellipse>
                                    <ellipse id="Oval" fill="#FE4F20" transform="translate(3546.584187, 2356.584187) rotate(79.000000) translate(-3546.584187, -2356.584187) " cx="3546.58419" cy="2356.58419" rx="273.5" ry="275.5"></ellipse>
                                    <ellipse id="Oval" fill="#EDC054" opacity="0.91" transform="translate(4192.775419, 2621.775419) rotate(79.000000) translate(-4192.775419, -2621.775419) " cx="4192.77542" cy="2621.77542" rx="820.5" ry="820.5"></ellipse>
                                    <circle id="Oval" fill="#5071FF" opacity="0.9" transform="translate(2178.775419, 2865.775419) rotate(79.000000) translate(-2178.775419, -2865.775419) " cx="2178.77542" cy="2865.77542" r="516.5"></circle>
                                    <ellipse id="Oval" fill="#FE4F20" opacity="0.7" transform="translate(2107.275419, 2831.275419) rotate(79.000000) translate(-2107.275419, -2831.275419) " cx="2107.27542" cy="2831.27542" rx="445" ry="445"></ellipse>
                                    <circle id="Oval" fill="#40BE65" opacity="0.9" transform="translate(3214.356922, 77.356922) rotate(79.000000) translate(-3214.356922, -77.356922) " cx="3214.35692" cy="77.3569217" r="864"></circle>
                                    <ellipse id="Oval" fill="#5071FF" opacity="0.88" transform="translate(4181.084187, 1087.647941) rotate(79.000000) translate(-4181.084187, -1087.647941) " cx="4181.08419" cy="1087.64794" rx="965" ry="966.5"></ellipse>
                                    <ellipse id="Oval" fill="#3ADCBE" opacity="0.75" transform="translate(1203.105416, 1294.605416) rotate(79.000000) translate(-1203.105416, -1294.605416) " cx="1203.10542" cy="1294.60542" rx="619" ry="630.5"></ellipse>
                                    <ellipse id="Oval" fill="#78379D" opacity="0.75" transform="translate(2527.605416, 427.605416) rotate(79.000000) translate(-2527.605416, -427.605416) " cx="2527.60542" cy="427.605416" rx="946.5" ry="947.5"></ellipse>
                                    <circle id="Oval" fill="#3ADCBE" opacity="0.84" transform="translate(1176.667325, 1892.667325) rotate(79.000000) translate(-1176.667325, -1892.667325) " cx="1176.66732" cy="1892.66732" r="221.5"></circle>
                                    <circle id="Oval" fill="#FFF200" transform="translate(1858.667325, 2551.667325) rotate(79.000000) translate(-1858.667325, -2551.667325) " cx="1858.66732" cy="2551.66732" r="772.5"></circle>
                                    <circle id="Oval" fill="#FE4F20" transform="translate(3345.667325, 2540.667325) rotate(79.000000) translate(-3345.667325, -2540.667325) " cx="3345.66732" cy="2540.66732" r="647.5"></circle>
                                    <circle id="Oval" fill="#78379D" opacity="0.95" transform="translate(3973.167325, 1265.167325) rotate(79.000000) translate(-3973.167325, -1265.167325) " cx="3973.16732" cy="1265.16732" r="627"></circle>
                                    <circle id="Oval" fill="#FFD100" opacity="0.88" transform="translate(3825.167325, 2157.167325) rotate(79.000000) translate(-3825.167325, -2157.167325) " cx="3825.16732" cy="2157.16732" r="653"></circle>
                                    <circle id="Oval" fill="#014EEF" opacity="0.7" transform="translate(1870.167325, 3915.167325) rotate(79.000000) translate(-1870.167325, -3915.167325) " cx="1870.16732" cy="3915.16732" r="182"></circle>
                                    <ellipse id="Oval" fill="#FFD100" opacity="0.91" transform="translate(3728.537330, 3059.537330) rotate(79.000000) translate(-3728.537330, -3059.537330) " cx="3728.53733" cy="3059.53733" rx="995" ry="995"></ellipse>
                                    <ellipse id="Oval" fill="#5071FF" opacity="0.88" transform="translate(1541.537330, 3159.537330) rotate(79.000000) translate(-1541.537330, -3159.537330) " cx="1541.53733" cy="3159.53733" rx="717" ry="717"></ellipse>
                                    <ellipse id="Oval" fill="#FFD100" opacity="0.75" transform="translate(1294.885557, 2320.999514) rotate(79.000000) translate(-1294.885557, -2320.999514) " cx="1294.88556" cy="2320.99951" rx="194.5" ry="194.5"></ellipse>
                                    <ellipse id="Oval" fill="#014EEF" opacity="0.95" transform="translate(2060.584187, 1648.084187) rotate(79.000000) translate(-2060.584187, -1648.084187) " cx="2060.58419" cy="1648.08419" rx="662.5" ry="663"></ellipse>
                                    <ellipse id="Oval" fill="#FFD100" opacity="0.75" transform="translate(2769.084187, 1271.584187) rotate(79.000000) translate(-2769.084187, -1271.584187) " cx="2769.08419" cy="1271.58419" rx="502" ry="502.5"></ellipse>
                                    <ellipse id="Oval" fill="#FE4F20" opacity="0.95" transform="translate(2052.084187, 3156.084187) rotate(79.000000) translate(-2052.084187, -3156.084187) " cx="2052.08419" cy="3156.08419" rx="249" ry="250"></ellipse>
                                    <ellipse id="Oval" fill="#3ADCBE" opacity="0.84" transform="translate(3845.289512, 2091.289512) rotate(79.000000) translate(-3845.289512, -2091.289512) " cx="3845.28951" cy="2091.28951" rx="885.5" ry="885.5"></ellipse>
                                </g>
                                <g id="Group-3" transform="translate(982.000000, 870.000000)">
                                    <ellipse id="Oval" fill="#FFF200" transform="translate(1095.711038, 2145.968023) rotate(10.000000) translate(-1095.711038, -2145.968023) " cx="1095.71104" cy="2145.96802" rx="667" ry="667"></ellipse>
                                    <circle id="Oval" fill="#3ADCBE" opacity="0.75" transform="translate(3801.592668, 2814.849653) rotate(10.000000) translate(-3801.592668, -2814.849653) " cx="3801.59267" cy="2814.84965" r="573"></circle>
                                    <circle id="Oval" fill="#78379D" transform="translate(3709.009631, 798.172196) rotate(10.000000) translate(-3709.009631, -798.172196) " cx="3709.00963" cy="798.172196" r="129"></circle>
                                    <ellipse id="Oval" fill="#FE4F20" opacity="0.84" transform="translate(4205.558115, 1783.815100) rotate(10.000000) translate(-4205.558115, -1783.815100) " cx="4205.55812" cy="1783.8151" rx="884" ry="884"></ellipse>
                                    <ellipse id="Oval" fill="#014EEF" opacity="0.95" transform="translate(2611.184583, 3277.441568) rotate(10.000000) translate(-2611.184583, -3277.441568) " cx="2611.18458" cy="3277.44157" rx="653.5" ry="653.5"></ellipse>
                                    <circle id="Combined-Shape" fill="#78379D" opacity="0.8" cx="627.758278" cy="1720.01526" r="433.927447"></circle>
                                    <ellipse id="Oval" fill="#FE4F20" opacity="0.8" cx="1026.75828" cy="1591.15708" rx="278.953359" ry="476.920259"></ellipse>
                                    <ellipse id="Oval" fill="#014EEF" opacity="0.91" transform="translate(2283.592668, 691.849653) rotate(10.000000) translate(-2283.592668, -691.849653) " cx="2283.59267" cy="691.849653" rx="282" ry="282"></ellipse>
                                    <ellipse id="Oval" fill="#FFF200" opacity="0.84" transform="translate(977.147804, 813.404789) rotate(10.000000) translate(-977.147804, -813.404789) " cx="977.147804" cy="813.404789" rx="963" ry="963"></ellipse>
                                    <ellipse id="Oval" fill="#014EEF" opacity="0.95" transform="translate(1122.293032, 2789.550017) rotate(10.000000) translate(-1122.293032, -2789.550017) " cx="1122.29303" cy="2789.55002" rx="871" ry="871"></ellipse>
                                    <circle id="Oval" fill="#3ADCBE" opacity="0.91" transform="translate(3642.740461, 575.997446) rotate(10.000000) translate(-3642.740461, -575.997446) " cx="3642.74046" cy="575.997446" r="683"></circle>
                                    <circle id="Oval" fill="#FFF200" opacity="0.8" transform="translate(2906.967482, 478.224467) rotate(10.000000) translate(-2906.967482, -478.224467) " cx="2906.96748" cy="478.224467" r="174"></circle>
                                    <ellipse id="Oval" fill="#5071FF" opacity="0.75" transform="translate(1272.904489, 1462.067053) rotate(10.000000) translate(-1272.904489, -1462.067053) " cx="1272.90449" cy="1462.06705" rx="201" ry="201"></ellipse>
                                    <ellipse id="Oval" fill="#014EEF" opacity="0.95" transform="translate(1879.006324, 103.668889) rotate(10.000000) translate(-1879.006324, -103.668889) " cx="1879.00632" cy="103.668889" rx="682.5" ry="684"></ellipse>
                                    <ellipse id="Oval" fill="#3ADCBE" opacity="0.8" transform="translate(682.764351, 1051.021336) rotate(10.000000) translate(-682.764351, -1051.021336) " cx="682.764351" cy="1051.02134" rx="131" ry="131"></ellipse>
                                    <ellipse id="Oval" fill="#40BE65" transform="translate(2110.598539, 3164.855524) rotate(10.000000) translate(-2110.598539, -3164.855524) " cx="2110.59854" cy="3164.85552" rx="479.5" ry="479.5"></ellipse>
                                    <ellipse id="Oval" fill="#FFF200" transform="translate(1930.527950, 2381.784934) rotate(10.000000) translate(-1930.527950, -2381.784934) " cx="1930.52795" cy="2381.78493" rx="704.5" ry="704.5"></ellipse>
                                    <circle id="Oval" fill="#FE4F20" transform="translate(1399.814358, 2580.071343) rotate(10.000000) translate(-1399.814358, -2580.071343) " cx="1399.81436" cy="2580.07134" r="414.5"></circle>
                                    <ellipse id="Oval" fill="#014EEF" opacity="0.84" transform="translate(1711.272989, 957.529974) rotate(10.000000) translate(-1711.272989, -957.529974) " cx="1711.27299" cy="957.529974" rx="338.5" ry="338.5"></ellipse>
                                    <circle id="Oval" fill="#40BE65" opacity="0.84" transform="translate(3156.625938, 3358.882923) rotate(10.000000) translate(-3156.625938, -3358.882923) " cx="3156.62594" cy="3358.88292" r="149.5"></circle>
                                    <ellipse id="Oval" fill="#3ADCBE" opacity="0.84" transform="translate(594.519311, -58.223704) rotate(10.000000) translate(-594.519311, 58.223704) " cx="594.519311" cy="-58.2237038" rx="252.5" ry="252.5"></ellipse>
                                    <ellipse id="Oval" fill="#EDC054" opacity="0.84" transform="translate(1162.013680, 2351.176245) rotate(10.000000) translate(-1162.013680, -2351.176245) " cx="1162.01368" cy="2351.17624" rx="580" ry="581"></ellipse>
                                    <ellipse id="Oval" fill="#78379D" transform="translate(809.877090, 2909.039654) rotate(10.000000) translate(-809.877090, -2909.039654) " cx="809.87709" cy="2909.03965" rx="228" ry="230"></ellipse>
                                    <ellipse id="Oval" fill="#EDC054" opacity="0.8" transform="translate(2117.212020, 3148.374585) rotate(10.000000) translate(-2117.212020, -3148.374585) " cx="2117.21202" cy="3148.37458" rx="300.5" ry="301.5"></ellipse>
                                    <ellipse id="Oval" fill="#40BE65" opacity="0.8" transform="translate(3137.749340, 816.411904) rotate(10.000000) translate(-3137.749340, -816.411904) " cx="3137.74934" cy="816.411904" rx="285.5" ry="286"></ellipse>
                                    <ellipse id="Oval" fill="#FE4F20" opacity="0.91" transform="translate(3289.025085, 3314.187650) rotate(10.000000) translate(-3289.025085, -3314.187650) " cx="3289.02509" cy="3314.18765" rx="299.5" ry="299.5"></ellipse>
                                    <ellipse id="Oval" fill="#FFF200" opacity="0.75" transform="translate(2487.943390, 2605.200375) rotate(10.000000) translate(-2487.943390, -2605.200375) " cx="2487.94339" cy="2605.20038" rx="831.5" ry="831.5"></ellipse>
                                    <ellipse id="Oval" fill="#40BE65" opacity="0.7" transform="translate(2292.284934, 2690.041919) rotate(10.000000) translate(-2292.284934, -2690.041919) " cx="2292.28493" cy="2690.04192" rx="632" ry="631.5"></ellipse>
                                    <ellipse id="Oval" fill="#EDC054" opacity="0.75" transform="translate(2634.918960, 3106.175945) rotate(10.000000) translate(-2634.918960, -3106.175945) " cx="2634.91896" cy="3106.17594" rx="974.5" ry="974.5"></ellipse>
                                    <ellipse id="Oval" fill="#FFD100" opacity="0.9" transform="translate(3733.566251, 2717.728816) rotate(10.000000) translate(-3733.566251, -2717.728816) " cx="3733.56625" cy="2717.72882" rx="926" ry="928"></ellipse>
                                    <ellipse id="Oval" fill="#014EEF" opacity="0.95" transform="translate(2141.232603, 1240.895168) rotate(10.000000) translate(-2141.232603, -1240.895168) " cx="2141.2326" cy="1240.89517" rx="796" ry="807.5"></ellipse>
                                    <ellipse id="Oval" fill="#FE4F20" transform="translate(3383.065509, 2517.728074) rotate(10.000000) translate(-3383.065509, -2517.728074) " cx="3383.06551" cy="2517.72807" rx="112" ry="112.5"></ellipse>
                                    <ellipse id="Oval" fill="#EDC054" opacity="0.91" transform="translate(3773.094692, 3038.351677) rotate(10.000000) translate(-3773.094692, -3038.351677) " cx="3773.09469" cy="3038.35168" rx="402.5" ry="402.5"></ellipse>
                                    <ellipse id="Oval" fill="#5071FF" opacity="0.9" transform="translate(2461.959384, 2578.716369) rotate(10.000000) translate(-2461.959384, -2578.716369) " cx="2461.95938" cy="2578.71637" rx="802" ry="801.5"></ellipse>
                                    <ellipse id="Oval" fill="#FE4F20" opacity="0.7" transform="translate(2246.561220, 2688.818205) rotate(10.000000) translate(-2246.561220, -2688.818205) " cx="2246.56122" cy="2688.8182" rx="586" ry="586"></ellipse>
                                    <ellipse id="Oval" fill="#40BE65" opacity="0.9" transform="translate(3333.711780, -46.031235) rotate(10.000000) translate(-3333.711780, 46.031235) " cx="3333.71178" cy="-46.0312353" rx="985.5" ry="985.5"></ellipse>
                                    <ellipse id="Oval" fill="#5071FF" opacity="0.88" transform="translate(3811.991072, 1454.653637) rotate(10.000000) translate(-3811.991072, -1454.653637) " cx="3811.99107" cy="1454.65364" rx="597.5" ry="598"></ellipse>
                                    <ellipse id="Oval" fill="#3ADCBE" opacity="0.75" transform="translate(1487.464956, 1000.627521) rotate(10.000000) translate(-1487.464956, -1000.627521) " cx="1487.46496" cy="1000.62752" rx="905.5" ry="922.5"></ellipse>
                                    <circle id="Oval" fill="#78379D" opacity="0.75" transform="translate(1759.399899, 1192.562464) rotate(10.000000) translate(-1759.399899, -1192.562464) " cx="1759.3999" cy="1192.56246" r="180.5"></circle>
                                    <ellipse id="Oval" fill="#3ADCBE" opacity="0.84" transform="translate(1472.277038, 1593.534023) rotate(10.000000) translate(-1472.277038, -1593.534023) " cx="1472.27704" cy="1593.53402" rx="518.5" ry="518.5"></ellipse>
                                    <ellipse id="Oval" fill="#FFF200" transform="translate(2071.534765, 2335.791750) rotate(10.000000) translate(-2071.534765, -2335.791750) " cx="2071.53477" cy="2335.79175" rx="987" ry="987"></ellipse>
                                    <circle id="Oval" fill="#FE4F20" transform="translate(3520.013980, 2363.270965) rotate(10.000000) translate(-3520.013980, -2363.270965) " cx="3520.01398" cy="2363.27096" r="823.5"></circle>
                                    <circle id="Oval" fill="#78379D" opacity="0.95" transform="translate(3934.151111, 1301.408095) rotate(10.000000) translate(-3934.151111, -1301.408095) " cx="3934.15111" cy="1301.4081" r="589.5"></circle>
                                    <circle id="Oval" fill="#FFD100" opacity="0.88" transform="translate(4066.040637, 1912.297622) rotate(10.000000) translate(-4066.040637, -1912.297622) " cx="4066.04064" cy="1912.29762" r="896"></circle>
                                    <ellipse id="Oval" fill="#014EEF" opacity="0.7" transform="translate(1923.561422, 3857.818407) rotate(10.000000) translate(-1923.561422, -3857.818407) " cx="1923.56142" cy="3857.81841" rx="237.5" ry="237.5"></ellipse>
                                    <ellipse id="Oval" fill="#FFD100" opacity="0.91" transform="translate(3689.247817, 3094.504802) rotate(10.000000) translate(-3689.247817, -3094.504802) " cx="3689.24782" cy="3094.5048" rx="958" ry="958"></ellipse>
                                    <ellipse id="Oval" fill="#5071FF" opacity="0.88" transform="translate(1623.607920, 3073.864904) rotate(10.000000) translate(-1623.607920, -3073.864904) " cx="1623.60792" cy="3073.8649" rx="801" ry="801"></ellipse>
                                    <ellipse id="Oval" fill="#FFD100" opacity="0.75" transform="translate(1341.614533, 2271.371518) rotate(10.000000) translate(-1341.614533, -2271.371518) " cx="1341.61453" cy="2271.37152" rx="243" ry="242.5"></ellipse>
                                    <ellipse id="Oval" fill="#014EEF" opacity="0.95" transform="translate(2335.782070, 1367.944634) rotate(10.000000) translate(-2335.782070, -1367.944634) " cx="2335.78207" cy="1367.94463" rx="940" ry="941"></ellipse>
                                    <circle id="Oval" fill="#FFD100" opacity="0.75" transform="translate(2385.170854, 1653.333418) rotate(10.000000) translate(-2385.170854, -1653.333418) " cx="2385.17085" cy="1653.33342" r="119.5"></circle>
                                    <ellipse id="Oval" fill="#FE4F20" opacity="0.95" transform="translate(2097.305218, 3107.467782) rotate(10.000000) translate(-2097.305218, -3107.467782) " cx="2097.30522" cy="3107.46778" rx="296" ry="297"></ellipse>
                                    <ellipse id="Oval" fill="#3ADCBE" opacity="0.84" transform="translate(3865.658466, 2067.915451) rotate(10.000000) translate(-3865.658466, -2067.915451) " cx="3865.65847" cy="2067.91545" rx="907.5" ry="907.5"></ellipse>
                                </g>
                                <g id="Group-3" transform="translate(3740.904797, 3654.971186) rotate(120.000000) translate(-3740.904797, -3654.971186) translate(1150.904797, 831.471186)">
                                    <ellipse id="Oval" fill="#FFF200" transform="translate(822.211038, 3855.468023) rotate(10.000000) translate(-822.211038, -3855.468023) " cx="822.211038" cy="3855.46802" rx="369.5" ry="369.5"></ellipse>
                                    <ellipse id="Oval" fill="#3ADCBE" opacity="0.75" transform="translate(3989.092668, 4063.349653) rotate(10.000000) translate(-3989.092668, -4063.349653) " cx="3989.09267" cy="4063.34965" rx="736.5" ry="736.5"></ellipse>
                                    <ellipse id="Oval" fill="#78379D" transform="translate(4048.509631, 1893.672196) rotate(10.000000) translate(-4048.509631, -1893.672196) " cx="4048.50963" cy="1893.6722" rx="444.5" ry="445.5"></ellipse>
                                    <ellipse id="Oval" fill="#FE4F20" opacity="0.84" transform="translate(3922.058115, 3503.315100) rotate(10.000000) translate(-3922.058115, -3503.315100) " cx="3922.05812" cy="3503.3151" rx="576.5" ry="576.5"></ellipse>
                                    <ellipse id="Oval" fill="#014EEF" opacity="0.95" transform="translate(2401.684583, 4922.941568) rotate(10.000000) translate(-2401.684583, -4922.941568) " cx="2401.68458" cy="4922.94157" rx="420" ry="420"></ellipse>
                                    <circle id="Combined-Shape" fill="#78379D" opacity="0.8" cx="728.258278" cy="3055.51526" r="510.414659"></circle>
                                    <ellipse id="Oval" fill="#FE4F20" opacity="0.8" cx="1050.75828" cy="2614.15708" rx="278.953359" ry="865.855229"></ellipse>
                                    <ellipse id="Oval" fill="#014EEF" opacity="0.91" transform="translate(2227.592668, 2183.849653) rotate(10.000000) translate(-2227.592668, -2183.849653) " cx="2227.59267" cy="2183.84965" rx="202" ry="202"></ellipse>
                                    <ellipse id="Oval" fill="#FFF200" opacity="0.84" transform="translate(276.147804, 2950.404789) rotate(10.000000) translate(-276.147804, -2950.404789) " cx="276.147804" cy="2950.40479" rx="238" ry="238"></ellipse>
                                    <ellipse id="Oval" fill="#014EEF" opacity="0.95" transform="translate(384.793032, 4963.050017) rotate(10.000000) translate(-384.793032, -4963.050017) " cx="384.793032" cy="4963.05002" rx="109.5" ry="109.5"></ellipse>
                                    <ellipse id="Oval" fill="#3ADCBE" opacity="0.91" transform="translate(3354.740461, 2299.997446) rotate(10.000000) translate(-3354.740461, -2299.997446) " cx="3354.74046" cy="2299.99745" rx="371" ry="371"></ellipse>
                                    <ellipse id="Oval" fill="#FFF200" opacity="0.8" transform="translate(3209.967482, 1611.224467) rotate(10.000000) translate(-3209.967482, -1611.224467) " cx="3209.96748" cy="1611.22447" rx="453" ry="453"></ellipse>
                                    <ellipse id="Oval" fill="#5071FF" opacity="0.75" transform="translate(1374.904489, 2795.567053) rotate(10.000000) translate(-1374.904489, -2795.567053) " cx="1374.90449" cy="2795.56705" rx="279" ry="279.5"></ellipse>
                                    <ellipse id="Oval" fill="#014EEF" opacity="0.95" transform="translate(1665.506324, 1753.668889) rotate(10.000000) translate(-1665.506324, -1753.668889) " cx="1665.50632" cy="1753.66889" rx="445" ry="446"></ellipse>
                                    <ellipse id="Oval" fill="#3ADCBE" opacity="0.8" transform="translate(1005.264351, 2164.521336) rotate(10.000000) translate(-1005.264351, -2164.521336) " cx="1005.26435" cy="2164.52134" rx="429.5" ry="429.5"></ellipse>
                                    <ellipse id="Oval" fill="#40BE65" transform="translate(2368.098539, 4343.355524) rotate(10.000000) translate(-2368.098539, -4343.355524) " cx="2368.09854" cy="4343.35552" rx="713" ry="713"></ellipse>
                                    <ellipse id="Oval" fill="#FFF200" transform="translate(1372.027950, 4376.284934) rotate(10.000000) translate(-1372.027950, -4376.284934) " cx="1372.02795" cy="4376.28493" rx="122" ry="122"></ellipse>
                                    <circle id="Oval" fill="#FE4F20" transform="translate(1294.314358, 4121.571343) rotate(10.000000) translate(-1294.314358, -4121.571343) " cx="1294.31436" cy="4121.57134" r="285"></circle>
                                    <ellipse id="Oval" fill="#014EEF" opacity="0.84" transform="translate(2252.772989, 1852.029974) rotate(10.000000) translate(-2252.772989, -1852.029974) " cx="2252.77299" cy="1852.02997" rx="856" ry="856"></ellipse>
                                    <ellipse id="Oval" fill="#40BE65" opacity="0.84" transform="translate(3400.125938, 4551.382923) rotate(10.000000) translate(-3400.125938, -4551.382923) " cx="3400.12594" cy="4551.38292" rx="369" ry="369"></ellipse>
                                    <circle id="Oval" fill="#3ADCBE" opacity="0.84" transform="translate(1110.019311, 862.276296) rotate(10.000000) translate(-1110.019311, -862.276296) " cx="1110.01931" cy="862.276296" r="744"></circle>
                                    <ellipse id="Oval" fill="#EDC054" opacity="0.84" transform="translate(1488.513680, 3460.176245) rotate(10.000000) translate(-1488.513680, -3460.176245) " cx="1488.51368" cy="3460.17624" rx="882.5" ry="884"></ellipse>
                                    <ellipse id="Oval" fill="#78379D" transform="translate(1103.377090, 4049.539654) rotate(10.000000) translate(-1103.377090, -4049.539654) " cx="1103.37709" cy="4049.53965" rx="497.5" ry="501.5"></ellipse>
                                    <ellipse id="Oval" fill="#EDC054" opacity="0.8" transform="translate(2431.212020, 4269.374585) rotate(10.000000) translate(-2431.212020, -4269.374585) " cx="2431.21202" cy="4269.37458" rx="590.5" ry="592.5"></ellipse>
                                    <ellipse id="Oval" fill="#40BE65" opacity="0.8" transform="translate(3138.249340, 2251.911904) rotate(10.000000) translate(-3138.249340, -2251.911904) " cx="3138.24934" cy="2251.9119" rx="262" ry="262.5"></ellipse>
                                    <ellipse id="Oval" fill="#FE4F20" opacity="0.91" transform="translate(3986.025085, 4052.187650) rotate(10.000000) translate(-3986.025085, -4052.187650) " cx="3986.02509" cy="4052.18765" rx="972.5" ry="973.5"></ellipse>
                                    <ellipse id="Oval" fill="#FFF200" opacity="0.75" transform="translate(2636.443390, 3892.700375) rotate(10.000000) translate(-2636.443390, -3892.700375) " cx="2636.44339" cy="3892.70038" rx="956" ry="956"></ellipse>
                                    <ellipse id="Oval" fill="#40BE65" opacity="0.7" transform="translate(2124.784934, 4293.541919) rotate(10.000000) translate(-2124.784934, -4293.541919) " cx="2124.78493" cy="4293.54192" rx="440.5" ry="440"></ellipse>
                                    <ellipse id="Oval" fill="#EDC054" opacity="0.75" transform="translate(2000.418960, 5176.675945) rotate(10.000000) translate(-2000.418960, -5176.675945) " cx="2000.41896" cy="5176.67594" rx="316" ry="316"></ellipse>
                                    <ellipse id="Oval" fill="#FFD100" opacity="0.9" transform="translate(3744.566251, 4142.728816) rotate(10.000000) translate(-3744.566251, -4142.728816) " cx="3744.56625" cy="4142.72882" rx="913" ry="915"></ellipse>
                                    <ellipse id="Oval" fill="#014EEF" opacity="0.95" transform="translate(1933.232603, 2888.395168) rotate(10.000000) translate(-1933.232603, -2888.395168) " cx="1933.2326" cy="2888.39517" rx="564" ry="572"></ellipse>
                                    <ellipse id="Oval" fill="#FE4F20" transform="translate(4167.565509, 3163.228074) rotate(10.000000) translate(-4167.565509, -3163.228074) " cx="4167.56551" cy="3163.22807" rx="872.5" ry="879"></ellipse>
                                    <ellipse id="Oval" fill="#EDC054" opacity="0.91" transform="translate(3855.594692, 4391.851677) rotate(10.000000) translate(-3855.594692, -4391.851677) " cx="3855.59469" cy="4391.85168" rx="461" ry="461"></ellipse>
                                    <ellipse id="Oval" fill="#5071FF" opacity="0.9" transform="translate(2427.459384, 4049.216369) rotate(10.000000) translate(-2427.459384, -4049.216369) " cx="2427.45938" cy="4049.21637" rx="743.5" ry="743"></ellipse>
                                    <ellipse id="Oval" fill="#FE4F20" opacity="0.7" transform="translate(2025.561220, 4345.818205) rotate(10.000000) translate(-2025.561220, -4345.818205) " cx="2025.56122" cy="4345.8182" rx="341" ry="341"></ellipse>
                                    <ellipse id="Oval" fill="#40BE65" opacity="0.9" transform="translate(3341.711780, 1381.968765) rotate(10.000000) translate(-3341.711780, -1381.968765) " cx="3341.71178" cy="1381.96876" rx="969.5" ry="969.5"></ellipse>
                                    <circle id="Oval" fill="#5071FF" opacity="0.88" transform="translate(3460.491072, 3242.653637) rotate(10.000000) translate(-3460.491072, -3242.653637) " cx="3460.49107" cy="3242.65364" r="222"></circle>
                                    <ellipse id="Oval" fill="#3ADCBE" opacity="0.75" transform="translate(1277.964956, 2650.627521) rotate(10.000000) translate(-1277.964956, -2650.627521) " cx="1277.96496" cy="2650.62752" rx="672" ry="684.5"></ellipse>
                                    <ellipse id="Oval" fill="#78379D" opacity="0.75" transform="translate(2477.899899, 1909.062464) rotate(10.000000) translate(-2477.899899, -1909.062464) " cx="2477.8999" cy="1909.06246" rx="875" ry="876"></ellipse>
                                    <ellipse id="Oval" fill="#3ADCBE" opacity="0.84" transform="translate(1931.777038, 2570.034023) rotate(10.000000) translate(-1931.777038, -2570.034023) " cx="1931.77704" cy="2570.03402" rx="954" ry="954"></ellipse>
                                    <circle id="Oval" fill="#FFF200" transform="translate(1782.534765, 4060.791750) rotate(10.000000) translate(-1782.534765, -4060.791750) " cx="1782.53477" cy="4060.79175" r="674"></circle>
                                    <circle id="Oval" fill="#FE4F20" transform="translate(3636.513980, 3682.770965) rotate(10.000000) translate(-3636.513980, -3682.770965) " cx="3636.51398" cy="3682.77096" r="916"></circle>
                                    <circle id="Oval" fill="#78379D" opacity="0.95" transform="translate(3892.151111, 2779.408095) rotate(10.000000) translate(-3892.151111, -2779.408095) " cx="3892.15111" cy="2779.4081" r="523.5"></circle>
                                    <circle id="Oval" fill="#FFD100" opacity="0.88" transform="translate(3984.540637, 3429.797622) rotate(10.000000) translate(-3984.540637, -3429.797622) " cx="3984.54064" cy="3429.79762" r="790.5"></circle>
                                    <ellipse id="Oval" fill="#014EEF" opacity="0.7" transform="translate(2589.561422, 4627.818407) rotate(10.000000) translate(-2589.561422, -4627.818407) " cx="2589.56142" cy="4627.81841" rx="879.5" ry="879.5"></ellipse>
                                    <ellipse id="Oval" fill="#FFD100" opacity="0.91" transform="translate(3210.747817, 5009.004802) rotate(10.000000) translate(-3210.747817, -5009.004802) " cx="3210.74782" cy="5009.0048" rx="455.5" ry="455.5"></ellipse>
                                    <ellipse id="Oval" fill="#5071FF" opacity="0.88" transform="translate(1389.607920, 4743.864904) rotate(10.000000) translate(-1389.607920, -4743.864904) " cx="1389.60792" cy="4743.8649" rx="543" ry="543"></ellipse>
                                    <ellipse id="Oval" fill="#FFD100" opacity="0.75" transform="translate(1404.114533, 3644.871518) rotate(10.000000) translate(-1404.114533, -3644.871518) " cx="1404.11453" cy="3644.87152" rx="281.5" ry="281"></ellipse>
                                    <ellipse id="Oval" fill="#014EEF" opacity="0.95" transform="translate(1934.282070, 3205.944634) rotate(10.000000) translate(-1934.282070, -3205.944634) " cx="1934.28207" cy="3205.94463" rx="514.5" ry="515"></ellipse>
                                    <ellipse id="Oval" fill="#FFD100" opacity="0.75" transform="translate(3125.170854, 2348.333418) rotate(10.000000) translate(-3125.170854, -2348.333418) " cx="3125.17085" cy="2348.33342" rx="835.5" ry="836.5"></ellipse>
                                    <ellipse id="Oval" fill="#FE4F20" opacity="0.95" transform="translate(2235.305218, 4404.967782) rotate(10.000000) translate(-2235.305218, -4404.967782) " cx="2235.30522" cy="4404.96778" rx="410" ry="411.5"></ellipse>
                                    <ellipse id="Oval" fill="#3ADCBE" opacity="0.84" transform="translate(3521.158466, 3848.415451) rotate(10.000000) translate(-3521.158466, -3848.415451) " cx="3521.15847" cy="3848.41545" rx="539" ry="539"></ellipse>
                                </g>
                            </g>
                        </g>
                    </g>
                    <g id="404" stroke="none" fill="none" mask="url(#mask-4)" fill-opacity="1">
                        <use fill="#FFFFFF" filter="url(#filter-6)" xlink:href="#text-5"></use>
                        <use fill="#FFFFFF" xlink:href="#text-5"></use>
                    </g>
                </g>
            </g>
        </g>
    </g>
</svg>