<?xml version="1.0" encoding="UTF-8"?>
<svg width="488px" height="105px" viewBox="0 0 488 105" version="1.1" xmlns="http://www.w3.org/2000/svg" xmlns:xlink="http://www.w3.org/1999/xlink">
    <!-- Generator: Sketch 44.1 (41455) - http://www.bohemiancoding.com/sketch -->
    <title>Group</title>
    <desc>Created with Sketch.</desc>
    <defs></defs>
    <g id="Page-1" stroke="none" stroke-width="1" fill="none" fill-rule="evenodd">
        <g id="Group">
            <rect id="Rectangle" fill="#000000" x="0" y="0" width="488" height="105" rx="35"></rect>
            <text id="点此通过支付宝捐款" font-family="PingFangTC-Regular, PingFang TC" font-size="36" font-weight="normal" letter-spacing="1.13999999" fill="#FFFFFF">
                <tspan x="124.37" y="62">点此通过支付宝捐款</tspan>
            </text>
            <g id="6034948ded48a3e315f7b903347169ce" transform="translate(25.396552, 19.950000)" fill-rule="nonzero" fill="#FFFFFF">
                <path d="M49.6575278,38.7175421 C54.9902291,29.036176 56.9265075,19.8460084 56.9265075,19.8460084 L55.9583683,19.8460084 L55.9583683,19.8460084 L47.7212494,19.8460084 L39.0000608,19.8460084 L39.0000608,13.0722211 L60.3229303,13.0722211 L60.3229303,10.1725648 L39.0000608,10.1725648 L39.0000608,0 L29.3027975,0 L29.3027975,10.1646422 L9.91620639,10.1646422 L9.91620639,13.0642985 L29.3027975,13.0642985 L29.3027975,19.8380858 L12.8206241,19.8380858 L12.8206241,22.7377422 L46.2690405,22.7377422 C46.2690405,23.2210182 46.2690405,23.2210182 45.7849709,23.7042943 C45.7849709,27.0951492 43.3646229,31.9279097 41.4204089,35.8020407 C16.7011165,26.1365197 9.43213678,31.9437548 7.48792278,32.910307 C-8.99425066,44.5247773 6.51978356,59.038904 8.9401316,58.555628 C26.3904443,62.429759 37.5399164,55.1647731 45.2929657,45.9746055 C45.7770353,46.4578816 46.261105,46.4578816 46.7451746,46.4578816 C52.0858114,49.3654604 77.773243,61.4632069 77.773243,61.4632069 C77.773243,61.4632069 77.773243,50.8152886 77.773243,46.9490802 C73.8927506,46.9411576 59.8388607,42.1004745 49.6575278,38.7175421 Z M37.0558468,43.0749492 C24.9382354,58.555628 10.400276,53.7149449 7.97992795,52.7483928 C2.16315707,51.2985646 0.22687863,40.6506464 7.49585834,37.2597914 C19.6134697,33.3856604 30.2788723,37.7430675 38.0319216,41.6171985 C37.5399164,42.5837506 37.0558468,43.0749492 37.0558468,43.0749492 Z" id="Shape"></path>
            </g>
        </g>
    </g>
</svg>