<?xml version="1.0" encoding="UTF-8"?>
<svg width="327px" height="100px" viewBox="0 0 327 100" version="1.1" xmlns="http://www.w3.org/2000/svg" xmlns:xlink="http://www.w3.org/1999/xlink">
    <!-- Generator: Sketch 44.1 (41455) - http://www.bohemiancoding.com/sketch -->
    <title>Group</title>
    <desc>Created with Sketch.</desc>
    <defs></defs>
    <g id="Page-1" stroke="none" stroke-width="1" fill="none" fill-rule="evenodd">
        <g id="Group">
            <rect id="Rectangle" fill="#000000" x="0" y="0" width="327" height="100" rx="35"></rect>
            <text id="支付宝捐款" font-family="PingFangTC-Regular, PingFang TC" font-size="36" font-weight="normal" letter-spacing="1.13999999" fill="#FFFFFF">
                <tspan x="120.65" y="61">支付宝捐款</tspan>
            </text>
            <g id="6034948ded48a3e315f7b903347169ce" transform="translate(27.000000, 19.000000)" fill-rule="nonzero" fill="#FFFFFF">
                <path d="M47.2153543,36.8738497 C52.2857916,27.6535009 54.1268432,18.9009604 54.1268432,18.9009604 L53.2063174,18.9009604 L53.2063174,18.9009604 L45.3743027,18.9009604 L37.082025,18.9009604 L37.082025,12.4497344 L57.3562289,12.4497344 L57.3562289,9.68815694 L37.082025,9.68815694 L37.082025,0 L27.8616763,0 L27.8616763,9.68061165 L9.42852411,9.68061165 L9.42852411,12.4421891 L27.8616763,12.4421891 L27.8616763,18.8934151 L12.1901016,18.8934151 L12.1901016,21.6549925 L43.9935139,21.6549925 C43.9935139,22.1152554 43.9935139,22.1152554 43.533251,22.5755184 C43.533251,25.804904 41.2319365,30.4075331 39.3833396,34.0971816 C15.8797501,24.8919235 8.9682612,30.4226237 7.11966428,31.3431495 C-8.55191046,42.4045498 6.19913846,56.2275277 8.500453,55.7672648 C25.0925536,59.4569133 35.693691,52.5378791 43.0654428,43.7853386 C43.5257057,44.2456015 43.9859686,44.2456015 44.4462316,44.2456015 C49.5242141,47.0147242 73.9483294,58.5363875 73.9483294,58.5363875 C73.9483294,58.5363875 73.9483294,48.3955129 73.9483294,44.7134097 C70.2586809,44.7058644 56.8959659,40.09569 47.2153543,36.8738497 Z M35.2334281,41.0237611 C23.7117648,55.7672648 9.88878702,51.1570904 7.58747248,50.2365646 C2.05677229,48.8557758 0.215720664,38.7149013 7.12720957,35.4855156 C18.6488728,31.7958671 28.7897474,35.9457786 36.1614992,39.6354271 C35.693691,40.5559529 35.2334281,41.0237611 35.2334281,41.0237611 Z" id="Shape"></path>
            </g>
        </g>
    </g>
</svg>