<?xml version="1.0" encoding="UTF-8"?>
<svg width="133px" height="34px" viewBox="0 0 133 34" version="1.1" xmlns="http://www.w3.org/2000/svg" xmlns:xlink="http://www.w3.org/1999/xlink">
    <!-- Generator: Sketch 44.1 (41455) - http://www.bohemiancoding.com/sketch -->
    <title>Alipay-Phone</title>
    <desc>Created with Sketch.</desc>
    <defs></defs>
    <g id="Page-1" stroke="none" stroke-width="1" fill="none" fill-rule="evenodd">
        <g id="Artboard-Copy-4" transform="translate(-661.000000, -707.000000)">
            <g id="Alipay-Phone" transform="translate(661.000000, 707.000000)">
                <rect id="Rectangle" fill="#4A4A4A" x="0" y="0" width="133" height="34" rx="8"></rect>
                <text id="手机用户点此" font-family="PingFangTC-Medium, PingFang TC" font-size="12" font-weight="400" letter-spacing="1.13999999" fill="#FFFFFF">
                    <tspan x="47.08" y="21">手机用户点此</tspan>
                </text>
                <g id="6034948ded48a3e315f7b903347169ce" transform="translate(9.000000, 11.000000)" fill-rule="nonzero" fill="#FFFFFF">
                    <path d="M10.8543496,8.39693149 C12.0199937,6.29726906 12.4432336,4.30413615 12.4432336,4.30413615 L12.2316137,4.30413615 L12.2316137,4.30413615 L10.4311098,4.30413615 L8.52479604,4.30413615 L8.52479604,2.83505974 L13.1856378,2.83505974 L13.1856378,2.20619194 L8.52479604,2.20619194 L8.52479604,4.61852778e-14 L6.40512775,4.61852778e-14 L6.40512775,2.20447373 L2.16752577,2.20447373 L2.16752577,2.83334152 L6.40512775,2.83334152 L6.40512775,4.30241794 L2.80238551,4.30241794 L2.80238551,4.93128573 L10.11368,4.93128573 C10.11368,5.03609703 10.11368,5.03609703 10.00787,5.14090833 C10.00787,5.87630565 9.47882023,6.92441864 9.05384582,7.76462726 C3.65059974,5.66840127 2.06171582,6.92785508 1.63674141,7.13747768 C-1.96600084,9.6563853 1.4251215,12.8041607 1.95417127,12.6993494 C5.76853343,13.539558 8.20563158,11.9639521 9.90032546,9.9708192 C10.0061354,10.0756305 10.1119454,10.0756305 10.2177553,10.0756305 C11.385134,10.7062165 17,13.3299354 17,13.3299354 C17,13.3299354 17,11.0206504 17,10.18216 C16.1517858,10.1804418 13.0798279,9.13061059 10.8543496,8.39693149 Z M8.09982163,9.3419514 C5.45110357,12.6993494 2.27333573,11.6495182 1.74428595,11.4398956 C0.472831899,11.1254617 0.0495920776,8.81617669 1.638476,8.08077937 C4.28719406,7.24057076 6.61848225,8.18559067 8.31317613,9.02579929 C8.20563158,9.23542189 8.09982163,9.3419514 8.09982163,9.3419514 Z" id="Shape"></path>
                </g>
            </g>
        </g>
    </g>
</svg>