<?xml version="1.0" encoding="UTF-8"?>
<svg width="34px" height="34px" viewBox="0 0 34 34" version="1.1" xmlns="http://www.w3.org/2000/svg" xmlns:xlink="http://www.w3.org/1999/xlink">
    <!-- Generator: Sketch 44.1 (41455) - http://www.bohemiancoding.com/sketch -->
    <title>Apple-Podcast-Icon-BW</title>
    <desc>Created with Sketch.</desc>
    <defs></defs>
    <g id="Page-1" stroke="none" stroke-width="1" fill="none" fill-rule="evenodd">
        <g id="Artboard-Copy-4" transform="translate(-621.000000, -784.000000)">
            <g id="BnW" transform="translate(621.000000, 784.000000)">
                <g id="Apple-Podcast-Icon-BW">
                    <rect id="Rectangle-2" fill="#4A4A4A" x="0" y="0" width="34" height="34" rx="8"></rect>
                    <path d="M19.0569487,18.8557847 C18.6302716,18.4062499 17.881047,18.116719 16.995946,18.116719 C16.110845,18.116719 15.3616203,18.40498 14.9349432,18.8557847 C14.7127156,19.0907111 14.5946174,19.3319868 14.5577912,19.6748523 C14.4854084,20.3389955 14.5260443,20.9117079 14.6035066,21.826016 C14.6771591,22.6971484 14.818115,23.8590816 15.0022465,25.0438724 C15.1330433,25.8857978 15.2397126,26.340412 15.3362229,26.6667692 C15.4924172,27.1937662 16.0790982,27.6559998 16.995946,27.6559998 C17.9127938,27.6559998 18.4982049,27.1950361 18.6556691,26.6667692 C18.7521794,26.3416819 18.8588487,25.8870676 18.9896455,25.0438724 C19.173777,23.8603514 19.3147328,22.6984183 19.3883854,21.826016 C19.4658476,20.9117079 19.5064835,20.3389955 19.4353707,19.6748523 C19.3985444,19.3319868 19.2804463,19.0907111 19.0569487,18.8557847 Z M14.6720797,14.8467978 C14.6720797,16.1319086 15.713375,17.1744737 16.9997556,17.1744737 C18.2861362,17.1744737 19.3274315,16.1331785 19.3274315,14.8467978 C19.3274315,13.561687 18.2848664,12.5191219 16.9997556,12.5191219 C15.7146448,12.5191219 14.6720797,13.561687 14.6720797,14.8467978 Z M16.9705485,5.6630813 C11.5278758,5.67831977 7.0680843,10.0936658 7.00078106,15.5363385 C6.94617655,19.9453351 9.76021358,23.7168559 13.6904684,25.0984769 C13.7857088,25.1314936 13.8822191,25.0527615 13.8682505,24.9524416 C13.8161857,24.610846 13.7679306,24.2667106 13.723485,23.9276547 C13.7082466,23.8082867 13.6320542,23.705427 13.5215754,23.6571719 C10.4154677,22.2996784 8.2465258,19.1846816 8.28081235,15.5769744 C8.32652775,10.8416206 12.1932889,6.98120875 16.9286427,6.94184271 C21.769396,6.90247667 25.7212386,10.8301917 25.7212386,15.6620558 C25.7212386,19.2342066 23.5611858,22.3111072 20.4792057,23.6571719 C20.3687268,23.705427 20.2925345,23.8082867 20.277296,23.9276547 C20.2328505,24.2654407 20.1845953,24.6095761 20.1325306,24.9511717 C20.1172921,25.0514917 20.2138024,25.1302237 20.3103127,25.0972071 C24.2024713,23.7282847 27,20.0151781 27,15.660786 C26.9987301,10.1393812 22.4970328,5.64657296 16.9705485,5.6630813 Z M16.7889568,10.2511299 C19.8747465,10.1317619 22.4221103,12.6067431 22.4221103,15.6658655 C22.4221103,17.221459 21.7630466,18.6259378 20.7090526,19.6164382 C20.6201615,19.7002498 20.5719064,19.8196178 20.5782558,19.9415255 C20.5985737,20.3135981 20.5909545,20.6755117 20.5668269,21.0831407 C20.5604775,21.1923497 20.6823853,21.2609228 20.7725462,21.199969 C22.5389386,19.9923204 23.7008718,17.9630645 23.7008718,15.6658655 C23.7008718,11.8841857 20.5503186,8.82379347 16.736892,8.97236853 C13.1926784,9.10951474 10.3481645,12.0314909 10.3037189,15.5795141 C10.2745119,17.9122696 11.4427944,19.9783518 13.2320445,21.2012388 C13.3222054,21.2621927 13.4441131,21.1923497 13.4364939,21.0844106 C13.4110965,20.6755117 13.4034772,20.3135981 13.4250651,19.9415255 C13.4314144,19.8196178 13.3844291,19.7002498 13.2942682,19.6164382 C12.2072575,18.5967307 11.5405746,17.1351077 11.5837502,15.5211 C11.6612124,12.6803957 13.9507922,10.360339 16.7889568,10.2511299 Z" id="Shape" fill="#FFFFFF" fill-rule="nonzero"></path>
                </g>
            </g>
        </g>
    </g>
</svg>