<?xml version="1.0" encoding="UTF-8"?>
<svg width="34px" height="34px" viewBox="0 0 34 34" version="1.1" xmlns="http://www.w3.org/2000/svg" xmlns:xlink="http://www.w3.org/1999/xlink">
    <!-- Generator: Sketch 44.1 (41455) - http://www.bohemiancoding.com/sketch -->
    <title>Email-Icon-BW</title>
    <desc>Created with Sketch.</desc>
    <defs></defs>
    <g id="Page-1" stroke="none" stroke-width="1" fill="none" fill-rule="evenodd">
        <g id="Artboard-Copy-4" transform="translate(-621.000000, -1373.000000)">
            <g id="BnW" transform="translate(621.000000, 784.000000)">
                <g id="Email-Icon-BW" transform="translate(0.000000, 589.000000)">
                    <rect id="Rectangle-2" fill="#4A4A4A" x="0" y="0" width="34" height="34" rx="8"></rect>
                    <g id="envelope-o" transform="translate(7.000000, 9.000000)" fill-rule="nonzero" fill="#FFFFFF">
                        <path d="M18.5714286,14.1818182 L18.5714286,5.45454545 C18.3333333,5.72727273 18.0766369,5.97727273 17.8013393,6.20454545 C15.8072917,7.76515152 14.2224702,9.04545455 13.046875,10.0454545 C12.6674107,10.3712121 12.358631,10.625 12.1205357,10.8068182 C11.8824405,10.9886364 11.5606399,11.1723485 11.1551339,11.3579545 C10.749628,11.5435606 10.3683036,11.6363636 10.0111607,11.6363636 L9.98883929,11.6363636 C9.63169643,11.6363636 9.25037202,11.5435606 8.84486607,11.3579545 C8.43936012,11.1723485 8.11755952,10.9886364 7.87946429,10.8068182 C7.64136905,10.625 7.33258929,10.3712121 6.953125,10.0454545 C5.77752976,9.04545455 4.19270833,7.76515152 2.19866071,6.20454545 C1.9233631,5.97727273 1.66666667,5.72727273 1.42857143,5.45454545 L1.42857143,14.1818182 C1.42857143,14.280303 1.46391369,14.3655303 1.53459821,14.4375 C1.60528274,14.5094697 1.6889881,14.5454545 1.78571429,14.5454545 L18.2142857,14.5454545 C18.3110119,14.5454545 18.3947173,14.5094697 18.4654018,14.4375 C18.5360863,14.3655303 18.5714286,14.280303 18.5714286,14.1818182 Z M18.5714286,2.23863636 L18.5714286,1.96022727 L18.5658482,1.8125 L18.5323661,1.67045455 L18.4709821,1.56818182 L18.3705357,1.48295455 L18.2142857,1.45454545 L1.78571429,1.45454545 C1.6889881,1.45454545 1.60528274,1.4905303 1.53459821,1.5625 C1.46391369,1.6344697 1.42857143,1.71969697 1.42857143,1.81818182 C1.42857143,3.09090909 1.97544643,4.16666667 3.06919643,5.04545455 C4.50520833,6.1969697 5.99702381,7.39772727 7.54464286,8.64772727 C7.58928571,8.68560606 7.71949405,8.79734848 7.93526786,8.98295455 C8.15104167,9.16856061 8.32217262,9.31060606 8.44866071,9.40909091 C8.57514881,9.50757576 8.7406994,9.62689394 8.9453125,9.76704545 C9.1499256,9.90719697 9.33779762,10.0113636 9.50892857,10.0795455 C9.68005952,10.1477273 9.84002976,10.1818182 9.98883929,10.1818182 L10.0111607,10.1818182 C10.1599702,10.1818182 10.3199405,10.1477273 10.4910714,10.0795455 C10.6622024,10.0113636 10.8500744,9.90719697 11.0546875,9.76704545 C11.2593006,9.62689394 11.4248512,9.50757576 11.5513393,9.40909091 C11.6778274,9.31060606 11.8489583,9.16856061 12.0647321,8.98295455 C12.280506,8.79734848 12.4107143,8.68560606 12.4553571,8.64772727 C14.0029762,7.39772727 15.4947917,6.1969697 16.9308036,5.04545455 C17.3325893,4.71969697 17.7064732,4.28219697 18.0524554,3.73295455 C18.3984375,3.18371212 18.5714286,2.68560606 18.5714286,2.23863636 Z M20,1.81818182 L20,14.1818182 C20,14.6818182 19.8251488,15.1098485 19.4754464,15.4659091 C19.125744,15.8219697 18.7053571,16 18.2142857,16 L1.78571429,16 C1.29464286,16 0.874255952,15.8219697 0.524553571,15.4659091 C0.17485119,15.1098485 0,14.6818182 0,14.1818182 L0,1.81818182 C0,1.31818182 0.17485119,0.890151515 0.524553571,0.534090909 C0.874255952,0.178030303 1.29464286,0 1.78571429,0 L18.2142857,0 C18.7053571,0 19.125744,0.178030303 19.4754464,0.534090909 C19.8251488,0.890151515 20,1.31818182 20,1.81818182 Z" id="Shape"></path>
                    </g>
                </g>
            </g>
        </g>
    </g>
</svg>