<?xml version="1.0" encoding="UTF-8"?>
<svg width="34px" height="34px" viewBox="0 0 34 34" version="1.1" xmlns="http://www.w3.org/2000/svg" xmlns:xlink="http://www.w3.org/1999/xlink">
    <!-- Generator: Sketch 44.1 (41455) - http://www.bohemiancoding.com/sketch -->
    <title>Instagram Icon</title>
    <desc>Created with Sketch.</desc>
    <defs>
        <radialGradient cx="26.5626266%" cy="107.702106%" fx="26.5626266%" fy="107.702106%" r="49.9906001%" gradientTransform="translate(0.265626,1.077021),scale(1.000000,0.992637),translate(-0.265626,-1.077021)" id="radialGradient-1">
            <stop stop-color="#FFDD55" offset="0%"></stop>
            <stop stop-color="#FFDD55" offset="10%"></stop>
            <stop stop-color="#FF543E" offset="50%"></stop>
            <stop stop-color="#C837AB" offset="100%"></stop>
        </radialGradient>
        <radialGradient cx="-16.7505274%" cy="7.20383154%" fx="-16.7505274%" fy="7.20383154%" r="49.9906001%" gradientTransform="translate(-0.167505,0.072038),scale(1.000000,0.992637),translate(0.167505,-0.072038)" id="radialGradient-2">
            <stop stop-color="#3771C8" offset="0%"></stop>
            <stop stop-color="#3771C8" offset="12.8%"></stop>
            <stop stop-color="#6600FF" stop-opacity="0" offset="100%"></stop>
        </radialGradient>
    </defs>
    <g id="Page-1" stroke="none" stroke-width="1" fill="none" fill-rule="evenodd">
        <g id="Artboard-Copy-4" transform="translate(-433.000000, -1217.000000)" fill-rule="nonzero">
            <g id="Instagram-Icon" transform="translate(433.000000, 1217.000000)">
                <path d="M16.8790534,0 C9.83456489,0 7.77432061,0.00732307692 7.37384733,0.0408 C5.92819847,0.161892308 5.02862595,0.391261538 4.04859542,0.882953846 C3.29332824,1.26087692 2.69767939,1.69895385 2.10981679,2.31304615 C1.03920611,3.43295385 0.390351145,4.81073846 0.155465649,6.44849231 C0.0412671756,7.24356923 0.00804580153,7.40572308 0.00129770992,11.4668923 C-0.00129770992,12.8206154 0.00129770992,14.6022154 0.00129770992,16.9918923 C0.00129770992,24.0848154 0.00908396947,26.1588154 0.0428244275,26.5615846 C0.159618321,27.9791231 0.380229008,28.8709692 0.84740458,29.8465077 C1.74022901,31.7138923 3.44541985,33.1157385 5.45427481,33.6388154 C6.14984733,33.8192769 6.9180916,33.9186615 7.90435115,33.9657385 C8.32221374,33.9840462 12.5812977,33.9971231 16.8429771,33.9971231 C21.1046565,33.9971231 25.3663359,33.9918923 25.7738168,33.9709692 C26.9158015,33.9168308 27.5789313,33.8271231 28.3121374,33.6362 C30.3339695,33.1105077 32.0080153,31.7295846 32.9190076,29.8360462 C33.3770992,28.8840462 33.6093893,27.9582 33.7145038,26.6146769 C33.7373435,26.3217538 33.7469466,21.6514615 33.7469466,16.9874462 C33.7469466,12.3226462 33.7365649,7.66098462 33.7137252,7.36806154 C33.607313,6.00283077 33.3750229,5.08483077 32.9021374,4.11452308 C32.5141221,3.32023077 32.0832824,2.72706154 31.4577863,2.12055385 C30.3414962,1.04615385 28.9763053,0.392307692 27.3494962,0.155876923 C26.5612672,0.0410615385 26.4042443,0.00706153846 22.3709618,0 L16.8790534,0 Z" id="Shape" fill="url(#radialGradient-1)"></path>
                <path d="M16.8790534,0 C9.83456489,0 7.77432061,0.00732307692 7.37384733,0.0408 C5.92819847,0.161892308 5.02862595,0.391261538 4.04859542,0.882953846 C3.29332824,1.26087692 2.69767939,1.69895385 2.10981679,2.31304615 C1.03920611,3.43295385 0.390351145,4.81073846 0.155465649,6.44849231 C0.0412671756,7.24356923 0.00804580153,7.40572308 0.00129770992,11.4668923 C-0.00129770992,12.8206154 0.00129770992,14.6022154 0.00129770992,16.9918923 C0.00129770992,24.0848154 0.00908396947,26.1588154 0.0428244275,26.5615846 C0.159618321,27.9791231 0.380229008,28.8709692 0.84740458,29.8465077 C1.74022901,31.7138923 3.44541985,33.1157385 5.45427481,33.6388154 C6.14984733,33.8192769 6.9180916,33.9186615 7.90435115,33.9657385 C8.32221374,33.9840462 12.5812977,33.9971231 16.8429771,33.9971231 C21.1046565,33.9971231 25.3663359,33.9918923 25.7738168,33.9709692 C26.9158015,33.9168308 27.5789313,33.8271231 28.3121374,33.6362 C30.3339695,33.1105077 32.0080153,31.7295846 32.9190076,29.8360462 C33.3770992,28.8840462 33.6093893,27.9582 33.7145038,26.6146769 C33.7373435,26.3217538 33.7469466,21.6514615 33.7469466,16.9874462 C33.7469466,12.3226462 33.7365649,7.66098462 33.7137252,7.36806154 C33.607313,6.00283077 33.3750229,5.08483077 32.9021374,4.11452308 C32.5141221,3.32023077 32.0832824,2.72706154 31.4577863,2.12055385 C30.3414962,1.04615385 28.9763053,0.392307692 27.3494962,0.155876923 C26.5612672,0.0410615385 26.4042443,0.00706153846 22.3709618,0 L16.8790534,0 Z" id="Shape" fill="url(#radialGradient-2)"></path>
                <path d="M16.8712672,4.44615385 C13.4878779,4.44615385 13.0632672,4.46106154 11.7344122,4.522 C10.4081527,4.5832 9.50287023,4.79478462 8.71074809,5.10523077 C7.89137405,5.42587692 7.19632061,5.8548 6.5038626,6.55284615 C5.8108855,7.25063077 5.38523664,7.95103077 5.066,8.77644615 C4.75714504,9.57492308 4.54691603,10.4874308 4.48722137,11.8233692 C4.42778626,13.1624462 4.41221374,13.5905846 4.41221374,17 C4.41221374,20.4094154 4.42726718,20.8359846 4.48748092,22.1750615 C4.54847328,23.5115231 4.75844275,24.4237692 5.06625954,25.2219846 C5.38471756,26.0476615 5.81036641,26.7480615 6.50308397,27.4458462 C7.19528244,28.1441538 7.89033588,28.5741231 8.70919084,28.8947692 C9.50183206,29.2052154 10.407374,29.4168 11.733374,29.478 C13.062229,29.5389385 13.4865802,29.5538462 16.8697099,29.5538462 C20.2533588,29.5538462 20.6766718,29.5389385 22.0055267,29.478 C23.3317863,29.4168 24.2381069,29.2052154 25.0307481,28.8947692 C25.8498626,28.5741231 26.5438779,28.1441538 27.2360763,27.4458462 C27.9290534,26.7480615 28.3547023,26.0476615 28.6739389,25.2222462 C28.9801985,24.4237692 29.1904275,23.5112615 29.2527176,22.1753231 C29.3124122,20.8362462 29.3279847,20.4094154 29.3279847,17 C29.3279847,13.5905846 29.3124122,13.1627077 29.2527176,11.8236308 C29.1904275,10.4871692 28.9801985,9.57492308 28.6739389,8.77670769 C28.3547023,7.95103077 27.9290534,7.25063077 27.2360763,6.55284615 C26.5430992,5.85453846 25.8501221,5.42561538 25.0299695,5.10523077 C24.235771,4.79478462 23.3299695,4.5832 22.0037099,4.522 C20.674855,4.46106154 20.2518015,4.44615385 16.867374,4.44615385 L16.8712672,4.44615385 Z M15.7536794,6.70846154 C16.085374,6.70793846 16.4554809,6.70846154 16.8712672,6.70846154 C20.1975573,6.70846154 20.5918015,6.72049231 21.9053435,6.78064615 C23.12,6.83661538 23.7792366,7.04113846 24.2183817,7.21296923 C24.7997557,7.44050769 25.2142443,7.71250769 25.6500153,8.15189231 C26.0860458,8.59127692 26.3559695,9.00973846 26.5822901,9.59558462 C26.7528092,10.0375846 26.9560305,10.7018923 27.011313,11.9258923 C27.0710076,13.2492769 27.0839847,13.6468154 27.0839847,16.9971231 C27.0839847,20.3474308 27.0710076,20.7449692 27.011313,22.0683538 C26.955771,23.2923538 26.7528092,23.9566615 26.5822901,24.3986615 C26.3564885,24.9845077 26.0860458,25.4016615 25.6500153,25.8407846 C25.2139847,26.2801692 24.8000153,26.5521692 24.2183817,26.7797077 C23.7797557,26.9523231 23.12,27.1563231 21.9053435,27.2122923 C20.5920611,27.2724462 20.1975573,27.2855231 16.8712672,27.2855231 C13.5447176,27.2855231 13.1504733,27.2724462 11.8371908,27.2122923 C10.6225344,27.1558 9.96329771,26.9512769 9.52389313,26.7794462 C8.94251908,26.5519077 8.52725191,26.2799077 8.09122137,25.8405231 C7.65519084,25.4011385 7.38526718,24.9837231 7.15894656,24.3976154 C6.98842748,23.9556154 6.78520611,23.2913077 6.72992366,22.0673077 C6.67022901,20.7439231 6.65829008,20.3463846 6.65829008,16.9939846 C6.65829008,13.6415846 6.67022901,13.2461385 6.72992366,11.9227538 C6.78546565,10.6987538 6.98842748,10.0344462 7.15894656,9.59192308 C7.38474809,9.00607692 7.65519084,8.58761538 8.09122137,8.14823077 C8.52725191,7.70884615 8.94251908,7.43684615 9.52389313,7.20878462 C9.96303817,7.03616923 10.6225344,6.83216923 11.8371908,6.77593846 C12.9864427,6.72363077 13.4318168,6.70793846 15.7536794,6.70532308 L15.7536794,6.70846154 Z M23.5212519,8.79292308 C22.6959084,8.79292308 22.0262901,9.46690769 22.0262901,10.2988615 C22.0262901,11.1305538 22.6959084,11.8053231 23.5212519,11.8053231 C24.3465954,11.8053231 25.0162137,11.1305538 25.0162137,10.2988615 C25.0162137,9.46716923 24.3465954,8.7924 23.5212519,8.7924 L23.5212519,8.79292308 Z M16.8712672,10.5530769 C13.3381221,10.5530769 10.4735573,13.4396769 10.4735573,17 C10.4735573,20.5603231 13.3381221,23.4456154 16.8712672,23.4456154 C20.4044122,23.4456154 23.2679389,20.5603231 23.2679389,17 C23.2679389,13.4396769 20.4041527,10.5530769 16.8710076,10.5530769 L16.8712672,10.5530769 Z M16.8712672,12.8153846 C19.1645802,12.8153846 21.0239389,14.6887846 21.0239389,17 C21.0239389,19.3109538 19.1645802,21.1846154 16.8712672,21.1846154 C14.5776947,21.1846154 12.7185954,19.3109538 12.7185954,17 C12.7185954,14.6887846 14.5776947,12.8153846 16.8712672,12.8153846 Z" id="Shape" fill="#FFFFFF"></path>
            </g>
        </g>
    </g>
</svg>