<?xml version="1.0" encoding="UTF-8"?>
<svg width="34px" height="34px" viewBox="0 0 34 34" version="1.1" xmlns="http://www.w3.org/2000/svg" xmlns:xlink="http://www.w3.org/1999/xlink">
    <!-- Generator: Sketch 49.3 (51167) - http://www.bohemiancoding.com/sketch -->
    <title>Overcast-Icon-BW</title>
    <desc>Created with Sketch.</desc>
    <defs>
        <rect id="path-1" x="0" y="0" width="34" height="34" rx="8"></rect>
    </defs>
    <g id="Page-1" stroke="none" stroke-width="1" fill="none" fill-rule="evenodd">
        <g id="BUTTONS" transform="translate(-810.000000, -858.000000)">
            <g id="BnW" transform="translate(810.000000, 784.000000)">
                <g id="Overcast-Icon-BW" transform="translate(0.000000, 74.000000)">
                    <g id="Rectangle-2">
                        <use fill="#FFFFFF" fill-rule="evenodd" xlink:href="#path-1"></use>
                        <rect stroke="#4A4A4A" stroke-width="1" x="0.5" y="0.5" width="33" height="33" rx="8"></rect>
                    </g>
                    <g id="logo" transform="translate(7.000000, 7.000000)" fill="#4A4A4A">
                        <path d="M10,20 C4.45825,20 0,15.54175 0,10 C0,4.45825 4.45825,0 10,0 C15.54175,0 20,4.45825 20,10 C20,15.54175 15.54175,20 10,20 Z M10,16.04175 L10.75,15.29175 L10,12.41675 L9.25,15.29175 L10,16.04175 Z M9.04175,16 L8.66675,17.41675 L9.54175,16.54175 L9.04175,16 Z M10.95825,16 L10.45825,16.5 L11.33325,17.375 L10.95825,16 Z M11.66675,18.58325 L10,16.91675 L8.33325,18.58325 C8.875,18.66675 9.41675,18.75 10,18.75 C10.58325,18.75 11.125,18.70825 11.66675,18.58325 Z M10,1.25 C5.16675,1.25 1.25,5.16675 1.25,10 C1.25,13.83325 3.70825,17.08325 7.125,18.25 L9,11.29175 C8.58325,11 8.33325,10.5 8.33325,9.95825 C8.33325,9.04175 9.08325,8.29175 10,8.29175 C10.91675,8.29175 11.66675,9.04175 11.66675,9.95825 C11.66675,10.5 11.41675,10.95825 11,11.29175 L12.875,18.25 C16.29175,17.08325 18.75,13.83325 18.75,10 C18.75,5.16675 14.83325,1.25 10,1.25 Z M15.70825,14.33325 C15.5,14.58325 15.125,14.66675 14.83325,14.45825 C14.54175,14.25 14.5,13.875 14.70825,13.625 C14.70825,13.625 15.83325,12.125 15.83325,10 C15.83325,7.875 14.70825,6.375 14.70825,6.375 C14.5,6.125 14.54175,5.75 14.83325,5.54175 C15.125,5.33325 15.5,5.41675 15.70825,5.66675 C15.79175,5.75 17.08325,7.45825 17.08325,10 C17.08325,12.54175 15.79175,14.25 15.70825,14.33325 Z M12.66675,12.70825 C12.41675,12.45825 12.45825,12 12.70825,11.75 C12.70825,11.75 13.33325,11.08325 13.33325,10 C13.33325,8.91675 12.70825,8.29175 12.70825,8.25 C12.45825,8 12.45825,7.58325 12.66675,7.29175 C12.91675,7 13.29175,7 13.54175,7.25 C13.58325,7.29175 14.58325,8.33325 14.58325,10 C14.58325,11.66675 13.58325,12.70825 13.54175,12.75 C13.29175,13 12.91675,12.95825 12.66675,12.70825 Z M7.33325,12.70825 C7.08325,12.95825 6.70825,13 6.45825,12.75 C6.41675,12.66675 5.41675,11.66675 5.41675,10 C5.41675,8.33325 6.41675,7.33325 6.45825,7.25 C6.70825,7 7.125,7 7.33325,7.29175 C7.58325,7.54175 7.54175,8 7.29175,8.25 C7.29175,8.29175 6.66675,8.91675 6.66675,10 C6.66675,11.08325 7.29175,11.75 7.29175,11.75 C7.54175,12 7.58325,12.41675 7.33325,12.70825 Z M5.16675,14.45825 C4.875,14.66675 4.5,14.58325 4.29175,14.33325 C4.20825,14.25 2.91675,12.54175 2.91675,10 C2.91675,7.45825 4.20825,5.75 4.29175,5.66675 C4.5,5.41675 4.875,5.33325 5.16675,5.54175 C5.45825,5.75 5.5,6.125 5.29175,6.375 C5.29175,6.375 4.16675,7.875 4.16675,10 C4.16675,12.125 5.29175,13.625 5.29175,13.625 C5.5,13.875 5.41675,14.25 5.16675,14.45825 Z" id="overcastCanvas-bezier"></path>
                    </g>
                </g>
            </g>
        </g>
    </g>
</svg>