<?xml version="1.0" encoding="UTF-8"?>
<svg width="488px" height="105px" viewBox="0 0 488 105" version="1.1" xmlns="http://www.w3.org/2000/svg" xmlns:xlink="http://www.w3.org/1999/xlink">
    <!-- Generator: Sketch 44.1 (41455) - http://www.bohemiancoding.com/sketch -->
    <title>Group</title>
    <desc>Created with Sketch.</desc>
    <defs></defs>
    <g id="Page-1" stroke="none" stroke-width="1" fill="none" fill-rule="evenodd">
        <g id="Group">
            <rect id="Rectangle" fill="#000000" x="0" y="0" width="488" height="105" rx="35"></rect>
            <text id="点此通过-Paypal-捐款" font-family="PingFangTC-Regular, PingFang TC" font-size="36" font-weight="normal" letter-spacing="1.13999999" fill="#FFFFFF">
                <tspan x="107.146" y="64">点此通过 Paypal 捐款</tspan>
            </text>
            <g id="paypal" transform="translate(32.000000, 19.000000)" fill-rule="nonzero" fill="#FFFFFF">
                <path d="M55.1220485,24.4839844 C55.5598146,26.606435 55.5111739,29.1836965 54.9761265,32.2157689 C52.860257,43.4344367 45.9897612,49.0437706 34.3646391,49.0437706 L32.7594967,49.0437706 C32.1514882,49.0437706 31.6164408,49.2522255 31.1543543,49.6691355 C30.6922679,50.0860454 30.4004238,50.6229749 30.2788221,51.2799239 L30.1329001,52.0000411 L28.1264721,65.1137541 L28.0535111,65.6822677 C27.9319094,66.3392167 27.6339853,66.8761462 27.1597387,67.2930561 C26.685492,67.7099661 26.1443645,67.9184211 25.536356,67.9184211 L16.3797484,67.9184211 C15.8690212,67.9184211 15.4677356,67.7289165 15.1758916,67.3499075 C14.8840475,66.9708984 14.774606,66.5160876 14.847567,65.9854749 C15.0664501,64.5705078 15.3886945,62.4480572 15.8143005,59.6181229 C16.2399064,56.7881887 16.5621509,54.6657381 16.781034,53.250771 C16.999917,51.8358039 17.3282416,49.71967 17.7660077,46.9023694 C18.2037738,44.0850689 18.5320984,41.968935 18.7509814,40.5539679 C18.8725831,39.6190789 19.3954704,39.1516345 20.3196433,39.1516345 L25.0985899,39.1516345 C28.333195,39.202169 31.202995,38.9368627 33.7079899,38.3557155 C37.9640493,37.3702919 41.4540179,35.5510485 44.1778959,32.8979852 C46.6585705,30.4975946 48.5433968,27.3897204 49.8323747,23.5743627 C50.4160629,21.8056538 50.8416688,20.1253803 51.1091926,18.5335424 C51.1335129,18.3819387 51.1639133,18.2871865 51.2003938,18.2492856 C51.2368743,18.2113847 51.2794349,18.198751 51.3280756,18.2113847 C51.3767163,18.2240183 51.4496773,18.268236 51.5469587,18.3440378 C53.4682654,19.8348067 54.6599621,21.8814556 55.1220485,24.4839844 Z M48.847401,13.7959293 C48.847401,16.4995271 48.2880332,19.481065 47.1692976,22.7405428 C45.2236705,28.6278166 41.5512993,32.6074116 36.152184,34.6793277 C33.4039857,35.6900185 30.339623,36.2206312 26.9590959,36.2711657 C26.9590959,36.296433 25.8646806,36.3090666 23.6758501,36.3090666 L20.3926043,36.2711657 C17.9605704,36.2711657 16.5256704,37.4839947 16.0879043,39.9096525 C16.0392636,40.1117907 15.0056492,46.8076172 12.9870611,59.997132 C12.9627407,60.2498047 12.8168187,60.376141 12.549295,60.376141 L1.78754492,60.376141 C1.25249746,60.376141 0.808651274,60.1676861 0.456006358,59.7507761 C0.103361441,59.3338662 -0.0364805086,58.8474712 0.0364805086,58.2915913 L8.4999585,2.53936061 C8.6215602,1.80660979 8.95596486,1.20019531 9.50317249,0.720117188 C10.0503801,0.240039063 10.6766289,0 11.3819187,0 L33.1972628,0 C34.0241544,0 35.2097709,0.164237253 36.7541124,0.49271176 C38.2984539,0.821186266 39.6543128,1.22546258 40.8216891,1.70554071 C43.4239654,2.74149877 45.4121531,4.29543586 46.7862523,6.36735197 C48.1603514,8.43926809 48.847401,10.9154605 48.847401,13.7959293 Z" id="Shape"></path>
            </g>
        </g>
    </g>
</svg>