<?xml version="1.0" encoding="UTF-8"?>
<svg width="327px" height="100px" viewBox="0 0 327 100" version="1.1" xmlns="http://www.w3.org/2000/svg" xmlns:xlink="http://www.w3.org/1999/xlink">
    <!-- Generator: Sketch 44.1 (41455) - http://www.bohemiancoding.com/sketch -->
    <title>Group</title>
    <desc>Created with Sketch.</desc>
    <defs></defs>
    <g id="Page-1" stroke="none" stroke-width="1" fill="none" fill-rule="evenodd">
        <g id="Group">
            <rect id="Rectangle" fill="#000000" x="0" y="0" width="327" height="100" rx="35"></rect>
            <text id="Paypal-捐款" font-family="PingFangTC-Regular, PingFang TC" font-size="36" font-weight="normal" letter-spacing="1.13999999" fill="#FFFFFF">
                <tspan x="97.9900001" y="61">Paypal 捐款</tspan>
            </text>
            <g id="paypal" transform="translate(32.000000, 18.000000)" fill-rule="nonzero" fill="#FFFFFF">
                <path d="M54.5412065,23.3180804 C54.9743597,25.3394619 54.9262316,27.7939967 54.3968221,30.6816847 C52.3032484,41.3661302 45.5051496,46.7083529 34.0025258,46.7083529 L32.4142975,46.7083529 C31.8126958,46.7083529 31.2832863,46.9068815 30.8260691,47.3039386 C30.3688518,47.7009957 30.080083,48.2123571 29.9597627,48.8380228 L29.8153783,49.5238487 L27.8300928,62.0130992 L27.7579006,62.5545406 C27.6375803,63.1802064 27.3427955,63.6915678 26.8735462,64.0886249 C26.4042969,64.485682 25.8688714,64.6842105 25.2672697,64.6842105 L16.2071487,64.6842105 C15.7018033,64.6842105 15.3047462,64.50373 15.0159774,64.142769 C14.7272086,63.781808 14.6189203,63.3486548 14.6911125,62.8433094 C14.9076891,61.4957217 15.226538,59.4743401 15.6476592,56.7791647 C16.0687803,54.0839893 16.3876292,52.0626077 16.6042058,50.71502 C16.8207824,49.3674323 17.1456473,47.3520667 17.5788005,44.6689233 C18.0119537,41.9857799 18.3368186,39.9704143 18.5533952,38.6228266 C18.6737155,37.7324561 19.191093,37.2872709 20.1055275,37.2872709 L24.8341165,37.2872709 C28.0346374,37.335399 30.8741972,37.0827263 33.3527961,36.5292528 C37.5640077,35.5907542 41.0172012,33.8581414 43.7123766,31.3314145 C46.1669114,29.0453282 48.0318766,26.085448 49.3072721,22.451774 C49.8848097,20.7672893 50.3059308,19.1670289 50.5706356,17.6509927 C50.5946996,17.5066083 50.6247797,17.4163681 50.6608758,17.380272 C50.6969719,17.3441759 50.739084,17.3321438 50.7872122,17.3441759 C50.8353403,17.3562079 50.9075325,17.39832 51.0037888,17.4705122 C52.90485,18.8902921 54.0839893,20.8394815 54.5412065,23.3180804 Z M48.3326774,13.1389803 C48.3326774,15.7138354 47.7792039,18.5533952 46.6722568,21.6576598 C44.7471315,27.2645872 41.1134575,31.0546777 35.7712347,33.0279312 C33.0519952,33.9904938 30.0199229,34.4958392 26.6750176,34.5439673 C26.6750176,34.5680314 25.5921346,34.5800634 23.4263687,34.5800634 L20.1777197,34.5439673 C17.771313,34.5439673 16.3515331,35.6990425 15.9183799,38.0091929 C15.8702518,38.2017054 14.847529,44.578683 12.8502115,57.1401257 C12.8261474,57.3807664 12.681763,57.5010867 12.4170583,57.5010867 L1.76870888,57.5010867 C1.23929942,57.5010867 0.800130208,57.3025582 0.451201245,56.9055011 C0.102272282,56.508444 -0.0360960996,56.0452107 0.0360960996,55.5158012 L8.41039121,2.41843867 C8.53071154,1.72058075 8.86159246,1.14304315 9.40303395,0.685825893 C9.94447545,0.228608631 10.5641252,0 11.2619831,0 L32.8474507,0 C33.6656289,0 34.8387522,0.156416432 36.3668204,0.469249295 C37.8948886,0.782082159 39.2364603,1.16710722 40.3915355,1.62432448 C42.9663906,2.61095121 44.933628,4.09089129 46.2932478,6.06414474 C47.6528675,8.03739818 48.3326774,10.3956767 48.3326774,13.1389803 Z" id="Shape"></path>
            </g>
        </g>
    </g>
</svg>