<?xml version="1.0" encoding="UTF-8"?>
<svg width="134px" height="34px" viewBox="0 0 134 34" version="1.1" xmlns="http://www.w3.org/2000/svg" xmlns:xlink="http://www.w3.org/1999/xlink">
    <!-- Generator: Sketch 44.1 (41455) - http://www.bohemiancoding.com/sketch -->
    <title>Paypal-Phone</title>
    <desc>Created with Sketch.</desc>
    <defs></defs>
    <g id="Page-1" stroke="none" stroke-width="1" fill="none" fill-rule="evenodd">
        <g id="Artboard-Copy-4" transform="translate(-661.000000, -746.000000)">
            <g id="Paypal-Phone" transform="translate(661.000000, 746.000000)">
                <rect id="Rectangle" fill="#4A4A4A" x="0" y="0" width="133.112705" height="34" rx="8"></rect>
                <text id="点此捐款" font-family="PingFangTC-Medium, PingFang TC" font-size="12" font-weight="400" letter-spacing="1.13999999" fill="#FFFFFF">
                    <tspan x="73.22" y="21">点此捐款</tspan>
                </text>
                <g id="paypal" transform="translate(9.000000, 8.000000)" fill-rule="nonzero" fill="#FFFFFF">
                    <path d="M16.1848404,7.08869643 C16.3133765,7.70319643 16.2990947,8.449375 16.141995,9.32723214 C15.520737,12.5753036 13.503434,14.1993393 10.0900858,14.1993393 L9.61878666,14.1993393 C9.44026426,14.1993393 9.28316455,14.259692 9.14748753,14.3803973 C9.01181051,14.5011027 8.92611976,14.6565565 8.89041528,14.8467589 L8.84756991,15.05525 L8.258446,18.8519821 L8.23702332,19.0165804 C8.20131884,19.2067827 8.11384286,19.3622366 7.9745954,19.482942 C7.83534793,19.6036473 7.676463,19.664 7.4979406,19.664 L4.80939333,19.664 C4.65943452,19.664 4.54160973,19.6091339 4.45591899,19.4994018 C4.37022824,19.3896696 4.3380942,19.2579911 4.35951689,19.1043661 C4.42378495,18.6946994 4.51840182,18.0801994 4.6433675,17.2608661 C4.76833318,16.4415327 4.86295005,15.8270327 4.92721811,15.4173661 C4.99148617,15.0076994 5.08788826,14.3950283 5.21642439,13.5793527 C5.34496051,12.7636771 5.44136261,12.151006 5.50563067,11.7413393 C5.54133515,11.4706667 5.69486441,11.3353304 5.96621845,11.3353304 L7.36940448,11.3353304 C8.31914362,11.3499613 9.16176932,11.2731488 9.89728159,11.1048929 C11.1469384,10.8195893 12.1716569,10.292875 12.9714372,9.52475 C13.6998086,8.82977976 14.253228,7.92997619 14.6316955,6.82533929 C14.803077,6.31325595 14.9280427,5.82677679 15.0065925,5.36590179 C15.0137334,5.32200893 15.0226596,5.29457589 15.0333709,5.28360268 C15.0440822,5.27262946 15.0565788,5.26897173 15.0708606,5.27262946 C15.0851424,5.2762872 15.1065651,5.28908929 15.1351287,5.31103571 C15.6992594,5.74264881 16.0491633,6.33520238 16.1848404,7.08869643 Z M14.3424892,3.99425 C14.3424892,4.77700595 14.1782486,5.64023214 13.8497674,6.58392857 C13.2784958,8.28843452 12.2002205,9.44062202 10.6149416,10.0404911 C9.80802039,10.3331101 8.90826752,10.4867351 7.915683,10.5013661 C7.915683,10.5086815 7.59434269,10.5123393 6.95166207,10.5123393 L5.98764114,10.5013661 C5.27355156,10.5013661 4.8522387,10.8525089 4.72370258,11.5547946 C4.70942079,11.6133185 4.40593271,13.5519196 3.81323836,17.3705982 C3.80609747,17.443753 3.76325209,17.4803304 3.68470224,17.4803304 L0.524855842,17.4803304 C0.367756134,17.4803304 0.237434786,17.4199777 0.133891796,17.2992723 C0.0303488072,17.178567 -0.0107113437,17.037744 0.0107113437,16.8768036 L2.49574309,0.735205357 C2.53144756,0.523056548 2.62963488,0.347485119 2.79030504,0.208491071 C2.95097519,0.0694970238 3.13485326,0 3.34193924,0 L9.74732278,0 C9.99011324,0 10.3382319,0.0475505952 10.7916788,0.142651786 C11.2451257,0.237752976 11.6432306,0.354800595 11.9859936,0.493794643 C12.7500695,0.793729167 13.3338377,1.24363095 13.7372983,1.8435 C14.1407589,2.44336905 14.3424892,3.16028571 14.3424892,3.99425 Z" id="Shape"></path>
                </g>
            </g>
        </g>
    </g>
</svg>