<?xml version="1.0" encoding="UTF-8"?>
<svg width="34px" height="34px" viewBox="0 0 34 34" version="1.1" xmlns="http://www.w3.org/2000/svg" xmlns:xlink="http://www.w3.org/1999/xlink">
    <!-- Generator: Sketch 49.3 (51167) - http://www.bohemiancoding.com/sketch -->
    <title>Play-Music-Icon-BW</title>
    <desc>Created with Sketch.</desc>
    <defs>
        <rect id="path-1" x="0" y="0" width="34" height="34" rx="8"></rect>
    </defs>
    <g id="Page-1" stroke="none" stroke-width="1" fill="none" fill-rule="evenodd">
        <g id="BUTTONS" transform="translate(-810.000000, -1139.000000)">
            <g id="BnW" transform="translate(810.000000, 784.000000)">
                <g id="Play-Music-Icon-BW" transform="translate(0.000000, 355.000000)">
                    <g id="Rectangle-2">
                        <use fill="#FFFFFF" fill-rule="evenodd" xlink:href="#path-1"></use>
                        <rect stroke="#4A4A4A" stroke-width="1" x="0.5" y="0.5" width="33" height="33" rx="8"></rect>
                    </g>
                    <g id="a" transform="translate(9.000000, 6.000000)" fill-rule="nonzero">
                        <path d="M15.7916667,8.96875 L1.89583333,1.07291667 C1.30208333,0.739583333 0.770833333,0.770833333 0.447916667,1.08333333 C0.21875,1.30208333 0.09375,1.65625 0.09375,2.11458333 L0.09375,17.875 C0.09375,18.3333333 0.229166667,18.6875 0.447916667,18.90625 C0.78125,19.2291667 1.30208333,19.2604167 1.89583333,18.9166667 L15.7916667,11.0208333 C16.7916667,10.4583333 16.7916667,9.54166667 15.7916667,8.96875 Z" id="Shape" stroke="#000000"></path>
                        <path d="M14.4166667,11.8125 C14.5833333,11.2395833 14.6666667,10.625 14.6666667,10 C14.6666667,6.32291667 11.6770833,3.33333333 8,3.33333333 C4.32291667,3.33333333 1.33333333,6.32291667 1.33333333,10 C1.33333333,13.0833333 3.42708333,15.6770833 6.27083333,16.4375 L14.4166667,11.8125 Z" id="Shape" fill="#4A4A4A"></path>
                        <circle id="Oval" fill="#FFFFFF" cx="8" cy="10" r="4.16666667"></circle>
                        <path d="M8,7.8125 L8,10.375 C7.85416667,10.2916667 7.6875,10.2395833 7.51041667,10.2395833 C6.96875,10.2395833 6.54166667,10.6770833 6.54166667,11.2083333 C6.54166667,11.75 6.97916667,12.1770833 7.51041667,12.1770833 C8.05208333,12.1770833 8.52083333,11.7395833 8.52083333,11.2083333 L8.52083333,8.85416667 L9.45833333,8.85416667 L9.45833333,7.8125 L8,7.8125 Z" id="Shape" fill="#4A4A4A"></path>
                    </g>
                </g>
            </g>
        </g>
    </g>
</svg>