<?xml version="1.0" encoding="UTF-8"?>
<svg width="34px" height="34px" viewBox="0 0 34 34" version="1.1" xmlns="http://www.w3.org/2000/svg" xmlns:xlink="http://www.w3.org/1999/xlink">
    <!-- Generator: Sketch 44.1 (41455) - http://www.bohemiancoding.com/sketch -->
    <title>Play Music Icon</title>
    <desc>Created with Sketch.</desc>
    <defs>
        <linearGradient x1="50%" y1="3.26861925%" x2="50%" y2="100%" id="linearGradient-1">
            <stop stop-color="#FFD119" offset="0%"></stop>
            <stop stop-color="#FB9E1C" offset="38.0027113%"></stop>
            <stop stop-color="#FB9E1C" offset="38.0027113%"></stop>
            <stop stop-color="#FB991C" offset="41.1872076%"></stop>
            <stop stop-color="#F44A21" offset="100%"></stop>
        </linearGradient>
    </defs>
    <g id="Page-1" stroke="none" stroke-width="1" fill="none" fill-rule="evenodd">
        <g id="Artboard-Copy-4" transform="translate(-433.000000, -1140.000000)">
            <g id="Play-Music-Icon" transform="translate(433.000000, 1140.000000)">
                <rect id="Rectangle-2" fill="url(#linearGradient-1)" x="0" y="0" width="34" height="34" rx="8"></rect>
                <g id="a" transform="translate(9.000000, 6.000000)" fill-rule="nonzero">
                    <path d="M15.7916667,8.96875 L1.89583333,1.07291667 C1.30208333,0.739583333 0.770833333,0.770833333 0.447916667,1.08333333 L0.447916667,1.08333333 C0.21875,1.30208333 0.09375,1.65625 0.09375,2.11458333 L0.09375,17.875 C0.09375,18.3333333 0.229166667,18.6875 0.447916667,18.90625 L0.447916667,18.90625 C0.78125,19.2291667 1.30208333,19.2604167 1.89583333,18.9166667 L15.7916667,11.0208333 C16.7916667,10.4583333 16.7916667,9.54166667 15.7916667,8.96875 Z" id="Shape" stroke="#FFFFFF"></path>
                    <path d="M14.4166667,11.8125 C14.5833333,11.2395833 14.6666667,10.625 14.6666667,10 C14.6666667,6.32291667 11.6770833,3.33333333 8,3.33333333 C4.32291667,3.33333333 1.33333333,6.32291667 1.33333333,10 C1.33333333,13.0833333 3.42708333,15.6770833 6.27083333,16.4375 L14.4166667,11.8125 Z" id="Shape" fill="#FFFFFF"></path>
                    <circle id="Oval" fill="#FC8900" cx="8" cy="10" r="4.16666667"></circle>
                    <path d="M8,7.8125 L8,10.375 C7.85416667,10.2916667 7.6875,10.2395833 7.51041667,10.2395833 C6.96875,10.2395833 6.54166667,10.6770833 6.54166667,11.2083333 C6.54166667,11.75 6.97916667,12.1770833 7.51041667,12.1770833 C8.05208333,12.1770833 8.52083333,11.7395833 8.52083333,11.2083333 L8.52083333,8.85416667 L9.45833333,8.85416667 L9.45833333,7.8125 L8,7.8125 Z" id="Shape" fill="#FAFAFA"></path>
                </g>
            </g>
        </g>
    </g>
</svg>