<?xml version="1.0" encoding="UTF-8"?>
<svg width="34px" height="34px" viewBox="0 0 34 34" version="1.1" xmlns="http://www.w3.org/2000/svg" xmlns:xlink="http://www.w3.org/1999/xlink">
    <!-- Generator: Sketch 49.3 (51167) - http://www.bohemiancoding.com/sketch -->
    <title>Pocket-Casts-Icon-BW</title>
    <desc>Created with Sketch.</desc>
    <defs>
        <rect id="path-1" x="0" y="0" width="34" height="34" rx="8"></rect>
    </defs>
    <g id="Page-1" stroke="none" stroke-width="1" fill="none" fill-rule="evenodd">
        <g id="BUTTONS" transform="translate(-810.000000, -820.000000)">
            <g id="BnW" transform="translate(810.000000, 784.000000)">
                <g id="Pocket-Casts-Icon-BW" transform="translate(0.000000, 36.000000)">
                    <g id="Rectangle-2">
                        <use fill="#FFFFFF" fill-rule="evenodd" xlink:href="#path-1"></use>
                        <rect stroke="#4A4A4A" stroke-width="1" x="0.5" y="0.5" width="33" height="33" rx="8"></rect>
                    </g>
                    <g id="Group-9" transform="translate(7.000000, 7.000000)" fill="#4A4A4A" fill-rule="nonzero">
                        <g id="mask-6">
                            <path d="M9.597192,17.052443 C5.72688554,16.922952 2.62908923,13.7447058 2.6290117,9.84290768 C2.62893415,5.88288738 5.8828763,2.62894154 9.8428948,2.62901538 C13.744693,2.6291077 16.9229354,5.72689662 17.0524246,9.59720496 C17.057003,9.73442032 17.1706708,9.84278032 17.3079508,9.84278032 L19.4064923,9.84278032 C19.5507692,9.84278032 19.66608,9.72349664 19.6622954,9.57924736 C19.5226338,4.27600615 15.1797785,0.0198276923 9.84284496,0.0197907692 C4.40848062,0.0197723077 0.0197556923,4.40848615 0.0197815385,9.842856 C0.0198313846,15.1797822 4.27599877,19.5226412 9.57926032,19.6622862 C9.72348368,19.6660985 9.84276736,19.5507803 9.84276736,19.4065052 L9.84276736,17.3079674 C9.84276736,17.1706763 9.73440736,17.0570215 9.597192,17.052443 Z M9.84284496,4.16387077 C6.69718708,4.16381538 4.16380246,6.6971723 4.16385415,9.842856 C4.163904,12.8895674 6.56316923,15.3758843 9.57537232,15.5155034 C9.72102832,15.5222566 9.84276736,15.4055317 9.84276736,15.2597465 L9.84276736,13.5944178 C9.84276736,13.4635218 9.73596736,13.3481538 9.60535384,13.3394308 C7.78060615,13.2173594 6.33828923,11.6985822 6.3382117,9.84293352 C6.338136,7.90483754 7.90482462,6.33814708 9.84292064,6.33822462 C11.6985692,6.33830215 13.2173465,7.78061723 13.3394178,9.60536496 C13.348141,9.73595448 13.4635108,9.84278032 13.5944068,9.84278032 L15.2597354,9.84278032 C15.4055262,9.84278032 15.52224,9.7210412 15.515483,9.5753852 C15.375877,6.5631803 12.8895563,4.1639077 9.84284496,4.16387077 Z" id="path-5"></path>
                        </g>
                    </g>
                </g>
            </g>
        </g>
    </g>
</svg>