<?xml version="1.0" encoding="UTF-8"?>
<svg width="133px" height="35px" viewBox="0 0 133 35" version="1.1" xmlns="http://www.w3.org/2000/svg" xmlns:xlink="http://www.w3.org/1999/xlink">
    <!-- Generator: Sketch 44.1 (41455) - http://www.bohemiancoding.com/sketch -->
    <title>podcast-lrg</title>
    <desc>Created with Sketch.</desc>
    <defs>
        <linearGradient x1="50%" y1="100%" x2="50%" y2="0%" id="linearGradient-1">
            <stop stop-color="#892DC4" offset="0%"></stop>
            <stop stop-color="#F452FF" offset="100%"></stop>
        </linearGradient>
        <linearGradient x1="50%" y1="0%" x2="50%" y2="100.000447%" id="linearGradient-2">
            <stop stop-color="#F452FF" offset="0%"></stop>
            <stop stop-color="#832BC1" offset="100%"></stop>
        </linearGradient>
    </defs>
    <g id="Page-1" stroke="none" stroke-width="1" fill="none" fill-rule="evenodd">
        <g id="Artboard-Copy-4" transform="translate(-473.000000, -745.000000)">
            <g id="podcast-lrg" transform="translate(473.000000, 745.000000)">
                <g id="XMLID_24_">
                    <path d="M132.781,9.079 C132.781,8.749 132.781,8.419 132.777,8.089 C132.753,7.369 132.71,6.648 132.579,5.937 C132.456,5.216 132.241,4.544 131.912,3.89 C131.58,3.246 131.153,2.656 130.641,2.147 C130.134,1.638 129.544,1.21 128.903,0.881 C128.243,0.548 127.573,0.332 126.851,0.206 C126.145,0.078 125.422,0.035 124.702,0.017 C124.373,0.012 124.038,0.006 123.71,0.003 C123.324,0 122.932,0 122.546,0 L10.25,0 C9.857,0 9.467,0 9.074,0.002 C8.745,0.005 8.418,0.011 8.086,0.016 C7.37,0.035 6.646,0.078 5.932,0.206 C5.212,0.333 4.543,0.548 3.888,0.881 C3.244,1.21 2.656,1.639 2.148,2.148 C1.633,2.656 1.207,3.246 0.881,3.89 C0.547,4.544 0.334,5.216 0.209,5.937 C0.079,6.648 0.035,7.369 0.016,8.089 C0.006,8.419 0.005,8.749 0,9.079 C0,9.469 0,9.859 0,10.252 L0,23.761 C0,24.158 0,24.547 0,24.938 C0.005,25.271 0.006,25.596 0.016,25.928 C0.034,26.649 0.079,27.37 0.209,28.081 C0.334,28.802 0.547,29.476 0.881,30.128 C1.207,30.769 1.633,31.359 2.147,31.864 C2.656,32.377 3.243,32.805 3.888,33.13 C4.543,33.467 5.212,33.679 5.932,33.809 C6.646,33.938 7.37,33.98 8.086,34 C8.418,34.007 8.745,34.011 9.074,34.011 C9.467,34.013 9.857,34.013 10.251,34.013 L122.546,34.013 C122.932,34.013 123.324,34.013 123.711,34.011 C124.039,34.011 124.373,34.007 124.703,34 C125.423,33.98 126.146,33.938 126.852,33.809 C127.574,33.679 128.244,33.467 128.904,33.13 C129.546,32.804 130.136,32.377 130.642,31.864 C131.154,31.359 131.581,30.769 131.913,30.128 C132.242,29.476 132.456,28.802 132.58,28.081 C132.711,27.37 132.754,26.649 132.778,25.928 C132.782,25.596 132.782,25.271 132.782,24.938 C132.792,24.547 132.792,24.159 132.792,23.761 L132.792,10.253 C132.791,9.86 132.791,9.469 132.781,9.079 Z" id="XMLID_43_" fill="#777878" fill-rule="nonzero"></path>
                    <path d="M132.125,23.761 C132.125,24.153 132.125,24.536 132.116,24.938 C132.116,25.266 132.116,25.591 132.111,25.908 C132.093,26.529 132.054,27.258 131.924,27.968 C131.809,28.638 131.611,29.247 131.321,29.823 C131.017,30.408 130.633,30.938 130.169,31.399 C129.711,31.858 129.184,32.243 128.599,32.542 C128.03,32.832 127.418,33.033 126.734,33.157 C126.024,33.282 125.299,33.318 124.689,33.337 C124.361,33.343 124.033,33.348 123.706,33.348 C123.32,33.35 122.929,33.35 122.545,33.35 L10.25,33.35 C9.858,33.35 9.469,33.35 9.073,33.348 C8.748,33.348 8.426,33.344 8.105,33.337 C7.488,33.319 6.762,33.283 6.047,33.157 C5.365,33.034 4.757,32.832 4.189,32.542 C3.609,32.248 3.082,31.861 2.614,31.393 C2.155,30.938 1.772,30.411 1.472,29.826 C1.182,29.255 0.983,28.648 0.861,27.961 C0.727,27.225 0.694,26.48 0.68,25.908 C0.672,25.681 0.669,25.452 0.667,25.223 L0.663,24.938 L0.663,23.761 L0.663,10.253 L0.663,9.088 L0.669,8.79 C0.671,8.564 0.674,8.336 0.682,8.105 C0.696,7.538 0.729,6.793 0.864,6.052 C0.984,5.367 1.183,4.76 1.475,4.19 C1.773,3.603 2.156,3.076 2.619,2.618 C3.083,2.154 3.611,1.77 4.191,1.473 C4.766,1.181 5.375,0.978 6.047,0.859 C6.777,0.73 7.529,0.697 8.097,0.679 L9.074,0.665 C9.468,0.662 9.858,0.662 10.249,0.662 L122.544,0.662 C122.928,0.662 123.319,0.662 123.703,0.665 L123.757,0.667 L124.681,0.679 C125.256,0.696 126.008,0.73 126.732,0.859 C127.408,0.978 128.017,1.18 128.597,1.473 C129.181,1.771 129.709,2.155 130.168,2.618 C130.63,3.079 131.014,3.607 131.315,4.189 C131.608,4.768 131.807,5.378 131.921,6.058 C132.051,6.759 132.09,7.49 132.108,8.103 C132.113,8.428 132.113,8.754 132.113,9.092 C132.122,9.479 132.122,9.863 132.122,10.252 L132.122,23.761 L132.125,23.761 Z" id="XMLID_42_" fill="url(#linearGradient-1)" fill-rule="nonzero"></path>
                    <g id="XMLID_30_" transform="translate(6.000000, 5.000000)">
                        <g id="XMLID_25_">
                            <path d="M22.244,20.22 C22.026,20.773 21.524,21.551 20.812,22.1 C20.401,22.417 19.91,22.719 19.235,22.919 C18.516,23.132 17.631,23.204 16.529,23.204 L6.452,23.204 C5.35,23.204 4.465,23.132 3.746,22.919 C3.072,22.719 2.581,22.416 2.169,22.1 C1.457,21.552 0.954,20.773 0.737,20.22 C0.299,19.106 0.294,17.842 0.294,17.046 L0.294,17.046 L0.294,6.969 L0.294,6.969 C0.294,6.173 0.298,4.909 0.737,3.795 C0.955,3.242 1.457,2.464 2.169,1.915 C2.58,1.599 3.071,1.296 3.746,1.096 C4.465,0.883 5.35,0.811 6.452,0.811 L6.452,0.811 L16.529,0.811 L16.529,0.811 C17.631,0.811 18.516,0.883 19.235,1.096 C19.909,1.296 20.4,1.599 20.812,1.915 C21.524,2.463 22.027,3.242 22.244,3.795 C22.682,4.909 22.687,6.173 22.687,6.969 L22.687,17.046 C22.687,17.842 22.683,19.106 22.244,20.22 Z" id="XMLID_40_" fill="url(#linearGradient-2)"></path>
                            <path d="M22.244,20.22 C22.026,20.773 21.524,21.551 20.812,22.1 C20.401,22.417 19.91,22.719 19.235,22.919 C18.516,23.132 17.631,23.204 16.529,23.204 L6.452,23.204 C5.35,23.204 4.465,23.132 3.746,22.919 C3.072,22.719 2.581,22.416 2.169,22.1 C1.457,21.552 0.954,20.773 0.737,20.22 C0.299,19.106 0.294,17.842 0.294,17.046 L0.294,17.046 L0.294,6.969 L0.294,6.969 C0.294,6.173 0.298,4.909 0.737,3.795 C0.955,3.242 1.457,2.464 2.169,1.915 C2.58,1.599 3.071,1.296 3.746,1.096 C4.465,0.883 5.35,0.811 6.452,0.811 L6.452,0.811 L16.529,0.811 L16.529,0.811 C17.631,0.811 18.516,0.883 19.235,1.096 C19.909,1.296 20.4,1.599 20.812,1.915 C21.524,2.463 22.027,3.242 22.244,3.795 C22.682,4.909 22.687,6.173 22.687,6.969 L22.687,17.046 C22.687,17.842 22.683,19.106 22.244,20.22 Z" id="XMLID_38_"></path>
                            <g id="XMLID_26_" transform="translate(3.000000, 3.000000)" fill-rule="nonzero" fill="#FFFFFF">
                                <path d="M10.114,10.682 C9.778,10.328 9.188,10.1 8.491,10.1 C7.794,10.1 7.204,10.327 6.868,10.682 C6.693,10.867 6.6,11.057 6.571,11.327 C6.514,11.85 6.546,12.301 6.607,13.021 C6.665,13.707 6.776,14.622 6.921,15.555 C7.024,16.218 7.108,16.576 7.184,16.833 C7.307,17.248 7.769,17.612 8.491,17.612 C9.213,17.612 9.674,17.249 9.798,16.833 C9.874,16.577 9.958,16.219 10.061,15.555 C10.206,14.623 10.317,13.708 10.375,13.021 C10.436,12.301 10.468,11.85 10.411,11.327 C10.383,11.057 10.29,10.867 10.114,10.682 Z M6.661,7.525 C6.661,8.537 7.481,9.358 8.494,9.358 C9.507,9.358 10.327,8.538 10.327,7.525 C10.327,6.513 9.506,5.692 8.494,5.692 C7.482,5.692 6.661,6.513 6.661,7.525 Z M8.471,0.293 C4.185,0.305 0.673,3.782 0.62,8.068 C0.577,11.54 2.793,14.51 5.888,15.598 C5.963,15.624 6.039,15.562 6.028,15.483 C5.987,15.214 5.949,14.943 5.914,14.676 C5.902,14.582 5.842,14.501 5.755,14.463 C3.309,13.394 1.601,10.941 1.628,8.1 C1.664,4.371 4.709,1.331 8.438,1.3 C12.25,1.269 15.362,4.362 15.362,8.167 C15.362,10.98 13.661,13.403 11.234,14.463 C11.147,14.501 11.087,14.582 11.075,14.676 C11.04,14.942 11.002,15.213 10.961,15.482 C10.949,15.561 11.025,15.623 11.1,15.597 C14.165,14.519 16.369,11.595 16.369,8.166 C16.368,3.818 12.823,0.28 8.471,0.293 Z M8.328,3.906 C10.758,3.812 12.764,5.761 12.764,8.17 C12.764,9.395 12.245,10.501 11.415,11.281 C11.345,11.347 11.307,11.441 11.312,11.537 C11.328,11.83 11.322,12.115 11.303,12.436 C11.298,12.522 11.394,12.576 11.465,12.528 C12.856,11.577 13.771,9.979 13.771,8.17 C13.771,5.192 11.29,2.782 8.287,2.899 C5.496,3.007 3.256,5.308 3.221,8.102 C3.198,9.939 4.118,11.566 5.527,12.529 C5.598,12.577 5.694,12.522 5.688,12.437 C5.668,12.115 5.662,11.83 5.679,11.537 C5.684,11.441 5.647,11.347 5.576,11.281 C4.72,10.478 4.195,9.327 4.229,8.056 C4.29,5.819 6.093,3.992 8.328,3.906 Z" id="Shape"></path>
                            </g>
                        </g>
                    </g>
                </g>
                <path d="M132.125,23.761 C132.125,24.153 132.125,24.536 132.116,24.938 C132.116,25.266 132.116,25.591 132.111,25.908 C132.093,26.529 132.054,27.258 131.924,27.968 C131.809,28.638 131.611,29.247 131.321,29.823 C131.017,30.408 130.633,30.938 130.169,31.399 C129.711,31.858 129.184,32.243 128.599,32.542 C128.03,32.832 127.418,33.033 126.734,33.157 C126.024,33.282 125.299,33.318 124.689,33.337 C124.361,33.343 124.033,33.348 123.706,33.348 C123.32,33.35 122.929,33.35 122.545,33.35 L10.25,33.35 C9.858,33.35 9.469,33.35 9.073,33.348 C8.748,33.348 8.426,33.344 8.105,33.337 C7.488,33.319 6.762,33.283 6.047,33.157 C5.365,33.034 4.757,32.832 4.189,32.542 C3.609,32.248 3.082,31.861 2.614,31.393 C2.155,30.938 1.772,30.411 1.472,29.826 C1.182,29.255 0.983,28.648 0.861,27.961 C0.727,27.225 0.694,26.48 0.68,25.908 C0.672,25.681 0.669,25.452 0.667,25.223 L0.663,24.938 L0.663,23.761 L0.663,10.253 L0.663,9.088 L0.669,8.79 C0.671,8.564 0.674,8.336 0.682,8.105 C0.696,7.538 0.729,6.793 0.864,6.052 C0.984,5.367 1.183,4.76 1.475,4.19 C1.773,3.603 2.156,3.076 2.619,2.618 C3.083,2.154 3.611,1.77 4.191,1.473 C4.766,1.181 5.375,0.978 6.047,0.859 C6.777,0.73 7.529,0.697 8.097,0.679 L9.074,0.665 C9.468,0.662 9.858,0.662 10.249,0.662 L122.544,0.662 C122.928,0.662 123.319,0.662 123.703,0.665 L123.757,0.667 L124.681,0.679 C125.256,0.696 126.008,0.73 126.732,0.859 C127.408,0.978 128.017,1.18 128.597,1.473 C129.181,1.771 129.709,2.155 130.168,2.618 C130.63,3.079 131.014,3.607 131.315,4.189 C131.608,4.768 131.807,5.378 131.921,6.058 C132.051,6.759 132.09,7.49 132.108,8.103 C132.113,8.428 132.113,8.754 132.113,9.092 C132.122,9.479 132.122,9.863 132.122,10.252 L132.122,23.761 L132.125,23.761 Z" id="XMLID_22_" fill="#FFFFFF" fill-rule="nonzero"></path>
                <g id="XMLID_154_" transform="translate(32.000000, 6.000000)" fill-rule="nonzero">
                    <g id="XMLID_214_" transform="translate(1.000000, 0.000000)" fill="#777878">
                        <path d="M3.642,0.423 L3.642,1.021 L3.075,1.021 L3.075,6.145 C3.173,6.103 3.269,6.07 3.364,6.045 C3.458,6.021 3.562,5.984 3.674,5.935 L3.674,6.607 C3.562,6.628 3.457,6.654 3.359,6.686 C3.261,6.717 3.166,6.744 3.075,6.765 L3.075,8.634 L2.414,8.634 L2.414,6.962 C2.05,7.053 1.682,7.142 1.311,7.23 C0.94,7.317 0.565,7.4 0.187,7.477 L0.019,6.835 C0.131,6.814 0.234,6.795 0.329,6.777 C0.424,6.759 0.516,6.744 0.607,6.73 L0.607,1.021 L0.082,1.021 L0.082,0.423 L3.642,0.423 Z M1.248,2.428 L2.414,2.428 L2.414,1.021 L1.248,1.021 L1.248,2.428 Z M1.248,3.048 L1.248,4.381 L2.414,4.381 L2.414,3.048 L1.248,3.048 Z M1.248,4.98 L1.248,6.618 C1.444,6.576 1.64,6.531 1.836,6.481 C2.032,6.432 2.224,6.38 2.414,6.324 L2.414,4.98 L1.248,4.98 Z M6.194,0.108 C6.691,1.267 7.517,2.273 8.672,3.127 L8.304,3.673 C7.219,2.868 6.418,1.892 5.9,0.744 C5.277,2.025 4.504,3.012 3.58,3.705 L3.212,3.148 C3.73,2.756 4.185,2.305 4.577,1.794 C4.969,1.283 5.308,0.721 5.596,0.109 L6.194,0.109 L6.194,0.108 Z M7.968,4.129 L7.968,4.696 C7.485,5.571 6.922,6.362 6.278,7.069 C6.523,7.251 6.752,7.435 6.966,7.62 C7.179,7.806 7.384,7.993 7.58,8.182 L7.086,8.665 C6.351,7.923 5.336,7.104 4.041,6.208 L4.503,5.778 C4.727,5.932 4.944,6.081 5.154,6.224 C5.364,6.367 5.567,6.516 5.763,6.67 C6.26,6.138 6.746,5.498 7.222,4.749 L3.957,4.749 L3.957,4.129 L7.968,4.129 Z M5.49,2.313 C5.931,2.628 6.337,2.996 6.708,3.416 L6.309,3.868 C6.113,3.644 5.913,3.436 5.71,3.243 C5.507,3.051 5.293,2.874 5.069,2.713 L5.49,2.313 Z" id="XMLID_219_"></path>
                        <path d="M12.85,6.492 L10.992,6.492 L10.992,7.196 L10.32,7.196 L10.32,0.853 L12.85,0.853 L12.85,6.492 Z M12.21,5.851 L12.21,1.494 L10.992,1.494 L10.992,5.851 L12.21,5.851 L12.21,5.851 Z M18.111,0.748 C17.579,0.93 17.024,1.079 16.446,1.194 C15.869,1.31 15.258,1.378 14.614,1.399 L14.614,3.079 L18.321,3.079 L18.321,3.709 L16.893,3.709 L16.893,8.592 L16.232,8.592 L16.232,3.709 L14.615,3.709 L14.615,4.077 C14.538,5.932 13.999,7.412 12.998,8.518 L12.526,8.003 C13.394,7.071 13.87,5.76 13.954,4.071 L13.954,0.832 C14.661,0.811 15.333,0.744 15.97,0.63 C16.607,0.516 17.205,0.356 17.765,0.149 L18.111,0.748 Z" id="XMLID_215_"></path>
                    </g>
                    <g id="XMLID_177_" transform="translate(0.000000, 11.000000)" fill="#000000">
                        <path d="M6.602,7.404 L2.951,7.404 L2.075,9.993 L0.528,9.993 L3.986,0.415 L5.592,0.415 L9.05,9.993 L7.477,9.993 L6.602,7.404 Z M3.33,6.21 L6.224,6.21 L4.797,2.008 L4.757,2.008 L3.33,6.21 Z" id="XMLID_211_"></path>
                        <path d="M16.693,6.502 C16.693,8.672 15.531,10.066 13.779,10.066 C12.783,10.066 11.994,9.621 11.582,8.844 L11.549,8.844 L11.549,12.302 L10.115,12.302 L10.115,3.01 L11.502,3.01 L11.502,4.172 L11.528,4.172 C11.926,3.422 12.776,2.938 13.752,2.938 C15.524,2.937 16.693,4.338 16.693,6.502 Z M15.219,6.502 C15.219,5.088 14.489,4.159 13.374,4.159 C12.279,4.159 11.542,5.108 11.542,6.502 C11.542,7.909 12.279,8.852 13.374,8.852 C14.489,8.851 15.219,7.928 15.219,6.502 Z" id="XMLID_208_"></path>
                        <path d="M24.432,6.502 C24.432,8.672 23.27,10.066 21.518,10.066 C20.522,10.066 19.733,9.621 19.321,8.844 L19.288,8.844 L19.288,12.302 L17.854,12.302 L17.854,3.01 L19.241,3.01 L19.241,4.172 L19.267,4.172 C19.665,3.422 20.515,2.938 21.491,2.938 C23.264,2.937 24.432,4.338 24.432,6.502 Z M22.958,6.502 C22.958,5.088 22.228,4.159 21.113,4.159 C20.018,4.159 19.281,5.108 19.281,6.502 C19.281,7.909 20.018,8.852 21.113,8.852 C22.228,8.851 22.958,7.928 22.958,6.502 Z" id="XMLID_205_"></path>
                        <polygon id="XMLID_203_" points="25.646 0.415 27.08 0.415 27.08 9.993 25.646 9.993"></polygon>
                        <path d="M34.836,7.942 C34.644,9.21 33.409,10.079 31.829,10.079 C29.798,10.079 28.537,8.718 28.537,6.535 C28.537,4.345 29.805,2.924 31.769,2.924 C33.701,2.924 34.915,4.251 34.915,6.369 L34.915,6.86 L29.983,6.86 L29.983,6.946 C29.983,8.141 30.733,8.924 31.861,8.924 C32.657,8.924 33.281,8.546 33.474,7.942 L34.836,7.942 Z M29.991,5.858 L33.482,5.858 C33.449,4.789 32.765,4.086 31.77,4.086 C30.781,4.086 30.064,4.803 29.991,5.858 Z" id="XMLID_200_"></path>
                        <path d="M43.088,0.415 C44.946,0.415 46.241,1.696 46.241,3.561 C46.241,5.433 44.92,6.72 43.042,6.72 L40.984,6.72 L40.984,9.992 L39.497,9.992 L39.497,0.414 L43.088,0.414 L43.088,0.415 Z M40.985,5.473 L42.691,5.473 C43.985,5.473 44.721,4.776 44.721,3.568 C44.721,2.36 43.985,1.67 42.697,1.67 L40.985,1.67 L40.985,5.473 Z" id="XMLID_196_"></path>
                        <path d="M46.913,6.502 C46.913,4.305 48.207,2.924 50.225,2.924 C52.249,2.924 53.537,4.304 53.537,6.502 C53.537,8.706 52.257,10.08 50.225,10.08 C48.193,10.08 46.913,8.705 46.913,6.502 Z M52.077,6.502 C52.077,4.995 51.387,4.106 50.225,4.106 C49.063,4.106 48.372,5.002 48.372,6.502 C48.372,8.015 49.062,8.898 50.225,8.898 C51.387,8.898 52.077,8.015 52.077,6.502 Z" id="XMLID_193_"></path>
                        <path d="M54.531,6.502 C54.531,4.345 55.719,2.938 57.451,2.938 C58.454,2.938 59.243,3.402 59.641,4.172 L59.667,4.172 L59.667,0.415 L61.107,0.415 L61.107,9.993 L59.713,9.993 L59.713,8.805 L59.687,8.805 C59.275,9.601 58.479,10.066 57.463,10.066 C55.718,10.066 54.531,8.659 54.531,6.502 Z M55.997,6.502 C55.997,7.936 56.726,8.852 57.842,8.852 C58.944,8.852 59.681,7.923 59.681,6.502 C59.681,5.095 58.944,4.159 57.842,4.159 C56.727,4.158 55.997,5.081 55.997,6.502 Z" id="XMLID_190_"></path>
                        <path d="M67.328,5.413 C67.202,4.676 66.625,4.125 65.682,4.125 C64.58,4.125 63.85,5.048 63.85,6.501 C63.85,7.988 64.586,8.884 65.695,8.884 C66.585,8.884 67.169,8.439 67.328,7.63 L68.709,7.63 C68.55,9.097 67.375,10.079 65.683,10.079 C63.692,10.079 62.391,8.718 62.391,6.501 C62.391,4.331 63.692,2.923 65.669,2.923 C67.461,2.923 68.576,4.051 68.696,5.412 L67.328,5.412 L67.328,5.413 Z" id="XMLID_188_"></path>
                        <path d="M69.616,7.995 C69.616,6.774 70.553,6.057 72.291,5.951 L74.15,5.845 L74.15,5.314 C74.15,4.524 73.626,4.1 72.715,4.1 C71.965,4.1 71.414,4.485 71.302,5.082 L69.961,5.082 C70.001,3.834 71.169,2.925 72.755,2.925 C74.468,2.925 75.576,3.821 75.576,5.208 L75.576,9.994 L74.202,9.994 L74.202,8.846 L74.169,8.846 C73.777,9.596 72.908,10.094 71.965,10.094 C70.578,10.093 69.616,9.236 69.616,7.995 Z M74.15,7.378 L74.15,6.84 L72.477,6.946 C71.547,6.999 71.056,7.358 71.056,7.962 C71.056,8.546 71.568,8.958 72.364,8.958 C73.379,8.957 74.15,8.281 74.15,7.378 Z" id="XMLID_185_"></path>
                        <path d="M79.768,2.93 C81.315,2.93 82.423,3.786 82.456,5.021 L81.108,5.021 C81.048,4.404 80.524,4.025 79.727,4.025 C78.951,4.025 78.433,4.383 78.433,4.928 C78.433,5.346 78.778,5.625 79.501,5.804 L80.676,6.076 C82.083,6.414 82.614,6.932 82.614,7.954 C82.614,9.215 81.42,10.078 79.714,10.078 C78.068,10.078 76.959,9.235 76.853,7.96 L78.274,7.96 C78.374,8.63 78.911,8.989 79.781,8.989 C80.637,8.989 81.175,8.637 81.175,8.08 C81.175,7.648 80.909,7.416 80.18,7.23 L78.932,6.925 C77.67,6.619 77.034,5.976 77.034,5.007 C77.034,3.774 78.142,2.93 79.768,2.93 Z" id="XMLID_183_"></path>
                        <path d="M85.785,1.358 L85.785,3.01 L87.113,3.01 L87.113,4.145 L85.785,4.145 L85.785,7.995 C85.785,8.593 86.051,8.871 86.635,8.871 C86.781,8.871 87.014,8.851 87.107,8.838 L87.107,9.966 C86.948,10.006 86.628,10.032 86.31,10.032 C84.896,10.032 84.345,9.501 84.345,8.147 L84.345,4.145 L83.329,4.145 L83.329,3.01 L84.345,3.01 L84.345,1.358 L85.785,1.358 Z" id="XMLID_181_"></path>
                        <path d="M90.959,2.93 C92.506,2.93 93.614,3.786 93.647,5.021 L92.3,5.021 C92.24,4.404 91.716,4.025 90.919,4.025 C90.143,4.025 89.625,4.383 89.625,4.928 C89.625,5.346 89.97,5.625 90.693,5.804 L91.868,6.076 C93.275,6.414 93.806,6.932 93.806,7.954 C93.806,9.215 92.612,10.078 90.906,10.078 C89.26,10.078 88.151,9.235 88.045,7.96 L89.466,7.96 C89.566,8.63 90.103,8.989 90.973,8.989 C91.829,8.989 92.367,8.637 92.367,8.08 C92.367,7.648 92.101,7.416 91.372,7.23 L90.124,6.925 C88.862,6.619 88.226,5.976 88.226,5.007 C88.225,3.774 89.333,2.93 90.959,2.93 Z" id="XMLID_178_"></path>
                    </g>
                </g>
                <g id="XMLID_5_" transform="translate(6.000000, 5.000000)">
                    <g id="XMLID_6_">
                        <path d="M22.244,20.22 C22.026,20.773 21.524,21.551 20.812,22.1 C20.401,22.417 19.91,22.719 19.235,22.919 C18.516,23.132 17.631,23.204 16.529,23.204 L6.452,23.204 C5.35,23.204 4.465,23.132 3.746,22.919 C3.072,22.719 2.581,22.416 2.169,22.1 C1.457,21.552 0.954,20.773 0.737,20.22 C0.299,19.106 0.294,17.842 0.294,17.046 L0.294,17.046 L0.294,6.969 L0.294,6.969 C0.294,6.173 0.298,4.909 0.737,3.795 C0.955,3.242 1.457,2.464 2.169,1.915 C2.58,1.599 3.071,1.296 3.746,1.096 C4.465,0.883 5.35,0.811 6.452,0.811 L6.452,0.811 L16.529,0.811 L16.529,0.811 C17.631,0.811 18.516,0.883 19.235,1.096 C19.909,1.296 20.4,1.599 20.812,1.915 C21.524,2.463 22.027,3.242 22.244,3.795 C22.682,4.909 22.687,6.173 22.687,6.969 L22.687,17.046 C22.687,17.842 22.683,19.106 22.244,20.22 Z" id="XMLID_20_" fill="url(#linearGradient-2)"></path>
                        <path d="M22.244,20.22 C22.026,20.773 21.524,21.551 20.812,22.1 C20.401,22.417 19.91,22.719 19.235,22.919 C18.516,23.132 17.631,23.204 16.529,23.204 L6.452,23.204 C5.35,23.204 4.465,23.132 3.746,22.919 C3.072,22.719 2.581,22.416 2.169,22.1 C1.457,21.552 0.954,20.773 0.737,20.22 C0.299,19.106 0.294,17.842 0.294,17.046 L0.294,17.046 L0.294,6.969 L0.294,6.969 C0.294,6.173 0.298,4.909 0.737,3.795 C0.955,3.242 1.457,2.464 2.169,1.915 C2.58,1.599 3.071,1.296 3.746,1.096 C4.465,0.883 5.35,0.811 6.452,0.811 L6.452,0.811 L16.529,0.811 L16.529,0.811 C17.631,0.811 18.516,0.883 19.235,1.096 C19.909,1.296 20.4,1.599 20.812,1.915 C21.524,2.463 22.027,3.242 22.244,3.795 C22.682,4.909 22.687,6.173 22.687,6.969 L22.687,17.046 C22.687,17.842 22.683,19.106 22.244,20.22 Z" id="XMLID_18_"></path>
                        <g id="XMLID_7_" transform="translate(3.000000, 3.000000)" fill-rule="nonzero" fill="#FFFFFF">
                            <path d="M10.114,10.682 C9.778,10.328 9.188,10.1 8.491,10.1 C7.794,10.1 7.204,10.327 6.868,10.682 C6.693,10.867 6.6,11.057 6.571,11.327 C6.514,11.85 6.546,12.301 6.607,13.021 C6.665,13.707 6.776,14.622 6.921,15.555 C7.024,16.218 7.108,16.576 7.184,16.833 C7.307,17.248 7.769,17.612 8.491,17.612 C9.213,17.612 9.674,17.249 9.798,16.833 C9.874,16.577 9.958,16.219 10.061,15.555 C10.206,14.623 10.317,13.708 10.375,13.021 C10.436,12.301 10.468,11.85 10.412,11.327 C10.383,11.057 10.29,10.867 10.114,10.682 Z M6.661,7.525 C6.661,8.537 7.481,9.358 8.494,9.358 C9.507,9.358 10.327,8.538 10.327,7.525 C10.327,6.513 9.506,5.692 8.494,5.692 C7.482,5.692 6.661,6.513 6.661,7.525 Z M8.471,0.293 C4.185,0.305 0.673,3.782 0.62,8.068 C0.577,11.54 2.793,14.51 5.888,15.598 C5.963,15.624 6.039,15.562 6.028,15.483 C5.987,15.214 5.949,14.943 5.914,14.676 C5.902,14.582 5.842,14.501 5.755,14.463 C3.309,13.394 1.601,10.941 1.628,8.1 C1.664,4.371 4.709,1.331 8.438,1.3 C12.25,1.269 15.362,4.362 15.362,8.167 C15.362,10.98 13.661,13.403 11.234,14.463 C11.147,14.501 11.087,14.582 11.075,14.676 C11.04,14.942 11.002,15.213 10.961,15.482 C10.949,15.561 11.025,15.623 11.101,15.597 C14.166,14.519 16.369,11.595 16.369,8.166 C16.368,3.818 12.823,0.28 8.471,0.293 Z M8.328,3.906 C10.758,3.812 12.764,5.761 12.764,8.17 C12.764,9.395 12.245,10.501 11.415,11.281 C11.345,11.347 11.307,11.441 11.312,11.537 C11.328,11.83 11.322,12.115 11.303,12.436 C11.298,12.522 11.394,12.576 11.465,12.528 C12.856,11.577 13.771,9.979 13.771,8.17 C13.771,5.192 11.29,2.782 8.287,2.899 C5.496,3.007 3.256,5.308 3.221,8.102 C3.198,9.939 4.118,11.566 5.527,12.529 C5.598,12.577 5.694,12.522 5.688,12.437 C5.668,12.115 5.662,11.83 5.679,11.537 C5.684,11.441 5.647,11.347 5.576,11.281 C4.72,10.478 4.195,9.327 4.229,8.056 C4.29,5.819 6.093,3.992 8.328,3.906 Z" id="Shape"></path>
                        </g>
                    </g>
                </g>
            </g>
        </g>
    </g>
</svg>