<?xml version="1.0" encoding="UTF-8"?>
<svg width="34px" height="34px" viewBox="0 0 34 34" version="1.1" xmlns="http://www.w3.org/2000/svg" xmlns:xlink="http://www.w3.org/1999/xlink">
    <!-- Generator: Sketch 49.3 (51167) - http://www.bohemiancoding.com/sketch -->
    <title>SoundCloud-Icon-BW</title>
    <desc>Created with Sketch.</desc>
    <defs>
        <rect id="path-1" x="0" y="0" width="34" height="34" rx="8"></rect>
    </defs>
    <g id="Page-1" stroke="none" stroke-width="1" fill="none" fill-rule="evenodd">
        <g id="BUTTONS" transform="translate(-810.000000, -1454.000000)">
            <g id="BnW" transform="translate(810.000000, 784.000000)">
                <g id="SoundCloud-Icon-BW" transform="translate(0.000000, 670.000000)">
                    <g id="Rectangle-2">
                        <use fill="#FFFFFF" fill-rule="evenodd" xlink:href="#path-1"></use>
                        <rect stroke="#4A4A4A" stroke-width="1" x="0.5" y="0.5" width="33" height="33" rx="8"></rect>
                    </g>
                    <g id="soundcloud" transform="translate(7.000000, 13.000000)" fill="#4A4A4A" fill-rule="nonzero">
                        <path d="M6.80555556,8.784 L6.94444444,6.615 L6.80555556,1.908 C6.79976852,1.848 6.77806713,1.797 6.74045139,1.755 C6.70283565,1.713 6.65509259,1.692 6.59722222,1.692 C6.54513889,1.692 6.49884259,1.713 6.45833333,1.755 C6.41782407,1.797 6.39756944,1.848 6.39756944,1.908 L6.27604167,6.615 L6.39756944,8.784 C6.40335648,8.844 6.42505787,8.8935 6.46267361,8.9325 C6.50028935,8.9715 6.54513889,8.991 6.59722222,8.991 C6.72453704,8.991 6.79398148,8.922 6.80555556,8.784 Z M9.375,8.523 L9.47048611,6.624 L9.36631944,1.35 C9.36631944,1.254 9.3287037,1.182 9.25347222,1.134 C9.20717593,1.104 9.16087963,1.089 9.11458333,1.089 C9.06828704,1.089 9.02199074,1.104 8.97569444,1.134 C8.90046296,1.182 8.86284722,1.254 8.86284722,1.35 L8.85416667,1.404 L8.76736111,6.615 C8.76736111,6.621 8.79918981,7.329 8.86284722,8.739 L8.86284722,8.748 C8.86284722,8.808 8.88020833,8.859 8.91493056,8.901 C8.96701389,8.967 9.03356481,9 9.11458333,9 C9.17824074,9 9.23611111,8.973 9.28819444,8.919 C9.34027778,8.877 9.36631944,8.817 9.36631944,8.739 L9.375,8.523 Z M0.303819444,5.463 L0.477430556,6.615 L0.303819444,7.749 C0.29224537,7.803 0.266203704,7.83 0.225694444,7.83 C0.185185185,7.83 0.159143519,7.803 0.147569444,7.749 L0,6.615 L0.147569444,5.463 C0.159143519,5.409 0.185185185,5.382 0.225694444,5.382 C0.266203704,5.382 0.29224537,5.409 0.303819444,5.463 Z M1.05034722,4.752 L1.27604167,6.615 L1.05034722,8.442 C1.03877315,8.496 1.00983796,8.523 0.963541667,8.523 C0.911458333,8.523 0.885416667,8.493 0.885416667,8.433 L0.685763889,6.615 L0.885416667,4.752 C0.885416667,4.698 0.911458333,4.671 0.963541667,4.671 C1.00983796,4.671 1.03877315,4.698 1.05034722,4.752 Z M1.84895833,4.41 L2.06597222,6.615 L1.84895833,8.748 C1.84895833,8.814 1.81712963,8.847 1.75347222,8.847 C1.69560185,8.847 1.66087963,8.814 1.64930556,8.748 L1.46701389,6.615 L1.64930556,4.41 C1.66087963,4.338 1.69560185,4.302 1.75347222,4.302 C1.81712963,4.302 1.84895833,4.338 1.84895833,4.41 Z M2.66493056,4.347 L2.86458333,6.615 L2.66493056,8.811 C2.65335648,8.889 2.61284722,8.928 2.54340278,8.928 C2.4681713,8.928 2.43055556,8.889 2.43055556,8.811 L2.24826389,6.615 L2.43055556,4.347 C2.43055556,4.269 2.4681713,4.23 2.54340278,4.23 C2.61284722,4.23 2.65335648,4.269 2.66493056,4.347 Z M3.48090278,4.509 L3.66319444,6.615 L3.48090278,8.829 C3.4693287,8.925 3.42303241,8.973 3.34201389,8.973 C3.30729167,8.973 3.27690972,8.9595 3.25086806,8.9325 C3.22482639,8.9055 3.21180556,8.871 3.21180556,8.829 L3.03819444,6.615 L3.21180556,4.509 C3.21180556,4.473 3.22482639,4.4415 3.25086806,4.4145 C3.27690972,4.3875 3.30729167,4.374 3.34201389,4.374 C3.42303241,4.374 3.4693287,4.419 3.48090278,4.509 Z M4.296875,3.195 L4.47916667,6.615 L4.296875,8.829 C4.296875,8.871 4.28240741,8.9085 4.25347222,8.9415 C4.22453704,8.9745 4.18981481,8.991 4.14930556,8.991 C4.05671296,8.991 4.00462963,8.937 3.99305556,8.829 L3.83680556,6.615 L3.99305556,3.195 C4.00462963,3.087 4.05671296,3.033 4.14930556,3.033 C4.18981481,3.033 4.22453704,3.0495 4.25347222,3.0825 C4.28240741,3.1155 4.296875,3.153 4.296875,3.195 Z M5.11284722,2.421 L5.27777778,6.633 L5.11284722,8.829 C5.11284722,8.877 5.09693287,8.9175 5.06510417,8.9505 C5.03327546,8.9835 4.99421296,9 4.94791667,9 C4.84375,9 4.78587963,8.943 4.77430556,8.829 L4.63541667,6.633 L4.77430556,2.421 C4.78587963,2.307 4.84375,2.25 4.94791667,2.25 C4.99421296,2.25 5.03327546,2.2665 5.06510417,2.2995 C5.09693287,2.3325 5.11284722,2.373 5.11284722,2.421 Z M5.96354167,2.061 L6.11979167,6.615 L5.96354167,8.793 C5.95196759,8.919 5.88831019,8.982 5.77256944,8.982 C5.66261574,8.982 5.60185185,8.919 5.59027778,8.793 L5.45138889,6.615 L5.59027778,2.061 C5.59027778,2.007 5.60908565,1.9605 5.64670139,1.9215 C5.68431713,1.8825 5.72627315,1.863 5.77256944,1.863 C5.82465278,1.863 5.86805556,1.8825 5.90277778,1.9215 C5.9375,1.9605 5.95775463,2.007 5.96354167,2.061 Z M7.64756944,2.025 L7.77777778,6.615 L7.64756944,8.766 C7.64756944,8.826 7.62586806,8.8785 7.58246528,8.9235 C7.5390625,8.9685 7.48842593,8.991 7.43055556,8.991 C7.37268519,8.991 7.32349537,8.97 7.28298611,8.928 C7.24247685,8.886 7.2193287,8.832 7.21354167,8.766 L7.09201389,6.615 L7.21354167,2.025 C7.21354167,1.959 7.23524306,1.905 7.27864583,1.863 C7.32204861,1.821 7.37268519,1.8 7.43055556,1.8 C7.48842593,1.8 7.5390625,1.821 7.58246528,1.863 C7.62586806,1.905 7.64756944,1.959 7.64756944,2.025 Z M8.50694444,2.196 L8.62847222,6.624 L8.50694444,8.748 C8.50694444,8.814 8.4837963,8.871 8.4375,8.919 C8.3912037,8.967 8.33622685,8.991 8.27256944,8.991 C8.20891204,8.991 8.15393519,8.967 8.10763889,8.919 C8.06134259,8.871 8.03530093,8.814 8.02951389,8.748 L7.92534722,6.624 L8.02951389,2.196 C8.03530093,2.124 8.06134259,2.064 8.10763889,2.016 C8.15393519,1.968 8.20891204,1.944 8.27256944,1.944 C8.33622685,1.944 8.38975694,1.968 8.43315972,2.016 C8.4765625,2.064 8.50115741,2.124 8.50694444,2.196 Z M10.3472222,6.624 L10.2256944,8.703 C10.2256944,8.781 10.1996528,8.847 10.1475694,8.901 C10.0954861,8.955 10.0318287,8.982 9.95659722,8.982 C9.88136574,8.982 9.81770833,8.955 9.765625,8.901 C9.71354167,8.847 9.68460648,8.781 9.67881944,8.703 L9.62673611,7.677 L9.57465278,6.624 L9.67881944,0.9 L9.67881944,0.873 C9.69039352,0.783 9.72511574,0.711 9.78298611,0.657 C9.83506944,0.615 9.89293981,0.594 9.95659722,0.594 C10.0028935,0.594 10.0462963,0.609 10.0868056,0.639 C10.1678241,0.687 10.2141204,0.765 10.2256944,0.873 L10.3472222,6.624 Z M20,6.453 C20,7.155 19.759838,7.7535 19.2795139,8.2485 C18.7991898,8.7435 18.2204861,8.991 17.5434028,8.991 L10.7204861,8.991 C10.6452546,8.979 10.5815972,8.946 10.5295139,8.892 C10.4774306,8.838 10.4513889,8.772 10.4513889,8.694 L10.4513889,0.603 C10.4513889,0.465 10.5324074,0.366 10.6944444,0.306 C11.1863426,0.102 11.7100694,0 12.265625,0 C13.3940972,0 14.3721065,0.3945 15.1996528,1.1835 C16.0271991,1.9725 16.490162,2.943 16.5885417,4.095 C16.8952546,3.963 17.2135417,3.897 17.5434028,3.897 C18.2204861,3.897 18.7991898,4.146 19.2795139,4.644 C19.759838,5.142 20,5.745 20,6.453 Z" id="Shape"></path>
                    </g>
                </g>
            </g>
        </g>
    </g>
</svg>