<?xml version="1.0" encoding="UTF-8"?>
<svg width="34px" height="34px" viewBox="0 0 34 34" version="1.1" xmlns="http://www.w3.org/2000/svg" xmlns:xlink="http://www.w3.org/1999/xlink">
    <!-- Generator: Sketch 44.1 (41455) - http://www.bohemiancoding.com/sketch -->
    <title>Telegram-Channel-Icon-BW</title>
    <desc>Created with Sketch.</desc>
    <defs></defs>
    <g id="Page-1" stroke="none" stroke-width="1" fill="none" fill-rule="evenodd">
        <g id="Artboard-Copy-4" transform="translate(-621.000000, -1293.000000)">
            <g id="BnW" transform="translate(621.000000, 784.000000)">
                <g id="Telegram-Channel-Icon-BW" transform="translate(0.000000, 509.000000)">
                    <rect id="Rectangle-2" fill="#4A4A4A" x="0" y="0" width="34" height="34" rx="8"></rect>
                    <g id="Group-6" transform="translate(7.000000, 7.000000)" fill-rule="nonzero" fill="#FFFFFF">
                        <g id="bull-horn-announcer" transform="translate(15.000000, 17.000000)">
                            <path d="M4.89536363,1.53321059 C4.82559628,1.46348233 4.74141419,1.42858399 4.64278804,1.42858399 L4.64285644,1.42858399 L4.64285644,0.357163101 C4.64285644,0.260413307 4.60747925,0.17671985 4.53684213,0.106033864 C4.46617569,0.035347879 4.38235518,0 4.28568357,0 C3.42817745,0.714277338 2.59482946,1.07144044 1.78567869,1.07144044 L0.446436774,1.07144044 C0.323672036,1.07144044 0.218556806,1.11513421 0.131130174,1.20257061 C0.0436937703,1.29002656 0,1.39514179 0,1.51787721 L0,2.05357789 C0,2.1763524 0.0436253613,2.28146763 0.131071538,2.36888448 C0.218488397,2.45636975 0.323603627,2.50001466 0.446378137,2.50001466 L0.786790819,2.50001466 C0.755176114,2.60051717 0.734702294,2.70332604 0.725418223,2.80833377 C0.716143925,2.913449 0.712879841,3.00501926 0.715655289,3.08318137 C0.718430738,3.16130438 0.732405708,3.25522009 0.757511791,3.36497736 C0.782608101,3.47471508 0.804020101,3.55748013 0.821689154,3.61326274 C0.839348434,3.66911375 0.869116098,3.75697038 0.910962827,3.87693035 C0.952799783,3.99691964 0.980241542,4.0782872 0.993249014,4.12106233 C1.07879929,4.19918535 1.20156402,4.25082433 1.36153345,4.27591087 C1.52155175,4.30095831 1.67824732,4.29032561 1.83170813,4.24380752 C1.98515917,4.19731876 2.08886713,4.12006552 2.14280269,4.01224325 C2.07212648,3.95642155 2.0149366,3.90946369 1.97123306,3.87131105 C1.92750997,3.83318772 1.88287802,3.78673805 1.83728835,3.73184475 C1.79169867,3.67700033 1.76058238,3.62582066 1.74383196,3.57840349 C1.72710108,3.53097655 1.72151109,3.47704098 1.72710108,3.41654793 C1.73267153,3.35607442 1.75407375,3.2951416 1.79127845,3.23380809 C1.72060223,3.16123597 1.68335845,3.07521661 1.67966437,2.97569137 C1.67597028,2.87622476 1.70479977,2.78271951 1.76617236,2.69530265 C1.82753519,2.60788579 1.91220591,2.54647411 2.02007705,2.51115554 C2.75485752,2.57252814 3.51004341,2.92592875 4.28571289,3.57142578 C4.38239427,3.57142578 4.466205,3.5360779 4.53680304,3.46537237 C4.60749879,3.39473525 4.64281735,3.31099293 4.64281735,3.21428222 L4.64281735,2.14288088 C4.7414826,2.14288088 4.82565492,2.10802163 4.89539295,2.03825428 C4.96509189,1.96848693 5,1.88431461 5,1.78575687 C4.99997068,1.68716003 4.96506257,1.60297794 4.89536363,1.53321059 Z M4.28569334,3.11384812 C3.5583499,2.55771272 2.84412142,2.24050044 2.14286133,2.16241652 L2.14286133,1.40903858 C2.83851189,1.33277238 3.55283809,1.0137717 4.28569334,0.452026762 L4.28569334,3.11384812 Z" id="Shape"></path>
                        </g>
                        <path d="M19.3754835,0.660740741 C19.054002,0.240740741 18.5554835,0 18.0073353,0 C17.6532613,0 17.2865946,0.0985185185 16.916965,0.292592593 L1.17992794,8.5437037 C0.0614094198,9.13111111 -0.016368358,10.0155556 0.0021501605,10.3681481 C0.0199279383,10.722963 0.191039049,11.5933333 1.36437238,12.0592593 L3.37548349,12.8548148 C3.75696498,13.0059259 4.18363164,13.0837037 4.6428909,13.0837037 C4.71548349,13.0837037 4.78511312,13.0740741 4.85696498,13.0703704 C4.82955757,13.1059259 4.79622423,13.1333333 4.77103905,13.1703704 C4.39622423,13.7311111 4.37770572,14.4911111 4.71696498,15.3096296 C4.72215016,15.3237037 4.72733535,15.3355556 4.73252053,15.3474074 C5.32733535,16.6651852 5.98881683,18.1525926 6.06881683,18.3592593 C6.26585386,18.8733333 6.76807609,19.2274074 7.3191872,19.2274074 C8.16807609,19.2274074 8.41992794,18.8185185 9.80881683,16.5577778 C9.91696498,16.3918519 10.1577057,16.0066667 10.1984465,15.5162963 C10.3606687,15.5822222 10.5132613,15.642963 10.6436316,15.6955556 L12.8717798,16.6037037 C13.3184465,16.7859259 13.7095576,16.9466667 13.9154835,17.0318519 C13.9791872,17.0711111 14.0465946,17.1044444 14.116965,17.1333333 C14.274002,17.1955556 14.4414094,17.2274074 14.6095576,17.2274074 C15.6228909,17.2274074 15.8658539,16.3496296 15.9962242,15.8792593 C16.0606687,15.6466667 16.1495576,15.3244444 16.2451131,14.9688889 L19.6436316,2.48148148 C19.8999279,1.53851852 19.5851131,0.936296296 19.3754835,0.660740741 Z M8.6865946,15.8466667 C8.6865946,15.8466667 7.42585386,17.8992593 7.31844646,17.8992593 C7.31548349,17.8992593 7.31400201,17.8977778 7.31252053,17.8948148 C7.18881683,17.5622222 5.9428909,14.8014815 5.9428909,14.8014815 C5.71326127,14.2481481 5.75474275,13.7740741 6.14955757,13.7740741 C6.23622423,13.7740741 6.33992794,13.797037 6.46140942,13.8474074 L7.42881683,14.3503704 C7.59029831,14.4607407 7.7665946,14.5562963 7.96066868,14.6325926 L8.00955757,14.6511111 L8.10066868,14.697037 C8.84807609,15.0925926 9.08585386,15.2355556 8.6865946,15.8466667 Z M18.3621502,2.13185185 L14.9651131,14.6192593 C14.7732613,15.322963 14.6132613,15.8985185 14.6102983,15.8985185 C14.6073353,15.897037 14.6036316,15.8837037 14.6036316,15.8814815 C14.6036316,15.877037 14.0495576,15.6503704 13.3725205,15.3733333 L11.1428909,14.4651852 C10.4658539,14.1911111 9.35548349,13.7474074 8.67474275,13.4851852 L8.56215016,13.44 L8.14585386,13.2237037 C7.73326127,12.9074074 7.69696498,12.3859259 8.11177979,11.9437037 L15.0095576,4.55777778 C15.2865946,4.26222222 15.391039,4.10962963 15.331039,4.10962963 C15.2836316,4.10962963 15.1302983,4.20814815 14.874002,4.40888889 L6.1465946,11.2933333 C5.76585386,11.5903704 5.18733535,11.7562963 4.64363164,11.7562963 C4.36511312,11.7562963 4.09474275,11.7118519 3.86437238,11.6207407 L1.85474275,10.8259259 C1.17548349,10.557037 1.14955757,10.0607407 1.79622423,9.72 L17.5347428,1.46740741 C17.7162242,1.37259259 17.8754835,1.32814815 18.0073353,1.32814815 C18.3458539,1.32814815 18.4999279,1.62444444 18.3621502,2.13185185 Z" id="Shape"></path>
                    </g>
                </g>
            </g>
        </g>
    </g>
</svg>