<?xml version="1.0" encoding="UTF-8"?>
<svg width="34px" height="34px" viewBox="0 0 34 34" version="1.1" xmlns="http://www.w3.org/2000/svg" xmlns:xlink="http://www.w3.org/1999/xlink">
    <!-- Generator: Sketch 49.3 (51167) - http://www.bohemiancoding.com/sketch -->
    <title>Telegram-Channel-Icon-BW</title>
    <desc>Created with Sketch.</desc>
    <defs>
        <rect id="path-1" x="0" y="0" width="34" height="34" rx="8"></rect>
    </defs>
    <g id="Page-1" stroke="none" stroke-width="1" fill="none" fill-rule="evenodd">
        <g id="BUTTONS" transform="translate(-810.000000, -1293.000000)">
            <g id="BnW" transform="translate(810.000000, 784.000000)">
                <g id="Telegram-Channel-Icon-BW" transform="translate(0.000000, 509.000000)">
                    <g id="Rectangle-2">
                        <use fill="#FFFFFF" fill-rule="evenodd" xlink:href="#path-1"></use>
                        <rect stroke="#4A4A4A" stroke-width="1" x="0.5" y="0.5" width="33" height="33" rx="8"></rect>
                    </g>
                    <g id="Group-6" transform="translate(7.000000, 9.000000)" fill="#4A4A4A" fill-rule="nonzero">
                        <g id="bull-horn-announcer">
                            <path d="M19.5814545,6.07694947 C19.3023851,5.80057836 18.9656568,5.66225723 18.5711521,5.66225723 L18.5714258,5.66225723 L18.5714258,1.41563209 C18.5714258,1.03215991 18.429917,0.700437112 18.1473685,0.420270014 C17.8647027,0.140102916 17.5294207,0 17.1427343,0 C13.7127098,2.83107051 10.3793178,4.24670261 7.14271474,4.24670261 L1.78574709,4.24670261 C1.29468814,4.24670261 0.874227223,4.41988484 0.524520698,4.76644298 C0.174775081,5.11307859 0,5.52970755 0,6.01617494 L0,8.13944877 C0,8.62607109 0.174501445,9.04270006 0.524286153,9.38918073 C0.873953587,9.73593254 1.29441451,9.9089211 1.78551255,9.9089211 L3.14716328,9.9089211 C3.02070446,10.3072674 2.93880918,10.714755 2.90167289,11.1309578 C2.8645757,11.5475868 2.85151936,11.9105297 2.86262116,12.2203287 C2.87372295,12.5299728 2.92962283,12.902212 3.03004716,13.3372399 C3.1304324,13.7721903 3.2160804,14.1002333 3.28675661,14.3213302 C3.35739374,14.5426982 3.47646439,14.8909219 3.64385131,15.3663887 C3.81119913,15.8419717 3.92096617,16.1644756 3.97299606,16.3340168 C4.31519714,16.6436609 4.8062561,16.8483344 5.44613382,16.947766 C6.086207,17.0470427 6.71298929,17.0048995 7.32683253,16.8205229 C7.94063667,16.6362626 8.35546851,16.3300659 8.57121078,15.9027075 C8.28850593,15.6814556 8.05974642,15.4953361 7.88493225,15.3441163 C7.71003989,15.1930128 7.53151209,15.0089074 7.34915339,14.7913354 C7.16679469,14.573957 7.0423295,14.3711041 6.97532783,14.183164 C6.90840433,13.9951851 6.88604438,13.7814091 6.90840433,13.5416421 C6.9306861,13.3019527 7.01629501,13.0604427 7.16511378,12.8173445 C6.88240893,12.5297017 6.7334338,12.18876 6.71865746,11.7942872 C6.70388113,11.4000469 6.81919907,11.0294346 7.06468945,10.6829539 C7.31014075,10.3364732 7.64882366,10.0930652 8.08030819,9.95307851 C11.0194301,10.1963316 14.0401736,11.5970509 17.1428516,14.1555075 C17.5295771,14.1555075 17.86482,14.0154046 18.1472121,13.73516 C18.4299952,13.4551866 18.5712694,13.1232701 18.5712694,12.7399529 L18.5712694,8.49340521 C18.9659304,8.49340521 19.3026197,8.35523903 19.5815718,8.07871298 C19.8603676,7.80218693 20,7.46856613 20,7.07792806 C19.9998827,6.68713505 19.8602503,6.35347552 19.5814545,6.07694947 Z M17.1427734,12.3418778 C14.2333996,10.13761 11.3764857,8.88032477 8.57144532,8.57083561 L8.57144532,5.5847881 C11.3540476,5.28250357 14.2113524,4.01812995 17.1427734,1.7916285 L17.1427734,12.3418778 Z" id="Shape"></path>
                        </g>
                    </g>
                </g>
            </g>
        </g>
    </g>
</svg>