<?xml version="1.0" encoding="UTF-8"?>
<svg width="34px" height="34px" viewBox="0 0 34 34" version="1.1" xmlns="http://www.w3.org/2000/svg" xmlns:xlink="http://www.w3.org/1999/xlink">
    <!-- Generator: Sketch 49.3 (51167) - http://www.bohemiancoding.com/sketch -->
    <title>Telegram-Chat-Icon-BW</title>
    <desc>Created with Sketch.</desc>
    <defs>
        <rect id="path-1" x="0" y="0" width="34" height="34" rx="8"></rect>
    </defs>
    <g id="Page-1" stroke="none" stroke-width="1" fill="none" fill-rule="evenodd">
        <g id="BUTTONS" transform="translate(-810.000000, -1333.000000)">
            <g id="BnW" transform="translate(810.000000, 784.000000)">
                <g id="Telegram-Chat-Icon-BW" transform="translate(0.000000, 549.000000)">
                    <g id="Rectangle-2">
                        <use fill="#FFFFFF" fill-rule="evenodd" xlink:href="#path-1"></use>
                        <rect stroke="#4A4A4A" stroke-width="1" x="0.5" y="0.5" width="33" height="33" rx="8"></rect>
                    </g>
                    <g id="Group-7" transform="translate(7.000000, 7.000000)" fill="#4A4A4A" fill-rule="nonzero">
                        <path d="M19.3754835,0.660740741 C19.054002,0.240740741 18.5554835,0 18.0073353,0 C17.6532613,0 17.2865946,0.0985185185 16.916965,0.292592593 L1.17992794,8.5437037 C0.0614094198,9.13111111 -0.016368358,10.0155556 0.0021501605,10.3681481 C0.0199279383,10.722963 0.191039049,11.5933333 1.36437238,12.0592593 L3.37548349,12.8548148 C3.75696498,13.0059259 4.18363164,13.0837037 4.6428909,13.0837037 C4.71548349,13.0837037 4.78511312,13.0740741 4.85696498,13.0703704 C4.82955757,13.1059259 4.79622423,13.1333333 4.77103905,13.1703704 C4.39622423,13.7311111 4.37770572,14.4911111 4.71696498,15.3096296 C4.72215016,15.3237037 4.72733535,15.3355556 4.73252053,15.3474074 C5.32733535,16.6651852 5.98881683,18.1525926 6.06881683,18.3592593 C6.26585386,18.8733333 6.76807609,19.2274074 7.3191872,19.2274074 C8.16807609,19.2274074 8.41992794,18.8185185 9.80881683,16.5577778 C9.91696498,16.3918519 10.1577057,16.0066667 10.1984465,15.5162963 C10.3606687,15.5822222 10.5132613,15.642963 10.6436316,15.6955556 L12.8717798,16.6037037 C13.3184465,16.7859259 13.7095576,16.9466667 13.9154835,17.0318519 C13.9791872,17.0711111 14.0465946,17.1044444 14.116965,17.1333333 C14.274002,17.1955556 14.4414094,17.2274074 14.6095576,17.2274074 C15.6228909,17.2274074 15.8658539,16.3496296 15.9962242,15.8792593 C16.0606687,15.6466667 16.1495576,15.3244444 16.2451131,14.9688889 L19.6436316,2.48148148 C19.8999279,1.53851852 19.5851131,0.936296296 19.3754835,0.660740741 Z M8.6865946,15.8466667 C8.6865946,15.8466667 7.42585386,17.8992593 7.31844646,17.8992593 C7.31548349,17.8992593 7.31400201,17.8977778 7.31252053,17.8948148 C7.18881683,17.5622222 5.9428909,14.8014815 5.9428909,14.8014815 C5.71326127,14.2481481 5.75474275,13.7740741 6.14955757,13.7740741 C6.23622423,13.7740741 6.33992794,13.797037 6.46140942,13.8474074 L7.42881683,14.3503704 C7.59029831,14.4607407 7.7665946,14.5562963 7.96066868,14.6325926 L8.00955757,14.6511111 L8.10066868,14.697037 C8.84807609,15.0925926 9.08585386,15.2355556 8.6865946,15.8466667 Z M18.3621502,2.13185185 L14.9651131,14.6192593 C14.7732613,15.322963 14.6132613,15.8985185 14.6102983,15.8985185 C14.6073353,15.897037 14.6036316,15.8837037 14.6036316,15.8814815 C14.6036316,15.877037 14.0495576,15.6503704 13.3725205,15.3733333 L11.1428909,14.4651852 C10.4658539,14.1911111 9.35548349,13.7474074 8.67474275,13.4851852 L8.56215016,13.44 L8.14585386,13.2237037 C7.73326127,12.9074074 7.69696498,12.3859259 8.11177979,11.9437037 L15.0095576,4.55777778 C15.2865946,4.26222222 15.391039,4.10962963 15.331039,4.10962963 C15.2836316,4.10962963 15.1302983,4.20814815 14.874002,4.40888889 L6.1465946,11.2933333 C5.76585386,11.5903704 5.18733535,11.7562963 4.64363164,11.7562963 C4.36511312,11.7562963 4.09474275,11.7118519 3.86437238,11.6207407 L1.85474275,10.8259259 C1.17548349,10.557037 1.14955757,10.0607407 1.79622423,9.72 L17.5347428,1.46740741 C17.7162242,1.37259259 17.8754835,1.32814815 18.0073353,1.32814815 C18.3458539,1.32814815 18.4999279,1.62444444 18.3621502,2.13185185 Z" id="Shape"></path>
                    </g>
                </g>
            </g>
        </g>
    </g>
</svg>