<?xml version="1.0" encoding="UTF-8"?>
<svg width="35px" height="34px" viewBox="0 0 35 34" version="1.1" xmlns="http://www.w3.org/2000/svg" xmlns:xlink="http://www.w3.org/1999/xlink">
    <!-- Generator: Sketch 44.1 (41455) - http://www.bohemiancoding.com/sketch -->
    <title>Tudou-Icon-BW</title>
    <desc>Created with Sketch.</desc>
    <defs></defs>
    <g id="Page-1" stroke="none" stroke-width="1" fill="none" fill-rule="evenodd">
        <g id="Artboard-Copy-4" transform="translate(-621.000000, -1098.000000)">
            <g id="BnW" transform="translate(621.000000, 784.000000)">
                <g id="Tudou-Icon-BW" transform="translate(0.000000, 314.000000)">
                    <rect id="Rectangle-2" fill="#4A4A4A" x="0" y="0" width="35" height="34" rx="8"></rect>
                    <g id="Group-2" transform="translate(17.000000, 18.000000) scale(1, -1) translate(-17.000000, -18.000000) translate(7.000000, 8.000000)" fill-rule="nonzero" fill="#FFFFFF">
                        <path d="M8.78166,19.9334529 C6.91521032,19.71949 5.03702135,18.8992985 3.57751219,17.6630688 C1.62106561,16.0068356 0.388504194,13.6572056 0.0950372258,11.0421027 C0.0441696129,10.5824783 0.0441696129,9.4413427 0.0950372258,8.98171828 C0.353288194,6.6954839 1.32368574,4.61132641 2.87710439,3.01849082 C4.05488516,1.81395847 5.46743961,0.946219738 7.02085871,0.470746483 C8.57818968,-0.00472683262 10.3155148,-0.0879346743 11.8963232,0.240934377 C15.460969,0.981880322 18.3604232,3.69604022 19.3660361,7.2383161 C19.5499419,7.88020498 19.6399387,8.37548978 19.7221097,9.14021007 C19.7455871,9.39775718 19.7494994,10.7528571 19.7260258,10.8836116 C19.7142871,10.9271971 19.6947226,11.0896494 19.6829839,11.2402167 C19.6242903,11.8266331 19.3973432,12.7656927 19.1430052,13.4789037 C18.8456245,14.3149434 18.1530426,15.5630615 17.6169768,16.2247625 C16.6348406,17.4411814 15.4687981,18.380241 14.1618923,19.0062803 C13.1288877,19.5015644 12.1584903,19.7868488 11.0315774,19.9215666 C10.5229006,19.980999 9.26294968,19.9889248 8.78166323,19.9334529 L8.78166,19.9334529 Z M10.9728806,18.0355229 C13.6610381,17.6353336 15.9266032,15.9711759 17.0809071,13.5383375 C18.3134677,10.9509691 18.1099974,7.9396394 16.5487535,5.55434833 C15.3670594,3.75151221 13.5553903,2.53113075 11.3993852,2.08339328 C10.9181,1.98433639 10.8007129,1.97244957 9.93596387,1.97244957 C9.00469548,1.96848701 8.84817935,1.98433639 8.17516129,2.13490298 C5.24049187,2.7926409 2.89666877,5.09472419 2.16887071,8.04662054 C1.99279045,8.75190641 1.93018413,9.28681347 1.93800994,10.0713446 C1.94192284,10.816252 2.00061619,11.3353115 2.14930619,11.9375775 C2.73624013,14.2911714 4.25835561,16.2128741 6.37523097,17.2628781 C7.58431484,17.8651441 8.78166,18.130617 10.0729155,18.0949553 C10.4289884,18.0830696 10.8320161,18.0553344 10.9728806,18.0355229 L10.9728806,18.0355229 Z" id="path8"></path>
                        <path d="M5.61221671,13.2213552 C4.91572174,13.0272031 4.30922329,12.5398427 4.01184335,11.9256898 C3.87489213,11.6522937 3.71837639,11.1134241 3.75359245,11.0698379 C3.76141819,11.0619148 3.89054368,11.1015364 4.04314652,11.157009 C4.72790284,11.4066323 5.29527239,11.5017271 6.16002194,11.505689 C6.69608774,11.505689 6.94651355,11.4898387 7.30258645,11.4224812 C7.76430774,11.3392727 8.31602645,11.180783 8.51949613,11.0738005 C8.58210258,11.0421027 8.64079613,11.0262538 8.65253484,11.0381408 C8.6642729,11.0460646 8.63688323,11.2005938 8.58992903,11.3749345 C8.38254516,12.2149367 7.81908839,12.8449386 7.02085871,13.1421087 C6.65304645,13.280789 5.96437684,13.3164507 5.61221671,13.2213552 Z" id="path10"></path>
                        <path d="M13.027149,13.2213552 C12.080229,13.0113542 11.3054761,12.1713519 11.1489606,11.1887074 L11.1215703,11.0222919 L11.3289535,11.1015364 C12.6319471,11.6245565 14.3614465,11.6522937 15.6918297,11.1768204 C15.8679097,11.1134241 16.0205123,11.0619142 16.0322516,11.0619142 C16.0635542,11.0619142 15.9892097,11.3987072 15.9070387,11.640406 C15.7035677,12.2149367 15.2496729,12.7379568 14.7214323,12.9994678 C14.5414387,13.0906007 14.2910142,13.1896567 14.161889,13.2213552 C13.88016,13.292676 13.3480065,13.292676 13.027149,13.2213552 L13.027149,13.2213552 Z" id="path12"></path>
                        <path d="M4.37574245,9.59983244 C3.87489213,9.37002125 3.87880503,8.58945342 4.38356819,8.34775453 L4.52443239,8.28039497 L4.37182955,8.20907421 C4.00793045,8.04265797 3.88271787,7.52360118 4.12531729,7.17888168 C4.22313961,7.04020136 4.49704213,6.90152241 4.67703523,6.90152241 C4.95876355,6.90548293 5.23657897,7.10756092 5.31874974,7.37303316 C5.34614,7.46020419 5.3500529,7.46020419 5.41657206,7.31359942 C5.71395194,6.64001205 6.70782645,6.85793825 6.70782645,7.59492194 C6.70782645,7.86831864 6.56696258,8.09416862 6.32827613,8.21303678 C6.15219613,8.30020713 6.14828323,8.30416902 6.24219226,8.33190562 C6.64913355,8.43888676 6.83695226,8.95002115 6.61000452,9.34228533 C6.32045032,9.84153269 5.51439439,9.74643857 5.39700755,9.19171935 L5.36961729,9.06492538 L5.31874974,9.21549271 C5.25223052,9.40964488 5.1583211,9.51266346 4.96658929,9.59983244 C4.76703181,9.6949286 4.5792129,9.6949286 4.37574245,9.59983244 L4.37574245,9.59983244 Z M5.53395884,8.48643484 C5.69438748,8.32397981 5.58091355,8.01096016 5.36179155,8.01096016 C5.21310161,8.01096016 5.09180187,8.13775345 5.09180187,8.28831943 C5.09180187,8.530019 5.36961729,8.65284972 5.53395884,8.48643484 Z" id="path14"></path>
                    </g>
                </g>
            </g>
        </g>
    </g>
</svg>