<?xml version="1.0" encoding="UTF-8"?>
<svg width="34px" height="34px" viewBox="0 0 34 34" version="1.1" xmlns="http://www.w3.org/2000/svg" xmlns:xlink="http://www.w3.org/1999/xlink">
    <!-- Generator: Sketch 44.1 (41455) - http://www.bohemiancoding.com/sketch -->
    <title>Twitter-Icon-BW</title>
    <desc>Created with Sketch.</desc>
    <defs></defs>
    <g id="Page-1" stroke="none" stroke-width="1" fill="none" fill-rule="evenodd">
        <g id="Artboard-Copy-4" transform="translate(-621.000000, -1179.000000)">
            <g id="BnW" transform="translate(621.000000, 784.000000)">
                <g id="Twitter-Icon-BW" transform="translate(0.000000, 395.000000)">
                    <rect id="Rectangle-2" fill="#4A4A4A" x="0" y="0" width="34" height="34" rx="8"></rect>
                    <g id="Twitter_bird_logo_2012" transform="translate(7.000000, 9.000000)" fill-rule="nonzero" fill="#FFFFFF">
                        <path d="M6.31466667,15.968884 C13.812,15.968884 17.912,9.85082747 17.912,4.54546488 C17.912,4.37169048 17.9084067,4.19870409 17.9004933,4.02649913 C18.69636,3.45978039 19.3880933,2.75256069 19.9336933,1.94748414 C19.20336,2.26724268 18.4174267,2.48249888 17.59296,2.57956117 C18.4344933,2.08250848 19.08056,1.29623236 19.38536,0.358902605 C18.5978267,0.81877468 17.7256933,1.15301279 16.7970933,1.33346551 C16.0532933,0.553079716 14.99436,0.064977427 13.8218267,0.064977427 C11.5708933,0.064977427 9.74556,1.86300363 9.74556,4.07932818 C9.74556,4.39438497 9.78132,4.7008394 9.85125333,4.99479084 C6.46358667,4.82688707 3.45965333,3.22926977 1.44925333,0.799987372 C1.0992,1.39331435 0.897353333,2.08252818 0.897353333,2.81793212 C0.897353333,4.21085904 1.61695333,5.44053796 2.71122,6.15991918 C2.04248667,6.13956768 1.41428667,5.95874854 0.86522,5.6577773 C0.86462,5.67462218 0.86462,5.69104482 0.86462,5.70904807 C0.86462,7.65344586 2.26962,9.2768637 4.13468667,9.64472984 C3.79218,9.73670294 3.43182,9.7860188 3.05988667,9.7860188 C2.79764667,9.7860188 2.54215333,9.76059519 2.29382,9.71361445 C2.81274,11.3088612 4.31748667,12.4697212 6.10148667,12.5021606 C4.70642,13.5792296 2.94902,14.2207298 1.03902,14.2207298 C0.71042,14.2207298 0.3858,14.2023195 0.0667533333,14.1651533 C1.87068667,15.3040805 4.01268667,15.9686298 6.31488667,15.9686298" id="Shape"></path>
                    </g>
                </g>
            </g>
        </g>
    </g>
</svg>