<?xml version="1.0" encoding="UTF-8"?>
<svg width="34px" height="34px" viewBox="0 0 34 34" version="1.1" xmlns="http://www.w3.org/2000/svg" xmlns:xlink="http://www.w3.org/1999/xlink">
    <!-- Generator: Sketch 44.1 (41455) - http://www.bohemiancoding.com/sketch -->
    <title>Weibo Icon</title>
    <desc>Created with Sketch.</desc>
    <defs>
        <linearGradient x1="50%" y1="-0.392871397%" x2="50%" y2="97.9791773%" id="linearGradient-1">
            <stop stop-color="#FF9933" offset="0%"></stop>
            <stop stop-color="#E6162D" offset="100%"></stop>
        </linearGradient>
    </defs>
    <g id="Page-1" stroke="none" stroke-width="1" fill="none" fill-rule="evenodd">
        <g id="Artboard-Copy-4" transform="translate(-433.000000, -1255.000000)">
            <g id="Weibo-Icon" transform="translate(433.000000, 1255.000000)">
                <rect id="Rectangle-2" fill="url(#linearGradient-1)" x="0" y="0" width="34" height="34" rx="8"></rect>
                <g id="sina-weibo" transform="translate(7.000000, 9.000000)" fill-rule="nonzero" fill="#FFFFFF">
                    <path d="M14.6378,8.61548276 C14.3632,8.534 14.175,8.47772414 14.3186,8.11935632 C14.6296,7.34067816 14.6622,6.66908046 14.3248,6.18995402 C13.692,5.29110345 11.9612,5.33936782 9.9778,6.16591954 C9.9778,6.16494253 9.3546,6.43694253 9.5138,5.94531034 C9.819,4.96947126 9.7726,4.15268966 9.2982,3.6807931 C8.2222,2.6097931 5.36,3.72143678 2.9048,6.16162069 C1.0668,7.9898046 0,9.9276092 0,11.6029885 C0,14.8073908 4.132,16.9511494 8.1748,16.9511494 C13.4742,16.9511494 17,13.6937931 17,11.2627931 C17,9.79356322 15.7558,8.95997701 14.6378,8.61548276 Z M8.1858,15.5143563 C4.9598,15.8266092 2.1756,14.3948966 1.9658,12.3136667 C1.7564,10.2334138 4.2022,8.29267816 7.4278,7.97944828 C10.654,7.66563218 13.4388,9.09851724 13.6478,11.1787701 C13.8566,13.26 11.4124,15.200931 8.1858,15.5143563 Z M19.9,6.00608046 C19.8984,2.76982759 17.213,0.146551724 13.9,0.146551724 C13.5132,0.146551724 13.2,0.452747126 13.2,0.83045977 C13.2,1.20836782 13.5132,1.51436782 13.9,1.51436782 C16.4406,1.51436782 18.5,3.52662069 18.5,6.00862069 C18.5,6.38652874 18.8136,6.69252874 19.2,6.69252874 C19.5868,6.69252874 19.9,6.38652874 19.9,6.00862069 C19.9,6.00862069 19.9,6.00705747 19.9,6.00608046 Z M17.1186,5.90564368 C16.7988,4.37974713 15.5676,3.17704598 14.0056,2.8644023 C13.6274,2.7883908 13.2572,3.02658621 13.1796,3.39648276 C13.1016,3.76637931 13.3454,4.12767816 13.7236,4.20408046 C14.7392,4.40729885 15.5396,5.18871264 15.7474,6.18096552 C15.8256,6.55086207 16.1954,6.78886207 16.574,6.71304598 C16.9524,6.63664368 17.196,6.27534483 17.1186,5.90564368 Z M6.5312,10.0171034 C5.2316,10.2722989 4.3548,11.337046 4.5724,12.394954 C4.7898,13.4530575 6.0198,14.1037471 7.3194,13.8483563 C8.6186,13.5931609 9.4958,12.5288046 9.278,11.4705057 C9.0608,10.4127931 7.8304,9.76190805 6.5312,10.0171034 Z" id="Shape"></path>
                </g>
            </g>
        </g>
    </g>
</svg>