<?xml version="1.0" encoding="UTF-8"?>
<svg width="34px" height="34px" viewBox="0 0 34 34" version="1.1" xmlns="http://www.w3.org/2000/svg" xmlns:xlink="http://www.w3.org/1999/xlink">
    <!-- Generator: Sketch 49.3 (51167) - http://www.bohemiancoding.com/sketch -->
    <title>Ximalaya-Icon-BW</title>
    <desc>Created with Sketch.</desc>
    <defs>
        <rect id="path-1" x="0" y="0" width="34" height="34" rx="8"></rect>
    </defs>
    <g id="Page-1" stroke="none" stroke-width="1" fill="none" fill-rule="evenodd">
        <g id="BUTTONS" transform="translate(-810.000000, -937.000000)">
            <g id="BnW" transform="translate(810.000000, 784.000000)">
                <g id="Ximalaya-Icon-BW" transform="translate(0.000000, 153.000000)">
                    <g id="Rectangle-2">
                        <use fill="#FFFFFF" fill-rule="evenodd" xlink:href="#path-1"></use>
                        <rect stroke="#4A4A4A" stroke-width="1" x="0.5" y="0.5" width="33" height="33" rx="8"></rect>
                    </g>
                    <g id="喜马拉雅" transform="translate(7.000000, 8.000000)" fill="#4A4A4A">
                        <path d="M0.747218066,15.1888995 C0.721385882,6.40927918 0.721385882,1.94708069 0.747218066,1.80230403 C0.785966342,1.58513904 0.879115078,1.40796162 1.31859179,1.04907666 C1.61157627,0.809820013 2.01919351,0.658109193 2.5414435,0.593944198 C3.89180753,0.593944198 5.0856075,0.593944198 6.12284342,0.593944198 C7.67869731,0.593944198 7.72304253,1.35929262 7.88006818,1.54659599 C7.98475194,1.67146491 8.05722554,1.99020543 8.09748897,2.50281756 L8.09748897,15.7192297 C8.1087541,16.0013538 8.0362805,16.3464555 7.88006818,16.7545349 C7.75787972,17.0737325 7.44701244,17.3106189 7.05950702,17.4520752 C6.67200159,17.5935315 6.39442903,17.5845176 6.30164252,17.5830597 C6.17237835,17.5810286 6.06332134,17.5810286 5.97447148,17.5830597 C5.67514946,17.5798732 5.49216079,17.5702479 5.42550546,17.554184 C5.35885014,17.53812 5.3189663,17.5040837 5.30585395,17.4520752 C5.67522214,17.4150509 5.94755196,17.25429 6.12284342,16.9697925 C6.38578062,16.5430463 6.43466962,15.9093062 6.43361512,15.8547221 C6.43189365,15.7656135 6.43189365,11.5761103 6.43361512,3.28621242 C6.45660444,2.91624557 6.40120712,2.65511395 6.26742316,2.50281756 C6.06674722,2.27437298 5.7564618,2.29809709 5.60200104,2.29839595 C3.91066882,2.30166849 3.47648917,2.2731674 3.10470798,2.29839595 C2.82386629,2.31745348 2.72040856,2.41535963 2.67968264,2.434673 C2.48621045,2.52642294 2.42252662,2.70992597 2.42252662,2.93798992 C2.42252662,9.27255277 2.40848655,12.9296223 2.40848655,13.924609 C2.40848655,14.8231112 2.41975125,14.8981654 2.40848655,15.0010891 C2.40241596,15.0565551 2.40810458,15.1160927 2.40848655,15.2316345 C2.40869321,15.2941457 2.41455898,15.445948 2.47103892,15.5675693 C2.51895302,15.6707453 2.61463913,15.7479179 2.65517049,15.7753562 C2.84778024,15.9057462 3.055432,15.8617419 3.187271,15.8547221 C3.54232795,15.8358169 3.89463777,15.8562973 3.97764472,15.8898349 C4.06065167,15.9233725 4.18255064,15.9719273 4.33886857,16.0602414 C4.48046434,16.140238 4.62340982,16.3033405 4.70900724,16.4716357 C4.8891019,16.8257242 4.72587637,17.1780721 4.70900724,17.2245798 C4.65811843,17.3648787 4.39961299,17.5554565 4.12315451,17.569153 C3.1619628,17.616773 2.47558093,17.611216 2.14856981,17.569153 C1.63678444,17.5033228 1.58679048,17.4068539 1.44525984,17.2793344 C0.951364836,16.8343334 0.718684245,16.1375218 0.747218066,15.1888995 Z" id="Path-2"></path>
                        <path d="M9.59060147,17.9219444 C9.54588299,7.31462044 9.54588299,1.91327409 9.59060147,1.71790537 C9.6576792,1.42485229 9.92792864,1.07287686 10.357625,0.818134008 C10.6440892,0.648305439 10.9077793,0.574584611 11.1486953,0.596971522 L18.5405954,0.587645728 C18.822869,0.587645728 19.0005469,0.590754326 19.0736289,0.596971522 C19.1832521,0.606297317 19.2097686,0.733577991 19.2215329,0.818134008 C19.2623005,1.11115275 19.1920357,1.28974703 18.8016831,1.71790537 C18.4703338,2.08134586 17.8849281,2.2562783 17.045466,2.2427027 L11.859527,2.23708912 C11.7679053,2.25166689 11.6984792,2.27350758 11.6512487,2.30261118 C11.4799867,2.40814349 11.3683495,2.59433377 11.3174681,2.70091522 C11.3002287,2.73702672 11.2828752,2.81757765 11.2400471,2.95729932 C11.2114949,3.0504471 11.20543,3.98775897 11.2218522,5.76923492 C11.2272353,5.92596337 11.2475763,6.03970443 11.2828752,6.1104581 C11.3181741,6.18121177 11.5103914,6.21403071 11.859527,6.20891493 C16.5207993,6.15577512 18.949776,6.14476326 19.146457,6.17587935 C19.4414787,6.2225535 19.3004955,6.95686687 18.9640058,7.3529667 C18.6275162,7.74906653 18.0647221,7.95262437 18.0647221,7.88164856 C18.0647221,7.81998321 18.0647221,16.5324183 18.0647221,16.7905856 C18.0647221,17.0487529 18.0129951,17.3272383 17.9924475,17.3947654 C17.9007332,17.6961733 17.480765,18.0891345 17.1608052,18.2818929 C16.9343054,18.4183469 16.7957414,18.4081947 16.7066483,18.4087318 C16.6509212,18.4090677 16.5673058,18.4082854 16.5325852,18.3081598 C16.5094381,18.2414094 16.495388,17.9399627 16.4904348,17.4038196 L16.5325852,8.74766101 C16.5325852,8.5282229 16.5325852,8.36616976 16.5325852,8.2615016 C16.5325852,8.10449935 16.5285991,8.03981069 16.4904348,7.9944187 C16.3848497,7.86883736 16.2130892,7.87116253 16.1695459,7.85704603 C16.140517,7.84763504 15.9101536,7.84763504 15.4784557,7.85704603 L12.0016909,7.85704603 C11.7974273,7.84803641 11.6594073,7.84803641 11.5876309,7.85704603 C11.4799664,7.87056047 11.3518696,7.9340541 11.3174681,7.95262437 C11.2836309,7.97089006 11.2378043,8.04958228 11.2218522,8.20090817 C11.2112176,8.30179209 11.2112176,8.45937376 11.2218522,8.67365319 C11.2525539,13.3997506 11.2728949,15.9799739 11.2828752,16.414323 C11.2928556,16.8486721 11.2554976,17.1881922 11.1708012,17.4328834 C10.9509478,17.8638317 10.7100916,18.1468349 10.4482326,18.2818929 C10.055444,18.48448 9.85234287,18.4014985 9.72081032,18.3483506 C9.63312195,18.3129186 9.589719,18.1707832 9.59060147,17.9219444 Z" id="Path-3"></path>
                    </g>
                </g>
            </g>
        </g>
    </g>
</svg>