<?xml version="1.0" encoding="UTF-8"?>
<svg width="34px" height="34px" viewBox="0 0 34 34" version="1.1" xmlns="http://www.w3.org/2000/svg" xmlns:xlink="http://www.w3.org/1999/xlink">
    <!-- Generator: Sketch 44.1 (41455) - http://www.bohemiancoding.com/sketch -->
    <title>Youku-Icon-BW</title>
    <desc>Created with Sketch.</desc>
    <defs></defs>
    <g id="Page-1" stroke="none" stroke-width="1" fill="none" fill-rule="evenodd">
        <g id="Artboard-Copy-4" transform="translate(-621.000000, -1057.000000)">
            <g id="BnW" transform="translate(621.000000, 784.000000)">
                <g id="Youku-Icon-BW" transform="translate(0.000000, 273.000000)">
                    <rect id="Rectangle-2" fill="#4A4A4A" x="0" y="0" width="34" height="34" rx="8"></rect>
                    <path d="M12.8809231,17.8532308 C13.4480912,17.8532308 13.9078718,17.3387715 13.9078718,16.7041538 C13.9078718,16.0695362 13.4480912,15.5550769 12.8809231,15.5550769 C12.313755,15.5550769 11.8539744,16.0695362 11.8539744,16.7041538 C11.8539744,17.3387715 12.313755,17.8532308 12.8809231,17.8532308 Z M12.8809231,18.8256923 C11.4619231,18.8256923 10.5782564,17.8596923 10.5782564,16.6691538 C10.5782564,15.4786154 11.6094359,14.5134231 12.8809231,14.5134231 C14.1524103,14.5134231 15.1830256,15.4786154 15.1830256,16.6691538 C15.1830256,17.8596923 14.4076667,18.8256923 12.8809231,18.8256923 Z M19.4397436,17.2504231 C19.3836154,18.2697308 18.5518462,18.8733462 17.3655385,18.8884231 C15.2569231,18.9164231 15.2966923,17.6292308 15.2885128,17.3791154 L15.2910513,15.3854615 C15.3181282,14.9786538 15.5341795,14.7546538 15.9420256,14.7258462 C16.3230769,14.7422692 16.5154359,14.9436538 16.532359,15.3450769 L16.5303846,17.3519231 C16.5298205,17.5315 16.6299487,18.0357692 17.3694872,18.0182692 C17.8684359,18.0056154 18.1676923,17.7132308 18.1891282,17.2873077 L18.1896923,15.2863846 C18.2167692,14.8793077 18.4173077,14.6593462 18.8107692,14.6351154 C19.2169231,14.6429231 19.4259231,14.8402692 19.4445385,15.2433077 L19.4397436,17.2504231 Z M23.6679744,18.6068077 C23.4423333,18.8141154 22.989359,18.8367308 22.7132308,18.6205385 C22.6201538,18.5443462 20.9058462,17.1602308 20.9058462,17.1602308 L20.9041538,18.2934231 C20.8869487,18.6331923 20.6723077,18.8203077 20.2424615,18.8186923 C19.8309487,18.8186923 19.6067179,18.6455769 19.5838718,18.2912692 L19.5838718,15.2462692 C19.6067179,14.8766154 19.7911795,14.6623077 20.2407692,14.6623077 C20.6771026,14.6623077 20.8880769,14.8898077 20.8979487,15.2468077 L20.9072564,16.3086538 L22.5324359,14.8426923 C22.6948974,14.6997308 23.1470256,14.5142308 23.5015641,14.8373077 C23.9841538,15.2756154 23.4333077,15.7750385 23.4333077,15.7750385 L22.3200513,16.7009231 L23.5627692,17.7070385 C23.8498974,17.9401923 23.9057436,18.3881923 23.6679744,18.6068077 Z M27.9802564,17.2953846 C27.9218718,18.3044615 27.2449487,18.8302692 25.8950513,18.8501923 C24.5530513,18.8302692 23.8637179,18.3023077 23.8185897,17.2975385 L23.8185897,15.2998462 C23.8411538,14.8976154 24.0374615,14.6644615 24.4650513,14.6644615 C24.8517436,14.6776538 25.046359,14.8957308 25.0677949,15.2982308 L25.0717436,17.2951154 C25.0951538,17.7161923 25.420359,17.9921538 25.8992821,17.9921538 C26.3539487,17.9921538 26.7025641,17.7172692 26.7251282,17.2951154 L26.7251282,15.2982308 C26.7409231,14.896 26.9552821,14.6795385 27.3487436,14.6658077 C27.7430513,14.6795385 27.9579744,14.8957308 27.9805385,15.2982308 L27.9805385,17.2953846 L27.9802564,17.2953846 Z M7.41420513,20.8645769 C6.83628205,20.6486538 6.99197436,20.1462692 7.07828205,19.9645385 L7.72587179,18.613 L6.07615385,15.0090769 C6.0434359,14.9013846 5.85192308,14.3287308 6.43774359,14.1410769 C6.97758974,13.9687692 7.26641026,14.2051538 7.43902564,14.5433077 L8.49079487,17.0479615 L9.59333333,14.5524615 C9.7295641,14.2439231 9.95238462,13.9178846 10.603641,14.1370385 C11.2768974,14.3637308 10.9643846,15.0036923 10.9643846,15.0036923 L8.44679487,20.3947692 C8.25810256,20.7638846 7.99297436,21.0794231 7.41420513,20.8645769 Z" id="Shape" fill="#FFFFFF" fill-rule="nonzero"></path>
                    <g id="youku-logo" transform="translate(6.000000, 14.000000)"></g>
                </g>
            </g>
        </g>
    </g>
</svg>