<?xml version="1.0" encoding="UTF-8"?>
<svg width="34px" height="34px" viewBox="0 0 34 34" version="1.1" xmlns="http://www.w3.org/2000/svg" xmlns:xlink="http://www.w3.org/1999/xlink">
    <!-- Generator: Sketch 44.1 (41455) - http://www.bohemiancoding.com/sketch -->
    <title>Zhihu-Icon-BW</title>
    <desc>Created with Sketch.</desc>
    <defs></defs>
    <g id="Page-1" stroke="none" stroke-width="1" fill="none" fill-rule="evenodd">
        <g id="Artboard-Copy-4" transform="translate(-621.000000, -1413.000000)">
            <g id="BnW" transform="translate(621.000000, 784.000000)">
                <g id="Zhihu-Icon-BW" transform="translate(0.000000, 629.000000)">
                    <rect id="Rectangle-2" fill="#4A4A4A" x="0" y="0" width="34" height="34" rx="8"></rect>
                    <g id="Group-8" transform="translate(7.000000, 6.000000)">
                        <path d="M2.47176382,1.24430105 C2.33119999,1.39112665 1.61470648,3.2481976 0.322283282,6.81551391 L0.0555744273,7.45907973 C0.900481675,7.25771388 1.51876472,7.00139849 1.91042356,6.69013357 C2.49791183,6.22323618 2.5647946,5.99035907 2.73252126,5.69726931 C2.90024792,5.40417955 2.9808233,5.24299329 3.10827797,5.13717272 C3.24028644,5.0275713 3.28134323,4.80221247 3.40925187,4.73795761 C3.48506337,4.69987372 3.74811646,4.73024579 3.9800493,4.73795761 C4.13943194,4.74325711 4.27837696,4.71518831 4.35484126,4.73795761 C4.52576823,4.78885569 4.58463524,4.9219274 4.5314423,5.13717272 L4.5314423,9.52753438 C4.46690121,9.69362287 4.38143773,9.80718922 4.27505185,9.86823344 C4.11547303,9.95979976 3.74018973,10.0222394 3.60559687,10.0231529 C2.58760307,10.0300623 2.45605313,10.0231529 2.08911304,10.0231529 C1.46593107,10.0231529 1.31694663,10.0612874 1.09303077,10.1608639 C0.553032557,10.401004 0.207213774,11.0224418 0.0555744273,12.0251775 L3.9800493,12.0251775 C4.16883529,12.0859849 4.29376594,12.1582177 4.35484126,12.2418757 C4.44645423,12.3673627 4.52954194,12.4433842 4.5314423,12.6308109 C4.54263619,13.7348251 4.16857272,14.9887541 3.40925187,16.3925978 C2.07690758,18.8558557 0.342401949,19.8728675 0.194186272,20.0281505 C0.0459705956,20.1834336 -0.0919268468,20.4390458 0.133811703,20.5694888 C0.359550253,20.6999319 2.04181567,20.6933535 2.89205158,20.1834336 C3.76840548,19.6578496 4.62747346,18.2269551 5.09797412,17.0871557 C5.56847477,15.9473563 6.16888301,13.8881848 6.26653732,13.3313291 C6.36419163,12.7744733 6.37087505,12.2456659 6.38634269,12.1771815 C6.41311843,12.0586297 6.47709547,12.0079617 6.57827382,12.0251775 C9.30745571,12.0251775 10.782908,12.0251775 11.0046308,12.0251775 C11.1849591,12.0251775 11.0978195,11.4626336 10.7664175,10.8859105 C10.4350156,10.3091875 10.0584527,10.1182471 9.89169277,10.0883844 C9.6488484,10.0448968 8.83228019,10.0231529 7.44198812,10.0231529 C6.94736579,9.91381238 6.65946102,9.79908571 6.57827382,9.67897293 C6.49708661,9.55886014 6.45244658,9.31814903 6.44435372,8.9568396 C6.49047387,6.75442588 6.51353395,5.55488861 6.51353395,5.35822779 C6.51353395,5.06323655 6.81390722,4.80430929 7.08131088,4.73795761 C7.25957999,4.69372315 7.54814764,4.69372315 7.94701385,4.73795761 C9.7058085,4.79716012 10.6153108,4.79716012 10.6755207,4.73795761 C10.7658355,4.64915384 10.217544,3.30710193 9.70674625,3.24662697 C9.36621443,3.20631033 7.60741451,3.20631033 4.43034651,3.24662697 C4.05576355,3.26356125 3.83166323,3.23899095 3.75804557,3.17291607 C3.68442791,3.10684118 3.68442791,2.90570192 3.75804557,2.56949827 C4.23328017,1.04850654 4.45738048,0.208386771 4.43034651,0.0491389508 C4.38979555,-0.189732779 2.68260957,1.02406265 2.47176382,1.24430105 Z" id="Path-5" fill="#FFFFFF"></path>
                        <path d="M5.85529381,15.1716928 L7.13440201,13.9821814 C8.69277537,16.0383786 9.55733924,17.2131264 9.72809363,17.5064249 C9.84946968,17.714908 9.8234719,17.8998513 9.81235757,18.0581626 C9.81167513,18.0678832 9.8110488,18.0775033 9.81051615,18.0870223 C9.8099835,18.0965414 9.82112737,18.3484211 9.81051615,18.5451352 C9.78916653,18.940921 9.78092836,19.3169831 9.62743342,19.4209747 C9.47393849,19.5249662 9.36469323,19.3699216 9.11183669,19.1557791 C8.94326566,19.0130175 7.85775136,17.6849887 5.85529381,15.1716928 Z" id="Path-6" fill="#FFFFFF"></path>
                        <polygon id="Path-7" fill="#FFFFFF" points="11.6349467 3.39453125 11.6349467 18.6909619 13.5503189 18.6938585 13.5503189 21.9922244 16.7493271 18.6938585 20 18.6938585 20 3.39453125"></polygon>
                        <polygon id="Path-8" fill="#4A4A4A" points="13.5740914 5.35734607 13.5740914 17.2895559 14.1915575 17.2895559 14.1915575 18.6394161 16.6414767 17.2882953 18.0131242 17.2895559 18.0131242 5.35734607"></polygon>
                    </g>
                </g>
            </g>
        </g>
    </g>
</svg>