<svg width="34" height="34" viewBox="0 0 34 34" xmlns="http://www.w3.org/2000/svg" xmlns:xlink="http://www.w3.org/1999/xlink"><title>163-Music-Icon-BW</title><defs><rect id="a" width="34" height="34" rx="8"/></defs><g fill="none" fill-rule="evenodd"><g><use fill="#FFF" xlink:href="#a"/><rect stroke="#4A4A4A" x=".5" y=".5" width="33" height="33" rx="8"/></g><path d="M18.992 15.444c0 .962-.785 1.745-1.749 1.745-1.07 0-1.66-.972-1.756-1.874-.182-1.721.72-2.657 1.508-3.139.32-.195.671-.347 1.039-.459 0 0 .85 2.698.916 3.117.073.461.042.61.042.61m4.177-4.17c-.94-.61-2.092-.945-3.279-1.004l-.265-.97.008.01-.028-.085-.078-.287c-.181-.829.147-1.224.316-1.366.03-.021.058-.044.09-.065.775-.513 1.876.31 1.938.359.49.47 1.384.587 1.867.105.488-.486.373-1.396-.115-1.882-.76-.758-3.09-1.973-5.075-.654-1.783 1.185-1.819 2.854-1.525 3.818l.356 1.303a6.888 6.888 0 0 0-1.69.735c-1.952 1.193-2.93 3.206-2.687 5.523.253 2.378 2.035 4.105 4.241 4.105 2.341 0 4.247-1.9 4.247-4.236-.032-.557-.026-.55-.1-1.049-.073-.486-.793-2.771-.793-2.771.442.102.855.268 1.212.499 4.027 2.61 2.35 6.765 2.276 6.945-1.108 2.655-3.529 4.24-6.636 4.348-2.025.072-3.966-.683-5.464-2.126a8.154 8.154 0 0 1-2.486-5.846c0-3.303 2.084-6.304 5.185-7.465.646-.241 1.167-.93.81-1.73-.28-.628-1.042-.844-1.688-.601C9.736 8.409 7 12.347 7 16.683c0 2.866 1.184 5.65 3.25 7.638 1.904 1.833 4.354 2.83 6.934 2.83.117 0 .235-.002.353-.007 4.066-.142 7.375-2.34 8.848-5.867.922-2.142 1.435-6.99-3.216-10.004" fill="#4A4A4A" fill-rule="nonzero"/></g></svg>