<svg width="133" height="34" viewBox="0 0 133 34" xmlns="http://www.w3.org/2000/svg" xmlns:xlink="http://www.w3.org/1999/xlink"><title>Alipay-PC</title><defs><rect id="a" width="133" height="34" rx="8"/></defs><g fill="none" fill-rule="evenodd"><g><use fill="#FFF" xlink:href="#a"/><rect stroke="#4A4A4A" x=".5" y=".5" width="132" height="33" rx="8"/></g><text font-family="PingFangTC-Medium, PingFang TC" font-size="12" font-weight="400" letter-spacing="1.14" fill="#4A4A4A"><tspan x="47.08" y="21">电脑用户点此</tspan></text><path d="M19.854 19.397c1.166-2.1 1.59-4.093 1.59-4.093h-3.919v-1.469h4.66v-.629h-4.66V11h-2.12v2.204h-4.237v.63h4.237v1.468h-3.603v.63h7.312c0 .104 0 .104-.106.209 0 .735-.53 1.783-.954 2.624-5.403-2.097-6.992-.837-7.417-.628-3.603 2.52-.212 5.667.317 5.562 3.815.84 6.252-.735 7.946-2.728.106.105.212.105.318.105C20.385 21.706 26 24.33 26 24.33v-3.148c-.848-.002-3.92-1.051-6.146-1.785zm-2.754.945c-2.649 3.357-5.827 2.308-6.356 2.098-1.271-.315-1.694-2.624-.106-3.36 2.65-.84 4.98.106 6.675.946-.107.21-.213.316-.213.316z" fill="#4A4A4A" fill-rule="nonzero"/></g></svg>