<svg width="34" height="34" viewBox="0 0 34 34" xmlns="http://www.w3.org/2000/svg" xmlns:xlink="http://www.w3.org/1999/xlink"><title>Apple-Podcast-Icon-BW</title><defs><rect id="a" width="34" height="34" rx="8"/></defs><g fill="none" fill-rule="evenodd"><g><use fill="#FFF" xlink:href="#a"/><rect stroke="#4A4A4A" x=".5" y=".5" width="33" height="33" rx="8"/></g><path d="M19.057 18.856c-.427-.45-1.176-.74-2.061-.74s-1.634.289-2.061.74c-.222.235-.34.476-.377.819-.073.664-.032 1.237.046 2.151.073.871.214 2.033.398 3.218.131.842.238 1.296.334 1.623.156.527.743.989 1.66.989.917 0 1.502-.461 1.66-.99.096-.324.203-.779.334-1.622.184-1.184.325-2.346.398-3.218.078-.914.118-1.487.047-2.151a1.304 1.304 0 0 0-.378-.82zm-4.385-4.01a2.327 2.327 0 1 0 4.655.001 2.327 2.327 0 0 0-4.655 0zm2.299-9.183c-5.443.015-9.903 4.43-9.97 9.873-.055 4.41 2.76 8.18 6.69 9.562a.135.135 0 0 0 .177-.146c-.052-.341-.1-.685-.145-1.024a.342.342 0 0 0-.201-.27c-3.107-1.358-5.275-4.473-5.241-8.081.046-4.735 3.912-8.596 8.648-8.635 4.84-.04 8.792 3.888 8.792 8.72 0 3.572-2.16 6.65-5.242 7.995a.342.342 0 0 0-.202.27c-.044.338-.092.683-.144 1.024-.016.1.08.18.177.146 3.892-1.369 6.69-5.082 6.69-9.436-.001-5.522-4.503-10.014-10.03-9.998zm-.182 4.588a5.424 5.424 0 0 1 5.633 5.415c0 1.555-.659 2.96-1.713 3.95a.418.418 0 0 0-.13.326c.02.372.012.734-.012 1.141a.132.132 0 0 0 .206.117 6.697 6.697 0 0 0 2.928-5.534c0-3.782-3.15-6.842-6.964-6.694-3.544.138-6.389 3.06-6.433 6.608a6.698 6.698 0 0 0 2.928 5.621.131.131 0 0 0 .204-.117 9.344 9.344 0 0 1-.01-1.142.414.414 0 0 0-.132-.326 5.399 5.399 0 0 1-1.71-4.095c.077-2.84 2.367-5.16 5.205-5.27z" fill="#4A4A4A" fill-rule="nonzero"/></g></svg>