<svg width="34" height="34" viewBox="0 0 34 34" xmlns="http://www.w3.org/2000/svg" xmlns:xlink="http://www.w3.org/1999/xlink"><title>Email-Icon-BW</title><defs><rect id="a" width="34" height="34" rx="8"/></defs><g fill="none" fill-rule="evenodd"><g><use fill="#FFF" xlink:href="#a"/><rect stroke="#4A4A4A" x=".5" y=".5" width="33" height="33" rx="8"/></g><path d="M25.571 23.182v-8.727a6.593 6.593 0 0 1-.77.75c-1.994 1.56-3.579 2.84-4.754 3.84-.38.326-.688.58-.926.762-.239.182-.56.365-.966.551-.405.186-.787.278-1.144.278h-.022c-.357 0-.739-.092-1.144-.278a5.132 5.132 0 0 1-.966-.551 22.01 22.01 0 0 1-.926-.762c-1.175-1-2.76-2.28-4.754-3.84a6.593 6.593 0 0 1-.77-.75v8.727c0 .098.035.184.106.256a.34.34 0 0 0 .25.107h16.43a.34.34 0 0 0 .25-.107.353.353 0 0 0 .106-.256zm0-11.943v-.279l-.005-.147-.034-.143-.061-.102-.1-.085-.157-.028H8.786a.34.34 0 0 0-.251.108.353.353 0 0 0-.106.255c0 1.273.546 2.349 1.64 3.227 1.436 1.152 2.928 2.353 4.476 3.603l.39.335c.216.186.387.328.514.426.126.099.292.218.496.358.205.14.393.244.564.313.171.068.331.102.48.102h.022c.149 0 .309-.034.48-.102.171-.069.36-.173.564-.313.204-.14.37-.26.496-.358.127-.098.298-.24.514-.426l.39-.335c1.548-1.25 3.04-2.451 4.476-3.603.402-.325.775-.763 1.121-1.312.346-.55.52-1.047.52-1.494zm1.429-.42v12.363c0 .5-.175.928-.525 1.284-.35.356-.77.534-1.26.534H8.784c-.49 0-.91-.178-1.26-.534A1.767 1.767 0 0 1 7 23.182V10.818c0-.5.175-.928.525-1.284.35-.356.77-.534 1.26-.534h16.43c.49 0 .91.178 1.26.534.35.356.525.784.525 1.284z" fill="#4A4A4A" fill-rule="nonzero"/></g></svg>