<svg width="36" height="36" viewBox="0 0 36 36" xmlns="http://www.w3.org/2000/svg"><title>Instagram-Icon-BW</title><g fill-rule="nonzero" fill="none"><path d="M17.88 1c-7.045 0-9.106.007-9.506.04-1.446.122-2.345.351-3.325.843a6.739 6.739 0 0 0-1.94 1.43C2.04 4.433 1.39 5.811 1.156 7.448c-.114.796-.147.958-.154 5.019-.002 1.354 0 3.135 0 5.525 0 7.093.008 9.167.042 9.57.117 1.417.337 2.309.804 3.285a7.12 7.12 0 0 0 4.607 3.792c.696.18 1.464.28 2.45.327.418.018 4.677.031 8.939.031 4.262 0 8.523-.005 8.93-.026 1.143-.054 1.806-.144 2.54-.335a7.077 7.077 0 0 0 4.606-3.8c.458-.952.69-1.878.796-3.221.022-.293.032-4.964.032-9.628s-.01-9.326-.033-9.619c-.107-1.365-.339-2.283-.812-3.253a6.737 6.737 0 0 0-1.444-1.994c-1.117-1.075-2.482-1.729-4.109-1.965-.788-.115-.945-.149-4.978-.156h-5.492z" stroke="#4A4A4A" fill="#FFF"/><path d="M17.871 5.446c-3.383 0-3.808.015-5.137.076-1.326.061-2.231.273-3.023.583-.82.32-1.515.75-2.207 1.448a6.168 6.168 0 0 0-1.438 2.223c-.309.799-.52 1.711-.579 3.047-.06 1.34-.075 1.768-.075 5.177 0 3.41.015 3.836.075 5.175.061 1.337.271 2.249.58 3.047a6.156 6.156 0 0 0 1.436 2.224 6.096 6.096 0 0 0 2.206 1.449c.793.31 1.698.522 3.024.583 1.33.06 1.754.076 5.137.076 3.383 0 3.807-.015 5.136-.076 1.326-.061 2.232-.273 3.025-.583a6.09 6.09 0 0 0 2.205-1.45 6.168 6.168 0 0 0 1.438-2.223c.306-.798.516-1.71.579-3.047.06-1.339.075-1.766.075-5.175 0-3.41-.016-3.837-.075-5.176-.063-1.337-.273-2.25-.58-3.047a6.166 6.166 0 0 0-1.437-2.224 6.084 6.084 0 0 0-2.206-1.448c-.794-.31-1.7-.522-3.026-.583-1.33-.06-1.752-.076-5.137-.076h.004zm-1.117 2.262h1.117c3.327 0 3.72.012 5.034.073 1.215.056 1.874.26 2.313.432.582.228.996.5 1.432.939a3.9 3.9 0 0 1 .932 1.444c.17.442.374 1.106.43 2.33.059 1.323.072 1.72.072 5.071 0 3.35-.013 3.748-.073 5.071-.055 1.224-.258 1.889-.429 2.33a3.885 3.885 0 0 1-.932 1.443 3.85 3.85 0 0 1-1.432.939c-.438.172-1.098.376-2.313.432-1.313.06-1.707.074-5.034.074-3.326 0-3.72-.014-5.034-.074-1.214-.056-1.874-.26-2.313-.433a3.856 3.856 0 0 1-1.433-.938 3.894 3.894 0 0 1-.932-1.443c-.17-.442-.374-1.107-.43-2.33-.059-1.324-.07-1.722-.07-5.074s.011-3.748.07-5.071c.056-1.224.26-1.889.43-2.331a3.893 3.893 0 0 1 .932-1.444c.436-.44.852-.711 1.433-.94.439-.172 1.099-.376 2.313-.432 1.15-.052 1.595-.068 3.917-.07v.002zm7.767 2.085a1.5 1.5 0 0 0-1.495 1.506c0 .832.67 1.506 1.495 1.506.826 0 1.495-.674 1.495-1.506s-.67-1.507-1.495-1.507zm-6.65 1.76c-3.533 0-6.397 2.887-6.397 6.447s2.864 6.446 6.397 6.446c3.533 0 6.397-2.886 6.397-6.446 0-3.56-2.864-6.447-6.397-6.447zm0 2.262c2.294 0 4.153 1.874 4.153 4.185 0 2.311-1.86 4.185-4.153 4.185-2.293 0-4.152-1.874-4.152-4.185 0-2.311 1.859-4.185 4.152-4.185z" fill="#4A4A4A"/></g></svg>