<svg width="34" height="34" viewBox="0 0 34 34" xmlns="http://www.w3.org/2000/svg" xmlns:xlink="http://www.w3.org/1999/xlink"><title>Overcast-Icon-BW</title><defs><rect id="a" width="34" height="34" rx="8"/></defs><g fill="none" fill-rule="evenodd"><g><use fill="#FFF" xlink:href="#a"/><rect stroke="#4A4A4A" x=".5" y=".5" width="33" height="33" rx="8"/></g><path d="M17 27c-5.542 0-10-4.458-10-10S11.458 7 17 7s10 4.458 10 10-4.458 10-10 10zm0-3.958l.75-.75-.75-2.875-.75 2.875.75.75zM16.042 23l-.375 1.417.875-.875-.5-.542zm1.916 0l-.5.5.875.875L17.958 23zm.709 2.583L17 23.917l-1.667 1.666c.542.084 1.084.167 1.667.167a7.3 7.3 0 0 0 1.667-.167zM17 8.25A8.749 8.749 0 0 0 8.25 17a8.707 8.707 0 0 0 5.875 8.25L16 18.292c-.417-.292-.667-.792-.667-1.334 0-.916.75-1.666 1.667-1.666s1.667.75 1.667 1.666c0 .542-.25 1-.667 1.334l1.875 6.958A8.707 8.707 0 0 0 25.75 17 8.749 8.749 0 0 0 17 8.25zm5.708 13.083a.646.646 0 0 1-.875.125.566.566 0 0 1-.125-.833s1.125-1.5 1.125-3.625-1.125-3.625-1.125-3.625a.566.566 0 0 1 .125-.833.646.646 0 0 1 .875.125c.084.083 1.375 1.791 1.375 4.333 0 2.542-1.291 4.25-1.375 4.333zm-3.041-1.625c-.25-.25-.209-.708.041-.958 0 0 .625-.667.625-1.75s-.625-1.708-.625-1.75c-.25-.25-.25-.667-.041-.958.25-.292.625-.292.875-.042.041.042 1.041 1.083 1.041 2.75s-1 2.708-1.041 2.75c-.25.25-.625.208-.875-.042zm-5.334 0c-.25.25-.625.292-.875.042-.041-.083-1.041-1.083-1.041-2.75s1-2.667 1.041-2.75c.25-.25.667-.25.875.042.25.25.209.708-.041.958 0 .042-.625.667-.625 1.75s.625 1.75.625 1.75c.25.25.291.667.041.958zm-2.166 1.75a.646.646 0 0 1-.875-.125c-.084-.083-1.375-1.791-1.375-4.333 0-2.542 1.291-4.25 1.375-4.333a.646.646 0 0 1 .875-.125.566.566 0 0 1 .125.833s-1.125 1.5-1.125 3.625 1.125 3.625 1.125 3.625c.208.25.125.625-.125.833z" fill="#4A4A4A"/></g></svg>