<svg width="134" height="34" viewBox="0 0 134 34" xmlns="http://www.w3.org/2000/svg" xmlns:xlink="http://www.w3.org/1999/xlink"><title>Paypal-Phone</title><defs><rect id="b" width="133.113" height="34" rx="8"/><filter x="0%" y="0%" width="100%" height="100%" filterUnits="objectBoundingBox" id="a"><feOffset in="SourceAlpha" result="shadowOffsetOuter1"/><feComposite in="shadowOffsetOuter1" in2="SourceAlpha" operator="out" result="shadowOffsetOuter1"/><feColorMatrix values="0 0 0 0 0 0 0 0 0 0 0 0 0 0 0 0 0 0 0.5 0" in="shadowOffsetOuter1"/></filter></defs><g fill="none" fill-rule="evenodd"><g><use fill="#000" filter="url(#a)" xlink:href="#b"/><use fill="#FFF" xlink:href="#b"/><rect stroke="#4A4A4A" x=".5" y=".5" width="132.113" height="33" rx="8"/></g><text font-family="PingFangTC-Medium, PingFang TC" font-size="12" font-weight="400" letter-spacing="1.14" fill="#4A4A4A"><tspan x="73.22" y="21">点此捐款</tspan></text><path d="M25.185 15.089c.128.614.114 1.36-.043 2.238-.621 3.248-2.639 4.872-6.052 4.872h-.471a.688.688 0 0 0-.472.181.803.803 0 0 0-.257.467l-.042.208-.59 3.797-.021.165a.791.791 0 0 1-.262.466.707.707 0 0 1-.477.181h-2.689a.424.424 0 0 1-.353-.165.503.503 0 0 1-.096-.395c.064-.41.158-1.024.283-1.843a479.273 479.273 0 0 1 .573-3.682l.29-1.838c.035-.27.189-.406.46-.406h1.403c.95.015 1.793-.062 2.528-.23 1.25-.285 2.275-.812 3.074-1.58.729-.695 1.282-1.595 1.66-2.7.172-.512.297-.998.376-1.46.007-.043.016-.07.026-.081a.037.037 0 0 1 .038-.011.214.214 0 0 1 .064.038c.564.432.914 1.024 1.05 1.778zm-1.843-3.095c0 .783-.164 1.646-.492 2.59-.572 1.704-1.65 2.857-3.235 3.456-.807.293-1.707.447-2.7.461 0 .008-.32.011-.963.011l-.964-.01c-.714 0-1.136.35-1.264 1.053-.015.058-.318 1.997-.91 5.816-.008.073-.05.11-.13.11h-3.16a.493.493 0 0 1-.39-.182.516.516 0 0 1-.123-.422l2.485-16.142a.866.866 0 0 1 .294-.527.82.82 0 0 1 .552-.208h6.405c.243 0 .591.048 1.045.143.453.095.851.212 1.194.35.764.3 1.348.75 1.751 1.35.404.6.605 1.317.605 2.151z" fill="#4A4A4A" fill-rule="nonzero"/></g></svg>