<svg width="488" height="105" viewBox="0 0 488 105" xmlns="http://www.w3.org/2000/svg"><title>Group</title><g fill="none" fill-rule="evenodd"><rect fill="#000" width="488" height="105" rx="35"/><text font-family="PingFangTC-Regular, PingFang TC" font-size="36" letter-spacing="1.14" fill="#FFF"><tspan x="107.146" y="64">点此通过 Paypal 捐款</tspan></text><path d="M87.122 43.484c.438 2.122.39 4.7-.146 7.732-2.116 11.218-8.986 16.828-20.611 16.828h-1.606c-.608 0-1.143.208-1.605.625-.462.417-.754.954-.875 1.61l-.146.721-2.007 13.114-.072.568c-.122.657-.42 1.194-.894 1.611a2.39 2.39 0 0 1-1.624.625H48.38c-.511 0-.912-.19-1.204-.568-.292-.38-.401-.834-.328-1.365.218-1.414.54-3.537.966-6.367.426-2.83.748-4.952.967-6.367l.985-6.349.985-6.348c.122-.935.644-1.402 1.569-1.402h4.779c3.234.05 6.104-.215 8.609-.796 4.256-.986 7.746-2.805 10.47-5.458 2.48-2.4 4.365-5.508 5.654-9.324.584-1.768 1.01-3.449 1.277-5.04.025-.152.055-.247.091-.285a.124.124 0 0 1 .128-.038.728.728 0 0 1 .219.133c1.921 1.49 3.113 3.537 3.575 6.14zm-6.275-10.688c0 2.704-.559 5.685-1.678 8.945-1.945 5.887-5.618 9.866-11.017 11.938-2.748 1.011-5.812 1.542-9.193 1.592 0 .025-1.094.038-3.283.038l-3.283-.038c-2.432 0-3.867 1.213-4.305 3.639-.049.202-1.082 6.898-3.1 20.087-.025.253-.171.38-.439.38H33.788c-.536 0-.98-.21-1.332-.626a1.801 1.801 0 0 1-.42-1.46L40.5 21.54a3 3 0 0 1 1.003-1.819 2.767 2.767 0 0 1 1.879-.72h21.815c.827 0 2.013.164 3.557.493 1.544.328 2.9.732 4.068 1.213 2.602 1.035 4.59 2.59 5.964 4.661 1.374 2.072 2.061 4.548 2.061 7.429z" fill-rule="nonzero" fill="#FFF"/></g></svg>