<svg width="34" height="34" viewBox="0 0 34 34" xmlns="http://www.w3.org/2000/svg" xmlns:xlink="http://www.w3.org/1999/xlink"><title>Play-Music-Icon-BW</title><defs><rect id="a" width="34" height="34" rx="8"/></defs><g fill="none" fill-rule="evenodd"><g><use fill="#FFF" xlink:href="#a"/><rect stroke="#4A4A4A" x=".5" y=".5" width="33" height="33" rx="8"/></g><g transform="translate(9 6)" fill-rule="nonzero"><path d="M15.792 8.969L1.896 1.073C1.302.74.77.77.448 1.083c-.23.22-.354.573-.354 1.032v15.76c0 .458.135.813.354 1.031.333.323.854.354 1.448.01l13.896-7.895c1-.563 1-1.48 0-2.052z" stroke="#000"/><path d="M14.417 11.813A6.673 6.673 0 0 0 8 3.332a6.666 6.666 0 1 0-1.73 13.104l8.147-4.624z" fill="#4A4A4A"/><circle fill="#FFF" cx="8" cy="10" r="4.167"/><path d="M8 7.813v2.562a.967.967 0 0 0-1.458.833c0 .542.437.97.968.97.542 0 1.01-.438 1.01-.97V8.854h.938V7.813H8z" fill="#4A4A4A"/></g></g></svg>