<svg width="34" height="34" viewBox="0 0 34 34" xmlns="http://www.w3.org/2000/svg" xmlns:xlink="http://www.w3.org/1999/xlink"><title>Pocket-Casts-Icon-BW</title><defs><rect id="a" width="34" height="34" rx="8"/></defs><g fill="none" fill-rule="evenodd"><g><use fill="#FFF" xlink:href="#a"/><rect stroke="#4A4A4A" x=".5" y=".5" width="33" height="33" rx="8"/></g><path d="M16.597 24.052a7.214 7.214 0 0 1-6.968-7.21c0-3.96 3.254-7.213 7.214-7.213a7.214 7.214 0 0 1 7.21 6.968.255.255 0 0 0 .255.246h2.098c.145 0 .26-.12.256-.264-.14-5.303-4.482-9.56-9.82-9.56a9.811 9.811 0 0 0-9.822 9.824c0 5.337 4.256 9.68 9.56 9.82a.256.256 0 0 0 .263-.256v-2.099a.255.255 0 0 0-.246-.256zm.246-12.888a5.667 5.667 0 0 0-5.68 5.679 5.68 5.68 0 0 0 5.412 5.673.256.256 0 0 0 .268-.256v-1.666a.26.26 0 0 0-.238-.255 3.505 3.505 0 1 1 3.734-3.734.26.26 0 0 0 .255.238h1.666a.256.256 0 0 0 .255-.268 5.68 5.68 0 0 0-5.672-5.411z" fill="#4A4A4A" fill-rule="nonzero"/></g></svg>