<svg width="34" height="34" viewBox="0 0 34 34" xmlns="http://www.w3.org/2000/svg" xmlns:xlink="http://www.w3.org/1999/xlink"><title>SoundCloud-Icon-BW</title><defs><rect id="a" width="34" height="34" rx="8"/></defs><g fill="none" fill-rule="evenodd"><g><use fill="#FFF" xlink:href="#a"/><rect stroke="#4A4A4A" x=".5" y=".5" width="33" height="33" rx="8"/></g><path d="M13.806 21.784l.138-2.169-.138-4.707a.26.26 0 0 0-.066-.153.184.184 0 0 0-.143-.063.188.188 0 0 0-.139.063.212.212 0 0 0-.06.153l-.122 4.707.122 2.169a.24.24 0 0 0 .065.149.18.18 0 0 0 .134.058c.128 0 .197-.069.209-.207zm2.569-.261l.095-1.899-.104-5.274a.24.24 0 0 0-.113-.216.254.254 0 0 0-.138-.045.254.254 0 0 0-.14.045.24.24 0 0 0-.112.216l-.009.054-.087 5.211.096 2.124v.009c0 .06.017.111.052.153a.243.243 0 0 0 .2.099.237.237 0 0 0 .173-.081.218.218 0 0 0 .078-.18l.009-.216zm-9.071-3.06l.173 1.152-.173 1.134c-.012.054-.038.081-.078.081s-.067-.027-.078-.081L7 19.615l.148-1.152c.011-.054.037-.081.078-.081.04 0 .066.027.078.081zm.746-.711l.226 1.863-.226 1.827c-.011.054-.04.081-.086.081-.053 0-.079-.03-.079-.09l-.2-1.818.2-1.863c0-.054.026-.081.079-.081.046 0 .075.027.086.081zm.799-.342l.217 2.205-.217 2.133c0 .066-.032.099-.096.099-.057 0-.092-.033-.104-.099l-.182-2.133.182-2.205c.012-.072.047-.108.104-.108.064 0 .096.036.096.108zm.816-.063l.2 2.268-.2 2.196c-.012.078-.052.117-.122.117-.075 0-.112-.039-.112-.117l-.183-2.196.183-2.268c0-.078.037-.117.112-.117.07 0 .11.039.122.117zm.816.162l.182 2.106-.182 2.214c-.012.096-.058.144-.139.144a.123.123 0 0 1-.091-.04.143.143 0 0 1-.04-.104l-.173-2.214.174-2.106c0-.036.013-.068.039-.095a.123.123 0 0 1 .091-.04c.081 0 .127.045.139.135zm.816-1.314l.182 3.42-.182 2.214c0 .042-.015.08-.044.112a.134.134 0 0 1-.104.05c-.092 0-.144-.054-.156-.162l-.156-2.214.156-3.42c.012-.108.064-.162.156-.162.04 0 .076.017.104.05.03.033.044.07.044.112zm.816-.774l.165 4.212-.165 2.196a.168.168 0 0 1-.048.121.156.156 0 0 1-.117.05c-.104 0-.162-.057-.174-.171l-.139-2.196.14-4.212c.01-.114.069-.171.173-.171a.168.168 0 0 1 .165.171zm.85-.36l.157 4.554-.156 2.178c-.012.126-.076.189-.191.189-.11 0-.171-.063-.183-.189l-.139-2.178.14-4.554c0-.054.018-.1.056-.14a.172.172 0 0 1 .126-.058c.052 0 .095.02.13.058a.243.243 0 0 1 .06.14zm1.685-.036l.13 4.59-.13 2.151a.22.22 0 0 1-.066.157.205.205 0 0 1-.299.005.258.258 0 0 1-.07-.162l-.121-2.151.122-4.59c0-.066.021-.12.065-.162a.212.212 0 0 1 .152-.063c.057 0 .108.021.151.063a.216.216 0 0 1 .066.162zm.859.171l.121 4.428-.121 2.124a.238.238 0 0 1-.07.171.221.221 0 0 1-.164.072.221.221 0 0 1-.165-.072.274.274 0 0 1-.078-.171l-.105-2.124.105-4.428a.283.283 0 0 1 .078-.18.221.221 0 0 1 .325 0 .295.295 0 0 1 .074.18zm1.84 4.428l-.121 2.079a.274.274 0 0 1-.078.198.255.255 0 0 1-.191.081.255.255 0 0 1-.191-.081.31.31 0 0 1-.087-.198l-.052-1.026-.052-1.053.104-5.724v-.027a.345.345 0 0 1 .104-.216.27.27 0 0 1 .174-.063c.046 0 .09.015.13.045.08.048.127.126.139.234l.121 5.751zM27 19.453c0 .702-.24 1.3-.72 1.795a2.332 2.332 0 0 1-1.737.743H17.72a.33.33 0 0 1-.19-.099.274.274 0 0 1-.079-.198v-8.091c0-.138.081-.237.243-.297A4.06 4.06 0 0 1 19.266 13c1.128 0 2.106.394 2.934 1.183.827.79 1.29 1.76 1.389 2.912.306-.132.625-.198.954-.198.677 0 1.256.249 1.737.747.48.498.72 1.101.72 1.809z" fill="#4A4A4A" fill-rule="nonzero"/></g></svg>