<svg width="34" height="34" viewBox="0 0 34 34" xmlns="http://www.w3.org/2000/svg" xmlns:xlink="http://www.w3.org/1999/xlink"><title>Telegram-Channel-Icon-BW</title><defs><rect id="a" width="34" height="34" rx="8"/></defs><g fill="none" fill-rule="evenodd"><g><use fill="#FFF" xlink:href="#a"/><rect stroke="#4A4A4A" x=".5" y=".5" width="33" height="33" rx="8"/></g><path d="M26.581 15.077a1.384 1.384 0 0 0-1.01-.415v-4.246c0-.384-.141-.716-.424-.996A1.38 1.38 0 0 0 24.143 9c-3.43 2.831-6.764 4.247-10 4.247H8.786c-.491 0-.912.173-1.261.52-.35.346-.525.763-.525 1.25v2.122c0 .487.175.904.524 1.25.35.347.77.52 1.262.52h1.361a5.702 5.702 0 0 0-.245 1.222c-.037.417-.05.78-.04 1.09.012.309.068.681.168 1.116.1.435.186.763.257.984.07.222.19.57.357 1.045.167.476.277.798.329.968.342.31.833.514 1.473.614.64.099 1.267.057 1.88-.127.615-.185 1.03-.49 1.245-.918a18.703 18.703 0 0 1-.686-.559 4.825 4.825 0 0 1-.536-.553 2.05 2.05 0 0 1-.374-.608 1.487 1.487 0 0 1-.067-.641c.023-.24.108-.482.257-.725a1.495 1.495 0 0 1-.446-1.023c-.015-.394.1-.765.346-1.111.245-.347.584-.59 1.015-.73 2.94.243 5.96 1.644 9.063 4.203.387 0 .722-.14 1.004-.42.283-.28.424-.613.424-.996v-4.247c.395 0 .732-.138 1.01-.414.28-.277.419-.61.419-1.001 0-.39-.14-.725-.419-1.001zm-2.438 6.265c-2.91-2.204-5.767-3.462-8.572-3.771v-2.986c2.783-.302 5.64-1.567 8.572-3.793v10.55z" fill="#4A4A4A" fill-rule="nonzero"/></g></svg>