<svg width="34" height="34" viewBox="0 0 34 34" xmlns="http://www.w3.org/2000/svg" xmlns:xlink="http://www.w3.org/1999/xlink"><title>Telegram-Chat-Icon-BW</title><defs><rect id="a" width="34" height="34" rx="8"/></defs><g fill="none" fill-rule="evenodd"><g><use fill="#FFF" xlink:href="#a"/><rect stroke="#4A4A4A" x=".5" y=".5" width="33" height="33" rx="8"/></g><path d="M26.375 7.66c-.321-.42-.82-.66-1.368-.66-.354 0-.72.099-1.09.293L8.18 15.543c-1.119.588-1.196 1.473-1.178 1.825.018.355.189 1.225 1.362 1.691l2.011.796a3.43 3.43 0 0 0 1.268.229c.072 0 .142-.01.214-.014-.027.036-.06.063-.086.1-.375.561-.393 1.321-.054 2.14a167.222 167.222 0 0 1 1.352 3.05c.197.513.7.867 1.25.867.85 0 1.1-.408 2.49-2.67.108-.165.349-.55.39-1.04l.445.179 2.228.908 1.043.428a1.338 1.338 0 0 0 .694.196c1.014 0 1.257-.878 1.387-1.349.065-.232.154-.555.25-.91L26.643 9.48c.256-.942-.059-1.545-.269-1.82zM15.687 22.848s-1.261 2.052-1.369 2.052c-.003 0-.004-.001-.005-.004-.124-.333-1.37-3.094-1.37-3.094-.23-.553-.188-1.027.207-1.027.086 0 .19.023.311.073l.968.503c.161.11.338.206.532.283l.049.018.09.046c.748.396.986.539.587 1.15zm9.675-13.715l-3.397 12.487a80.5 80.5 0 0 1-.355 1.28c-.003-.002-.006-.015-.006-.018 0-.004-.554-.23-1.231-.508l-2.23-.908a189.85 189.85 0 0 0-2.468-.98l-.113-.045-.416-.216c-.413-.317-.449-.838-.034-1.28l6.898-7.386c.277-.296.381-.448.321-.448-.047 0-.2.098-.457.299l-8.727 6.884c-.381.297-.96.463-1.503.463-.279 0-.55-.044-.78-.135l-2.01-.795c-.679-.269-.704-.765-.058-1.106l15.739-8.253c.181-.094.34-.139.472-.139.339 0 .493.296.355.804z" fill="#4A4A4A" fill-rule="nonzero"/></g></svg>