<svg width="35" height="34" viewBox="0 0 35 34" xmlns="http://www.w3.org/2000/svg" xmlns:xlink="http://www.w3.org/1999/xlink"><title>Tudou-Icon-BW</title><defs><rect id="a" width="35" height="34" rx="8"/></defs><g fill="none" fill-rule="evenodd"><g><use fill="#FFF" xlink:href="#a"/><rect stroke="#4A4A4A" x=".5" y=".5" width="34" height="33" rx="8"/></g><g fill="#4A4A4A" fill-rule="nonzero"><path d="M15.782 8.067c-1.867.214-3.745 1.034-5.204 2.27-1.957 1.656-3.19 4.006-3.483 6.62-.05.46-.05 1.602 0 2.061.258 2.287 1.229 4.37 2.782 5.964a9.797 9.797 0 0 0 4.144 2.547 10.02 10.02 0 0 0 4.875.23c3.565-.74 6.464-3.455 7.47-6.997.184-.642.274-1.137.356-1.902.024-.258.027-1.613.004-1.744a3.192 3.192 0 0 1-.043-.356c-.059-.587-.286-1.526-.54-2.239-.297-.836-.99-2.084-1.526-2.746-.982-1.216-2.148-2.155-3.455-2.781a9.59 9.59 0 0 0-3.13-.916c-.51-.059-1.77-.067-2.25-.011zm2.19 1.897c2.689.4 4.955 2.065 6.109 4.498a8.145 8.145 0 0 1-.532 7.984c-1.182 1.802-2.994 3.023-5.15 3.47-.48.1-.598.112-1.463.112-.931.004-1.088-.012-1.76-.163-2.936-.658-5.28-2.96-6.007-5.912a7.254 7.254 0 0 1-.231-2.024c.004-.745.063-1.264.211-1.867.587-2.353 2.11-4.275 4.226-5.325 1.21-.602 2.407-.868 3.698-.832.356.012.759.04.9.06z"/><path d="M12.612 14.779c-.696.194-1.303.681-1.6 1.295-.137.274-.294.813-.258.856.007.008.137-.032.29-.087.684-.25 1.251-.345 2.116-.349.536 0 .787.016 1.143.084.461.083 1.013.241 1.216.348.063.032.122.048.134.036.011-.008-.016-.163-.063-.337a2.47 2.47 0 0 0-1.57-1.767c-.367-.139-1.056-.174-1.408-.08zM20.027 14.779c-.947.21-1.722 1.05-1.878 2.032l-.027.167.207-.08c1.303-.523 3.032-.55 4.363-.075.176.064.329.115.34.115.032 0-.043-.337-.125-.578-.203-.575-.657-1.098-1.186-1.36-.18-.09-.43-.19-.56-.221-.28-.072-.813-.072-1.134 0zM11.376 18.4c-.501.23-.497 1.01.008 1.252l.14.068-.152.07c-.364.167-.49.686-.247 1.031.098.139.372.277.552.277a.704.704 0 0 0 .642-.471c.027-.087.031-.087.098.06.297.673 1.29.455 1.29-.282a.67.67 0 0 0-.379-.618c-.176-.087-.18-.091-.086-.119.407-.107.595-.618.368-1.01-.29-.5-1.096-.404-1.213.15l-.027.127-.051-.15a.581.581 0 0 0-.352-.385.647.647 0 0 0-.591 0zm1.158 1.114c.16.162.047.475-.172.475a.276.276 0 0 1-.27-.277c0-.242.278-.365.442-.198z"/></g></g></svg>