<svg width="34" height="34" viewBox="0 0 34 34" xmlns="http://www.w3.org/2000/svg" xmlns:xlink="http://www.w3.org/1999/xlink"><title>Twitter-Icon-BW</title><defs><rect id="a" width="34" height="34" rx="8"/></defs><g fill="none" fill-rule="evenodd"><g><use fill="#FFF" xlink:href="#a"/><rect stroke="#4A4A4A" x=".5" y=".5" width="33" height="33" rx="8"/></g><path d="M13.315 24.969c7.497 0 11.597-6.118 11.597-11.424 0-.173-.004-.346-.012-.519a8.221 8.221 0 0 0 2.034-2.079c-.73.32-1.517.535-2.341.633a4.04 4.04 0 0 0 1.792-2.221 8.25 8.25 0 0 1-2.588.974 4.1 4.1 0 0 0-2.975-1.268c-2.251 0-4.076 1.798-4.076 4.014 0 .315.035.622.105.916A11.633 11.633 0 0 1 8.45 9.8a3.958 3.958 0 0 0-.552 2.018c0 1.393.72 2.623 1.814 3.342a4.093 4.093 0 0 1-1.846-.502v.051c0 1.944 1.405 3.568 3.27 3.936a4.14 4.14 0 0 1-1.841.069 4.073 4.073 0 0 0 3.807 2.788 8.256 8.256 0 0 1-5.062 1.719c-.329 0-.653-.019-.972-.056a11.666 11.666 0 0 0 6.248 1.804" fill="#4A4A4A" fill-rule="nonzero"/></g></svg>