<svg width="34" height="34" viewBox="0 0 34 34" xmlns="http://www.w3.org/2000/svg" xmlns:xlink="http://www.w3.org/1999/xlink"><title>Weibo-Icon-BW</title><defs><rect id="a" width="34" height="34" rx="8"/></defs><g fill="none" fill-rule="evenodd"><g><use fill="#FFF" xlink:href="#a"/><rect stroke="#4A4A4A" x=".5" y=".5" width="33" height="33" rx="8"/></g><path d="M21.638 17.615c-.275-.081-.463-.137-.32-.496.312-.778.344-1.45.007-1.929-.633-.899-2.364-.85-4.347-.024 0-.001-.623.27-.464-.22.305-.977.259-1.793-.216-2.265-1.076-1.071-3.938.04-6.393 2.48C8.067 16.99 7 18.929 7 20.604c0 3.204 4.132 5.348 8.175 5.348 5.3 0 8.825-3.257 8.825-5.688 0-1.47-1.244-2.303-2.362-2.648zm-6.452 6.9c-3.226.312-6.01-1.12-6.22-3.201-.21-2.08 2.236-4.021 5.462-4.335 3.226-.313 6.01 1.12 6.22 3.2.209 2.081-2.236 4.022-5.462 4.335zM26.9 15.005c-.002-3.236-2.687-5.86-6-5.86-.387 0-.7.307-.7.684 0 .378.313.684.7.684 2.54 0 4.6 2.013 4.6 4.495 0 .378.314.684.7.684.387 0 .7-.306.7-.684v-.003zm-2.781-.1c-.32-1.526-1.551-2.729-3.113-3.042a.7.7 0 0 0-.826.532.684.684 0 0 0 .544.808c1.015.203 1.816.985 2.023 1.977a.7.7 0 0 0 .827.532.685.685 0 0 0 .545-.807zM13.53 19.017c-1.3.255-2.176 1.32-1.959 2.378.218 1.058 1.448 1.709 2.747 1.453 1.3-.255 2.177-1.32 1.959-2.377-.217-1.058-1.448-1.71-2.747-1.454z" fill="#4A4A4A" fill-rule="nonzero"/></g></svg>