<svg width="34" height="34" viewBox="0 0 34 34" xmlns="http://www.w3.org/2000/svg" xmlns:xlink="http://www.w3.org/1999/xlink"><title>Ximalaya-Icon-BW</title><defs><rect id="a" width="34" height="34" rx="8"/></defs><g fill="none" fill-rule="evenodd"><g><use fill="#FFF" xlink:href="#a"/><rect stroke="#4A4A4A" x=".5" y=".5" width="33" height="33" rx="8"/></g><g fill="#4A4A4A"><path d="M7.747 23.189c-.026-8.78-.026-13.242 0-13.387.039-.217.132-.394.572-.753.293-.24.7-.39 1.222-.455h3.582c1.556 0 1.6.765 1.757.953.105.124.177.443.217.956v13.216c.012.282-.06.627-.217 1.036-.122.319-.433.556-.82.697-.388.142-.666.133-.758.131a8.709 8.709 0 0 0-.328 0c-.299-.003-.482-.013-.548-.029-.067-.016-.107-.05-.12-.102.37-.037.642-.198.817-.482.263-.427.312-1.06.31-1.115V11.286c.024-.37-.032-.63-.166-.783-.2-.229-.51-.205-.665-.205-1.691.004-2.126-.025-2.497 0-.281.02-.385.117-.425.137-.194.091-.257.275-.257.503 0 6.335-.015 9.992-.015 10.987 0 .898.012.973 0 1.076-.006.056 0 .115 0 .23 0 .063.007.215.063.337.048.103.144.18.184.207.193.13.4.087.532.08.355-.02.708.001.79.035.084.033.206.082.362.17.141.08.284.243.37.412.18.354.017.706 0 .753-.05.14-.31.33-.586.344-.961.048-1.647.042-1.974 0-.512-.066-.562-.162-.704-.29-.494-.445-.726-1.141-.698-2.09zM16.59 25.922c-.044-10.607-.044-16.009 0-16.204.068-.293.338-.645.768-.9.286-.17.55-.243.79-.221l7.393-.01c.282 0 .46.004.533.01.11.01.136.137.148.221.04.293-.03.472-.42.9-.332.363-.917.538-1.757.525l-5.185-.006a.58.58 0 0 0-.209.066.975.975 0 0 0-.334.398c-.017.036-.034.117-.077.256-.029.093-.035 1.03-.018 2.812a.88.88 0 0 0 .06.341c.036.071.228.104.578.099 4.66-.053 7.09-.064 7.286-.033.295.047.154.78-.182 1.177-.336.396-.9.6-.9.529v8.909c0 .258-.051.536-.072.604-.091.301-.511.694-.831.887-.227.136-.365.126-.454.127-.056 0-.14 0-.174-.1-.024-.068-.038-.369-.043-.905l.043-8.656v-.486c0-.158-.004-.222-.043-.268-.105-.125-.277-.123-.32-.137-.03-.01-.26-.01-.692 0h-3.476a2.993 2.993 0 0 0-.414 0 .914.914 0 0 0-.27.096c-.034.018-.08.097-.096.248-.01.1-.01.258 0 .473.03 4.726.05 7.306.06 7.74.01.435-.027.774-.111 1.019-.22.43-.46.714-.723.849-.393.202-.596.12-.727.066-.088-.035-.131-.177-.13-.426z"/></g></g></svg>