<svg width="34" height="34" viewBox="0 0 34 34" xmlns="http://www.w3.org/2000/svg" xmlns:xlink="http://www.w3.org/1999/xlink"><title>Youku-Icon-BW</title><defs><rect id="a" width="34" height="34" rx="8"/></defs><g fill="none" fill-rule="evenodd"><g><use fill="#FFF" xlink:href="#a"/><rect stroke="#4A4A4A" x=".5" y=".5" width="33" height="33" rx="8"/></g><path d="M12.88 17.853c.568 0 1.028-.514 1.028-1.149 0-.634-.46-1.149-1.027-1.149s-1.027.515-1.027 1.15c0 .634.46 1.148 1.027 1.148zm0 .973c-1.418 0-2.302-.966-2.302-2.157 0-1.19 1.031-2.156 2.303-2.156 1.271 0 2.302.966 2.302 2.156 0 1.19-.775 2.157-2.302 2.157zm6.56-1.576c-.056 1.02-.888 1.623-2.074 1.638-2.11.028-2.07-1.259-2.077-1.509l.002-1.994c.027-.406.243-.63.651-.66.381.017.573.219.59.62l-.002 2.007c0 .18.1.684.84.666.498-.012.798-.305.82-.73v-2.002c.027-.407.227-.627.62-.65.407.007.616.204.635.607l-.005 2.007zm4.228 1.357c-.226.207-.679.23-.955.014-.093-.077-1.807-1.46-1.807-1.46l-.002 1.132c-.017.34-.232.527-.662.526-.411 0-.635-.173-.658-.528v-3.045c.023-.37.207-.584.657-.584.436 0 .647.228.657.585l.01 1.062 1.624-1.466c.163-.143.615-.329.97-.006.482.439-.069.938-.069.938l-1.113.926 1.243 1.006c.287.233.343.681.105.9zm4.312-1.312c-.058 1.01-.735 1.535-2.085 1.555-1.342-.02-2.031-.548-2.076-1.552V15.3c.022-.402.218-.636.646-.636.387.014.581.232.603.634l.004 1.997c.023.421.348.697.827.697.455 0 .804-.275.826-.697v-1.997c.016-.402.23-.618.624-.632.394.014.609.23.632.632v1.997zm-20.566 3.57c-.578-.216-.422-.719-.336-.9l.648-1.352-1.65-3.604c-.033-.108-.224-.68.362-.868.54-.172.828.064 1.001.402l1.052 2.505 1.102-2.496c.137-.308.36-.634 1.01-.415.674.227.361.867.361.867l-2.517 5.39c-.189.37-.454.685-1.033.47z" fill="#4A4A4A" fill-rule="nonzero"/></g></svg>