<svg width="34" height="34" viewBox="0 0 34 34" xmlns="http://www.w3.org/2000/svg" xmlns:xlink="http://www.w3.org/1999/xlink"><title>Zhihu-Icon-BW</title><defs><rect id="a" width="34" height="34" rx="8"/></defs><g fill="none" fill-rule="evenodd"><g><use fill="#FFF" xlink:href="#a"/><rect stroke="#4A4A4A" x=".5" y=".5" width="33" height="33" rx="8"/></g><path d="M9.472 7.244c-.14.147-.857 2.004-2.15 5.572l-.266.643c.844-.201 1.463-.458 1.854-.769.588-.467.655-.7.823-.993.167-.293.248-.454.375-.56.132-.11.173-.335.301-.399.076-.038.34-.008.571 0 .16.005.298-.023.375 0 .17.05.23.184.176.4v4.39c-.064.166-.15.28-.256.34-.16.092-.535.154-.67.155-1.017.007-1.149 0-1.516 0-.623 0-.772.038-.996.138-.54.24-.886.861-1.037 1.864h3.924c.189.061.314.133.375.217.091.125.175.201.176.389.012 1.104-.362 2.358-1.122 3.762-1.332 2.463-3.067 3.48-3.215 3.635-.148.155-.286.411-.06.541.226.13 1.908.124 2.758-.386.876-.525 1.735-1.956 2.206-3.096.47-1.14 1.07-3.199 1.169-3.756.097-.557.104-1.085.12-1.154.026-.118.09-.169.191-.152h4.427c.18 0 .093-.562-.239-1.14-.331-.576-.708-.767-.874-.797-.243-.043-1.06-.065-2.45-.065-.495-.11-.783-.224-.864-.344-.08-.12-.126-.36-.134-.722.046-2.203.07-3.402.07-3.599 0-.295.3-.554.567-.62.179-.044.467-.044.866 0 1.759.06 2.668.06 2.729 0 .09-.089-.458-1.43-.97-1.491-.34-.04-2.099-.04-5.276 0-.374.017-.598-.008-.672-.074-.074-.066-.074-.267 0-.604.475-1.52.7-2.36.672-2.52-.04-.239-1.747.975-1.958 1.195z" fill="#4A4A4A"/><path d="M12.855 21.172l1.28-1.19c1.558 2.056 2.422 3.231 2.593 3.524.121.209.095.394.084.552l-.001.029c-.001.01.01.261 0 .458-.022.396-.03.772-.184.876-.153.104-.262-.051-.515-.265-.169-.143-1.254-1.471-3.257-3.984zM18.635 9.395V24.69l1.915.003v3.298l3.2-3.298H27v-15.3z" fill="#4A4A4A"/><path fill="#FFF" d="M20.574 11.357V23.29h.618v1.35l2.45-1.352 1.371.002V11.357z"/></g></svg>